<?xml version="1.0" encoding="utf-8"?>
<!-- Generator: Adobe Illustrator 16.0.0, SVG Export Plug-In . SVG Version: 6.00 Build 0)  -->
<!DOCTYPE svg PUBLIC "-//W3C//DTD SVG 1.1//EN" "http://www.w3.org/Graphics/SVG/1.1/DTD/svg11.dtd">
<svg version="1.1" id="Layer_1" xmlns="http://www.w3.org/2000/svg" xmlns:xlink="http://www.w3.org/1999/xlink" x="0px" y="0px"
	 width="64px" height="64px" viewBox="0 0 64 64" enable-background="new 0 0 64 64" xml:space="preserve">
<path fill="none" stroke="#000000" stroke-width="4" stroke-linecap="round" stroke-linejoin="round" stroke-miterlimit="10" d="
	M43.601,32c0,2.852-1.028,5.463-2.735,7.482c-2.128,2.52-5.31,4.118-8.865,4.118c-6.407,0-11.601-5.193-11.601-11.601
	c0-6.407,5.194-11.601,11.601-11.601C38.407,20.399,43.601,25.593,43.601,32z"/>
<path fill="none" stroke="#000000" stroke-width="4" stroke-linecap="round" stroke-linejoin="round" stroke-miterlimit="10" d="
	M61.334,32C61.334,15.799,48.2,2.666,32,2.666C15.799,2.666,2.666,15.799,2.666,32c0,16.2,13.133,29.334,29.334,29.334"/>
<path fill="none" stroke="#000000" stroke-width="4" stroke-linecap="round" stroke-linejoin="round" stroke-miterlimit="10" d="
	M61.334,32c0,18.014-17.733,16.75-17.733,0V20.399"/>
</svg>
