<?xml version="1.0" encoding="utf-8"?>
<!-- Generator: Adobe Illustrator 16.0.0, SVG Export Plug-In . SVG Version: 6.00 Build 0)  -->
<!DOCTYPE svg PUBLIC "-//W3C//DTD SVG 1.1//EN" "http://www.w3.org/Graphics/SVG/1.1/DTD/svg11.dtd">
<svg version="1.1" id="Layer_1" xmlns="http://www.w3.org/2000/svg" xmlns:xlink="http://www.w3.org/1999/xlink" x="0px" y="0px"
	 width="300px" height="300px" viewBox="0 0 300 300" enable-background="new 0 0 300 300" xml:space="preserve">
<path d="M173.386,299.945c0.032-44.108,0.035-90.331-0.002-134.442c0-1.576,0.441-2.046,2.052-2.039
	c13.893,0.063,27.785,0.021,41.678,0.062c1.48,0.007,2.221-0.17,2.428-1.959c1.012-8.771,2.213-17.524,3.354-26.284
	c0.992-7.613,2.001-15.225,2.987-22.839c0.101-0.783,0.092-1.582,0.146-2.618c-0.892,0-1.624,0-2.356,0
	c-16.035,0-32.07-0.022-48.105,0.034c-1.611,0.006-2.205-0.333-2.188-2.074c0.115-12.097,0.063-24.196,0.228-36.292
	c0.032-2.507,0.526-5.064,1.195-7.493c2.135-7.768,7.773-11.671,15.341-12.958c3.624-0.615,7.357-0.749,11.044-0.8
	c8.274-0.112,16.555-0.066,24.831-0.008c1.549,0.012,2.1-0.403,2.092-2.047c-0.061-14.704-0.063-29.407,0.004-44.11
	c0.011-1.62-0.593-2.14-2.039-2.229c-7.56-0.468-15.107-1.084-22.673-1.412c-6.644-0.287-13.31-0.486-19.958-0.322
	c-13.161,0.322-25.648,3.352-36.864,10.517c-13.883,8.867-22.013,21.781-26.011,37.539c-1.99,7.844-2.606,15.837-2.638,23.887
	c-0.048,11.866-0.047,23.733,0.024,35.6c0.013,1.746-0.454,2.22-2.229,2.21c-13.893-0.079-27.786-0.017-41.677-0.079
	c-1.642-0.007-2.155,0.392-2.148,2.094c0.063,16.499,0.071,32.997-0.01,49.494c-0.009,1.875,0.638,2.162,2.285,2.157
	c13.836-0.059,27.67-0.004,41.505-0.071c1.688-0.007,2.278,0.338,2.276,2.166c-0.053,44.052-0.049,90.267-0.008,134.317H173.386
	L173.386,299.945L173.386,299.945z"/>
</svg>
