<?xml version="1.0" encoding="utf-8"?>
<!-- Generator: Adobe Illustrator 16.0.0, SVG Export Plug-In . SVG Version: 6.00 Build 0)  -->
<!DOCTYPE svg PUBLIC "-//W3C//DTD SVG 1.1//EN" "http://www.w3.org/Graphics/SVG/1.1/DTD/svg11.dtd">
<svg version="1.1" id="Layer_1" xmlns="http://www.w3.org/2000/svg" xmlns:xlink="http://www.w3.org/1999/xlink" x="0px" y="0px"
	 width="240px" height="240px" viewBox="0 0 240 240" enable-background="new 0 0 240 240" xml:space="preserve">
<g>
	<path d="M237.629,54.962c-6.684-32.41-28.689-51.516-61.939-53.968C173.779,0.854,171.896,0.34,170,0c-33.334,0-66.667,0-100,0
		c-5.016,0.779-10.075,1.348-15.04,2.372C22.518,9.063,3.449,31.027,0.994,64.311C0.853,66.221,0.34,68.104,0,70
		c0,33.333,0,66.667,0,100c0.779,5.016,1.348,10.074,2.372,15.039c6.689,32.436,28.664,51.513,61.938,53.967
		c1.911,0.141,3.793,0.654,5.689,0.994c33.333,0,66.666,0,100,0c5.019-0.779,10.078-1.35,15.045-2.374
		c32.444-6.694,51.534-28.694,53.964-61.974c0.139-1.898,0.651-3.77,0.991-5.652c0-33.333,0-66.667,0-100
		C239.221,64.985,238.652,59.927,237.629,54.962z M217.825,119.806c-0.237,0.001-0.474,0.001-0.71,0.001
		c0,17.981,0.805,36.007-0.189,53.934c-1.479,26.655-16.838,42.38-43.662,43.149c-35.768,1.028-71.609,0.959-107.377-0.063
		c-25.739-0.734-41.934-16.801-42.66-42.445c-1.027-36.266-1.018-72.603,0.004-108.868c0.715-25.39,16.887-41.567,42.269-42.283
		c36.267-1.022,72.604-1.025,108.871-0.007c25.481,0.716,40.483,16.738,42.67,42.141c0.271,3.151,0.733,6.304,0.75,9.457
		C217.869,89.815,217.825,104.811,217.825,119.806z"/>
	<path d="M120.109,58.164c-33.954-0.05-61.779,27.563-61.945,61.474c-0.167,34.19,27.58,62.148,61.728,62.198
		c33.961,0.049,61.781-27.563,61.943-61.481C181.998,86.173,154.248,58.215,120.109,58.164z M119.612,159.832
		c-21.719-0.1-39.573-18.182-39.462-39.968c0.112-22.087,18.074-39.81,40.233-39.696c21.977,0.111,39.617,18.207,39.449,40.467
		C159.668,142.325,141.602,159.934,119.612,159.832z"/>
	<path d="M184.141,41.506c-8.195-0.066-14.598,6.272-14.611,14.47c-0.014,8.214,6.205,14.23,14.668,14.19
		c8.262-0.038,14.212-5.864,14.298-14C198.582,47.873,192.414,41.573,184.141,41.506z"/>
</g>
</svg>
