<?xml version="1.0" encoding="utf-8"?>
<!-- Generator: Adobe Illustrator 16.0.0, SVG Export Plug-In . SVG Version: 6.00 Build 0)  -->
<!DOCTYPE svg PUBLIC "-//W3C//DTD SVG 1.1//EN" "http://www.w3.org/Graphics/SVG/1.1/DTD/svg11.dtd">
<svg version="1.1" id="Layer_1" xmlns="http://www.w3.org/2000/svg" xmlns:xlink="http://www.w3.org/1999/xlink" x="0px" y="0px"
	 width="120px" height="120px" viewBox="0 0 120 120" enable-background="new 0 0 120 120" xml:space="preserve">
<path fill="none" stroke="#000000" stroke-width="8.5039" stroke-linecap="round" stroke-linejoin="round" stroke-miterlimit="10" d="
	M114.117,93.823c0,3.735-3.027,6.765-6.766,6.765H12.647c-3.736,0-6.765-3.027-6.765-6.765V26.176c0-3.735,3.029-6.765,6.765-6.765
	h94.707c3.736,0,6.765,3.03,6.765,6.765L114.117,93.823L114.117,93.823z"/>
<path fill="none" stroke="#000000" stroke-width="8.5039" stroke-linecap="round" stroke-linejoin="round" stroke-miterlimit="10" d="
	M107.446,19.412H12.74c-1.831,0-3.485,0.733-4.704,1.916l46.238,46.238c3.119,3.121,8.178,3.121,11.297,0l46.393-46.392
	C110.765,20.089,109.19,19.412,107.446,19.412z"/>
<path fill="none" stroke="#000000" stroke-width="8.5039" stroke-linecap="round" stroke-linejoin="round" stroke-miterlimit="10" d="
	M70.694,62.348l-5.217,5.217c-3.119,3.119-8.176,3.119-11.297,0l-5.063-5.063L7.362,97.999c1.237,1.565,3.133,2.589,5.284,2.589
	h94.706c2.151,0,4.047-1.023,5.285-2.589L70.694,62.348z"/>
</svg>
