<?xml version="1.0" encoding="utf-8"?>
<!-- Generator: Adobe Illustrator 16.0.0, SVG Export Plug-In . SVG Version: 6.00 Build 0)  -->
<!DOCTYPE svg PUBLIC "-//W3C//DTD SVG 1.1//EN" "http://www.w3.org/Graphics/SVG/1.1/DTD/svg11.dtd">
<svg version="1.1" id="Layer_1" xmlns="http://www.w3.org/2000/svg" xmlns:xlink="http://www.w3.org/1999/xlink" x="0px" y="0px"
	 width="60px" height="90px" viewBox="0 0 60 90" enable-background="new 0 0 60 90" xml:space="preserve">
<path fill="#FBDF00" d="M30,89.014c-1.725,0-3.341-0.808-4.382-2.151l-0.01,0.004l-0.085-0.132
	c-0.123-0.169-0.236-0.344-0.341-0.528l-0.047-0.085C23.348,82.934,7.758,55.02,5.157,48.184
	C0.514,35.983,0.954,30.667,1.062,29.852C1.102,13.927,14.069,0.986,30.001,0.986c15.935,0,28.903,12.946,28.94,28.873
	c0.108,0.861,0.511,6.219-4.094,18.325c-2.624,6.9-18.384,35.094-19.874,37.752v0.018l-0.146,0.246
	C33.858,87.926,32.003,89.014,30,89.014z"/>
<circle fill="#FFFFFF" cx="30" cy="30.196" r="16.782"/>
<path fill="#DB8027" d="M30,90.028c-1.962,0-3.854-0.904-5.092-2.427c-0.057-0.054-0.108-0.115-0.152-0.184l-0.085-0.132
	c-0.114-0.153-0.248-0.36-0.372-0.578c-0.001-0.003-0.05-0.09-0.052-0.093c-1.77-3.159-17.38-31.082-20.04-38.071
	c-4.594-12.074-4.297-17.61-4.161-18.758C0.123,13.341,13.546-0.029,30.001-0.029c16.459,0,29.884,13.375,29.955,29.826
	c0.13,1.151,0.408,6.739-4.16,18.747c-2.657,6.987-18.651,35.592-19.884,37.793c-0.019,0.047-0.041,0.092-0.066,0.135L35.7,86.719
	C34.559,88.752,32.37,90.028,30,90.028z M26.376,86.188c0.015,0.018,0.03,0.035,0.044,0.053c0.853,1.102,2.191,1.759,3.58,1.759
	c1.636,0,3.147-0.88,3.942-2.297l0.101-0.169c0.014-0.032,0.029-0.063,0.046-0.094c0.699-1.248,17.158-30.642,19.81-37.617
	c4.585-12.051,4.105-17.281,4.036-17.838c-0.005-0.041-0.008-0.082-0.008-0.124c-0.036-15.362-12.563-27.86-27.925-27.86
	c-15.359,0-27.886,12.495-27.924,27.853c0,0.044-0.003,0.088-0.009,0.131c-0.073,0.548-0.579,5.707,4.037,17.837
	c2.652,6.971,19.21,36.546,19.914,37.802c0.13,0.23,0.223,0.373,0.323,0.512L26.376,86.188z"/>
</svg>
