<?xml version="1.0" encoding="utf-8"?>
<!-- Generator: Adobe Illustrator 16.0.0, SVG Export Plug-In . SVG Version: 6.00 Build 0)  -->
<!DOCTYPE svg PUBLIC "-//W3C//DTD SVG 1.1//EN" "http://www.w3.org/Graphics/SVG/1.1/DTD/svg11.dtd">
<svg version="1.1" id="Layer_1" xmlns="http://www.w3.org/2000/svg" xmlns:xlink="http://www.w3.org/1999/xlink" x="0px" y="0px"
	 width="800px" height="800px" viewBox="0 0 800 800" enable-background="new 0 0 800 800" xml:space="preserve">
<path d="M702.651,188.626c-81.525-17.439-142.264-85.83-149.951-168.846V2.24H415.673v543.807
	c-0.224,63.616-51.977,115.005-115.593,114.781c-35.841-0.126-69.58-16.928-91.277-45.454l-0.079-0.04l0.079,0.04
	c-38.471-50.639-28.606-122.877,22.033-161.348c29.844-22.674,68.856-29.403,104.571-18.038V296.775
	C197.686,277.736,70.608,373.947,51.57,511.668c-10.653,77.067,14.925,154.73,69.291,210.384
	c97.192,99.445,256.598,101.272,356.043,4.081c48.466-47.369,75.791-112.276,75.796-180.047v-277.87
	c55.377,39.59,121.773,60.818,189.847,60.697v-136.15C729.14,192.779,715.769,191.394,702.651,188.626z"/>
</svg>
