<?xml version="1.0" encoding="utf-8"?>
<!-- Generator: Adobe Illustrator 16.0.0, SVG Export Plug-In . SVG Version: 6.00 Build 0)  -->
<!DOCTYPE svg PUBLIC "-//W3C//DTD SVG 1.1//EN" "http://www.w3.org/Graphics/SVG/1.1/DTD/svg11.dtd">
<svg version="1.1" id="Layer_1" xmlns="http://www.w3.org/2000/svg" xmlns:xlink="http://www.w3.org/1999/xlink" x="0px" y="0px"
	 width="300px" height="300px" viewBox="0 0 300 300" enable-background="new 0 0 300 300" xml:space="preserve">
<g>
	<path d="M152.117,255.221c-22.98-0.595-48.123-0.986-73.242-1.998c-13.224-0.535-26.451-1.765-39.59-3.379
		c-18.968-2.332-31.24-14.637-34.53-33.46c-3.872-22.141-4.668-44.497-4.752-66.892c-0.069-18.558,0.769-37.095,3.145-55.513
		c0.804-6.222,1.67-12.596,3.748-18.461c5.145-14.524,15.689-23.434,31.018-25.426c13.626-1.77,27.375-2.952,41.104-3.492
		c23.383-0.92,46.792-1.498,70.191-1.537c21.803-0.034,43.619,0.6,65.413,1.369c13.091,0.462,26.162,1.631,39.227,2.708
		c6.417,0.53,12.842,1.452,18.795,4.127c12.477,5.604,19.439,15.484,22.123,28.714c2.427,11.958,3.549,24.062,4.269,36.209
		c1.042,17.588,1.304,35.191,0.479,52.801c-0.773,16.428-1.626,32.854-5.231,48.971c-3.717,16.625-15.639,27.858-32.607,29.868
		c-13.866,1.643-27.816,2.847-41.762,3.463C198.051,254.264,176.164,254.573,152.117,255.221z M120.066,194.963
		c26.119-15.011,51.962-29.865,78.187-44.938c-26.249-15.149-52.083-30.061-78.187-45.126
		C120.066,135.02,120.066,164.747,120.066,194.963z"/>
</g>
</svg>
