<?xml version="1.0" encoding="utf-8"?>
<!-- Generator: Adobe Illustrator 16.0.0, SVG Export Plug-In . SVG Version: 6.00 Build 0)  -->
<!DOCTYPE svg PUBLIC "-//W3C//DTD SVG 1.1//EN" "http://www.w3.org/Graphics/SVG/1.1/DTD/svg11.dtd">
<svg version="1.1" id="Layer_1" xmlns="http://www.w3.org/2000/svg" xmlns:xlink="http://www.w3.org/1999/xlink" x="0px" y="0px"
	 width="1024px" height="1024px" viewBox="0 0 1024 1024" enable-background="new 0 0 1024 1024" xml:space="preserve">
<path d="M1020.975,512c0,281.1-227.875,508.975-508.975,508.975C230.901,1020.975,3.026,793.1,3.026,512
	C3.026,230.911,230.901,3.025,512,3.025C793.1,3.025,1020.975,230.911,1020.975,512z"/>
<path fill="#FFFFFF" d="M263.186,658.436c-8.41,0-16.152,0-24.517,0c0-13.141-0.009-25.922,0.003-38.706
	c0.015-15.371,0.529-30.764-0.094-46.11c-0.432-10.619,0.294-22.077-7.465-30.716c-4.329-4.819-9.664-8.812-14.979-12.525
	c-2.61-1.824-4.098-3.25-3.891-6.666c0.229-3.802-0.373-7.646-0.358-11.473c0.004-1.048,0.666-2.403,1.458-3.083
	c5.27-4.522,6.579-10.091,4.524-16.638c-1.63-5.194-5.849-6.637-10.477-7.36c-1.208-0.189-2.467-0.03-4.397-0.03
	c-0.276-8.544-0.99-16.832-0.702-25.084c0.368-10.542-7.104-14.737-13.378-14.938c-7.981-0.255-13.41,5.779-13.694,14.757
	c-0.255,8.157-0.355,16.32-0.537,24.48c-0.003,0.138-0.16,0.27-0.246,0.402c-1.973,0.373-3.931,0.878-5.918,1.093
	c-6.02,0.653-8.449,4.879-9.411,10.198c-0.928,5.128,1.569,9.158,4.781,12.852c1.058,1.216,2.229,2.713,2.47,4.229
	c1.493,9.402-0.621,15.758-10.367,20.618c-11.584,5.777-16.491,17.703-16.729,31.007c-0.056,3.112-0.731,4.599-3.789,5.833
	c-6.291,2.537-12.282,5.849-19.016,9.142c-0.791-4.009-1.901-8.629-2.59-13.316c-3.87-26.327-3.795-52.875-2.686-79.321
	c1.536-36.569,9.114-72.088,20.837-106.677c14.81-43.698,36.308-83.549,64.22-119.977c34.925-45.583,76.62-82.917,126.314-110.667
	c30.015-16.761,61.382-30.44,94.77-38.349c18.525-4.387,37.401-7.386,56.239-10.156c11.843-1.742,23.923-2.796,35.866-2.562
	c16.634,0.328,33.264,1.89,49.854,3.4c20.413,1.859,40.328,6.576,59.93,12.535c43.607,13.252,84.044,33.374,120.843,60.701
	c23.547,17.488,45.646,36.877,65.315,58.938c39.011,43.756,68.135,93.551,86.895,149.666c7.529,22.517,13.409,45.469,16.747,68.984
	c1.852,13.043,2.492,26.318,2.909,39.513c0.48,15.151,0.691,30.364-0.06,45.493c-0.698,14.032-2.818,27.991-4.329,42.137
	c-8.09-4.026-15.605-7.763-23.595-11.737c-0.243-9.445-1.902-19.564-8.945-27.442c-3.772-4.221-8.544-7.793-13.45-10.57
	c-3.833-2.167-5.691-4.401-5.014-8.797c0.193-1.252,0.05-2.562,0.026-3.844c-0.076-3.908-0.233-7.424,3.433-10.51
	c4.302-3.618,5.199-9.273,2.893-14.341c-1.262-2.777-4.371-4.991-7.119-6.637c-1.997-1.197-4.767-1.051-7.666-1.59
	c0-8.012,0.097-16.155-0.021-24.295c-0.178-12.301-11.271-18.853-21.496-12.757c-3.821,2.28-5.539,5.889-5.745,10.298
	c-0.419,8.942-0.791,17.885-1.184,26.851c-1.776,0.353-3.407,0.753-5.062,0.99c-4.749,0.679-8.396,3.19-9.53,7.897
	c-1.308,5.44-0.847,11.252,3.787,14.887c2.547,1.999,2.605,3.915,2.585,6.42c-0.005,0.48-0.076,0.976,0.01,1.44
	c1.505,8.145-1.442,12.925-8.845,17.144c-10.825,6.172-16.334,16.996-16.465,29.77c-0.306,30.096-0.149,60.195-0.194,90.293
	c-0.001,1.413-0.145,2.826-0.243,4.588c-7.785,0-15.347,0-22.196,0c3.275-15.943,7.293-31.903,9.646-48.113
	c1.907-13.13,2.214-26.556,2.484-39.867c0.24-11.777,0.401-23.706-1.107-35.333c-2.05-15.793-4.77-31.634-8.887-46.981
	c-10.381-38.689-26.439-74.835-50.344-106.872c-15.59-20.891-33.447-39.618-53.821-55.799
	c-26.874-21.343-56.613-36.665-89.26-46.429c-24.681-7.382-49.913-10.173-75.286-7.98c-50.683,4.376-96.198,23.142-136.176,55.431
	c-32.617,26.342-59.004,58.085-77.955,96.094c-0.559,1.118-1.063,2.268-1.527,3.432c-0.097,0.242,0.104,0.607,0.221,1.178
	c9.865,0,19.772,0,30.376,0c0-5.749,0-11.125,0-16.264c4.078-1.51,4.876,0.667,4.957,3.33c0.13,4.295,0.035,8.598,0.035,13.402
	c2.665-0.146,4.897-0.269,7.563-0.416c0-5.802,0-11.187,0-16.775c1.657,0,2.856,0,4.684,0c0,1.913,0,3.78,0,5.647
	c0.007,11.531,0.007,11.555,11.387,11.42c5.484-0.066,10.964-0.302,16.447-0.326c1.848-0.007,3.823,0.075,5.497,0.747
	c1.032,0.416,2.158,1.99,2.226,3.107c0.062,1.025-1.014,2.633-1.99,3.102c-1.615,0.772-3.555,1.145-5.359,1.149
	c-23.812,0.051-47.622-0.007-71.433,0.01c-3.106,0.001-6.897-0.8-9.122,0.706c-2.195,1.484-3.07,5.332-4.064,8.304
	c-6.196,18.526-13.103,36.867-18.075,55.738c-3.283,12.46-4.395,25.661-5.254,38.614c-0.949,14.33-1.03,28.775-0.543,43.137
	c0.828,24.54,5.635,48.443,12.816,71.849C262.092,654.853,262.55,656.354,263.186,658.436z M763.091,292.235
	c9.128-8.287,18.052-16.388,27.178-24.674c-7.965-9.255-15.579-18.104-23.001-26.728c-2.442,2.261-4.615,4.274-6.79,6.289
	c0.931,1.432,1.673,2.574,2.699,4.153c-9.563,8.673-18.945,17.271-28.423,25.76c-11.249,10.077-22.653,19.983-33.83,30.144
	c-3.009,2.736-5.471,5.897-8.845,0.509c-2.218,2.078-4.136,3.879-6.393,5.994c6.646,7.733,13.159,15.456,19.864,23
	c1.486,1.672,3.646,2.715,6.124,4.502c0.271,5.53,1.384,7.296,9.575,13.584c8.516,6.539,17.729,9.865,28.592,7.279
	c17.102-4.071,26.419-21.591,25.676-36.87C774.942,313.344,771.113,302.241,763.091,292.235z M401.431,152.617
	c1.773,3.737-0.92,9.922,6.409,9.462c0.343-0.022,0.975,1.158,1.108,1.851c0.713,3.72,1.272,7.468,1.952,11.195
	c3.032,16.6,6.118,33.189,9.119,49.794c1.541,8.526,2.942,17.077,4.404,25.609c-1.711,0.639-2.967,1.109-4.54,1.698
	c0.544,3.204,1.063,6.253,1.589,9.347c11.471-2.267,22.638-4.474,34.18-6.754c-1.695-9.619-3.333-18.904-5.059-28.698
	c10.74,5.774,17.625,14.225,22.086,25.543c11.422-2.155,22.741-4.292,34.037-6.424c-1.235-9.805-1.235-9.805-6.65-8.969
	c-7.161-13.706-18.127-23.348-32.258-29.469c3.036-5.504,5.604-10.38,8.384-15.126c1.699-2.896,1.933-7.313,6.833-7.303
	c0.387,0,1.176-2.432,1.078-3.673c-0.159-1.977-0.907-3.904-1.405-5.848c-1.436,0.131-2.65,0.257-3.865,0.351
	c-8.341,0.646-14.967,2.968-18.345,12.376c-2.944,8.197-8,15.601-12.57,24.199c-4.122-22.496-8.054-43.955-12.034-65.684
	C424.242,148.299,413.051,150.417,401.431,152.617z M325.148,239.856c-0.877-1.067-2.2-2.672-3.434-4.172
	c-9.524,7.196-18.582,14.039-27.829,21.025c1.968,2.899,3.625,5.341,5.304,7.815c1.462-0.887,2.778-1.686,4.467-2.71
	c10.402,14.464,20.832,28.964,31.354,43.591c-1.442,1.05-2.566,1.868-4.009,2.92c1.396,2.138,2.538,4.359,4.153,6.127
	c0.635,0.695,2.744,0.969,3.477,0.431c8.779-6.46,17.425-13.109,26.021-19.645c-3.491-4.965-6.811-9.741-10.188-14.475
	c-3.379-4.735-6.852-9.4-10.219-14.144c-3.819-5.375-7.929-10.584-11.246-16.274c-3.398-5.832-0.513-11.702,5.852-12.365
	c4.49-0.467,6.75,3.347,9.02,6.5c9.878,13.729,19.663,27.527,29.551,41.395c9.583-7.191,18.915-14.197,28.505-21.393
	c-1.831-2.564-3.488-4.888-5.204-7.291c-1.646,1.096-2.908,1.936-4.354,2.899c-0.873-1.136-1.638-2.114-2.383-3.108
	c-7.616-10.186-14.948-20.615-22.928-30.493c-7.285-9.017-25.661-10.008-34.741-1.183
	C332.079,229.426,328.981,234.775,325.148,239.856z M564.312,243.087c4.972-28.246,10.101-56.298,14.658-84.447
	c0.684-4.219,1.865-5.407,5.543-4.732c0.47-3.212,0.894-6.115,1.354-9.287c-13.912-2.586-27.372-5.087-41.196-7.657
	c-0.492,3.397-0.956,6.596-1.428,9.854c2.005,0.404,3.417,0.688,5.06,1.02c-0.377,0.947-0.72,1.502-0.821,2.101
	c-4.491,26.271-8.856,52.565-13.566,78.794c-0.589,3.277,0.926,9.119-5.875,8.47c-0.388-0.037-1.16,2.07-1.427,3.256
	c-0.404,1.798-0.521,3.665-0.794,5.76c24.551,4.392,49.038,8.771,73.514,13.148c0.626-3.614,1.069-6.094,1.481-8.58
	c0.438-2.647,0.709-5.333,1.291-7.945c2.16-9.697,2.197-9.688-7.045-11.667c-0.152-0.033-0.304-0.085-0.458-0.104
	c-2.636-0.341-4.763-0.157-5.881,3.073c-1.174,3.396-2.798,6.678-4.622,9.766c-0.688,1.167-2.593,2.477-3.751,2.312
	C575.031,245.462,569.784,244.205,564.312,243.087z M677.028,292.936c6.063-10.722,12.052-21.441,18.167-32.084
	c5.254-9.143,5.648-17.959-0.355-27.077c-6.597-10.015-15.542-17.068-26.27-21.234c-13.601-5.283-10.24-6.687-17.363,6.687
	c2.449,1.604,4.88,3.28,7.394,4.81c1.43,0.871,3.001,1.504,4.532,2.256c1.491-1.416,2.846-2.703,4.147-3.94
	c7.837,4.266,11.377,8.736,5.878,16.076c-5.491-1.687-10.817-3.967-16.357-4.849c-5.738-0.916-11.736-1.063-17.526-0.515
	c-13.113,1.245-20.251,13.296-19.415,24.17c0.676,8.812,6.305,15.229,13.004,20.549c5.238,4.161,10.703,7.168,18.387,3.617
	c-1.06,2.582-1.634,3.982-2.359,5.753c9.302,5.42,18.646,10.864,28.252,16.461c1.597-2.73,2.991-5.115,4.375-7.483
	C679.945,295.01,678.559,294.025,677.028,292.936z M227.008,287.086c20.111,20.151,39.851,40.041,59.754,59.759
	c2.915,2.887,4.015,5.105,0.791,7.325c2.11,2.254,4.126,4.409,5.553,5.932c9.571-9.77,19.269-19.67,28.599-29.192
	c-1.791-1.888-3.922-4.134-6.118-6.447c-0.932,0.795-1.954,1.666-2.558,2.181c-20.965-21.508-41.717-42.797-62.615-64.237
	c0.591-0.709,1.455-1.74,1.913-2.288c-2.197-2.478-4.171-4.703-6.335-7.142c-7.958,8.17-15.789,16.219-23.629,24.256
	c-6.698,6.868-6.702,6.864,1.565,12.523C224.927,288.89,225.98,287.978,227.008,287.086z"/>
<path fill="#FFFFFF" d="M219.712,793.232c15.884,0,31.295,0,47.154,0c1.308,15.782,6.716,29.629,19.095,39.802
	c9.032,7.422,19.89,11.047,31.021,10.705c19.088-0.589,41.131-7.643,48.491-42.907c98.597,0,197.229,0,295.76,0
	c6.103,30.763,26.833,43.719,51.814,42.386c22.643-1.211,42.66-14.569,46.299-50.031c7.591,0,15.265,0,22.938,0
	c7.345,0,14.69,0,22.87,0c-1.384,1.747-2.298,3.099-3.398,4.266c-30.748,32.701-66.212,58.896-105.186,80.362
	c-26.604,14.655-54.508,25.961-83.649,33.809c-15.065,4.055-30.546,6.562-45.907,9.38c-21.667,3.974-43.575,5.804-65.549,4.65
	c-13.945-0.734-27.899-2.444-41.695-4.697c-16.141-2.635-32.405-5.28-48.107-9.777c-42.802-12.266-83.256-30.342-120.001-56.136
	c-16.918-11.876-32.807-25.316-48.904-38.383C234.379,809.859,226.134,802.767,219.712,793.232z M579.674,853.573
	c9.22-9.432,8.426-18.932-1.936-23.769c-7.773-3.626-15.883-3.606-23.654,0.011c-9.571,4.458-11.106,14.203-3.735,21.813
	c0.624,0.646,1.183,1.354,1.995,2.296c-1.374,1.269-2.624,2.235-3.655,3.404c-7.954,9.011-5.251,21.391,5.777,25.775
	c7.73,3.072,15.646,3.074,23.319-0.246c10.13-4.387,12.903-15.102,6.373-24.091C582.878,857.003,581.313,855.455,579.674,853.573z
	 M468.125,862.725c-0.114,13.841,7.527,21.727,21.189,21.87c14.004,0.146,22.033-7.381,22.224-20.83
	c0.197-13.922-7.796-22.439-21.208-22.596C476.605,841.006,468.238,849.131,468.125,862.725z M428.857,884.128
	c11.793,0,23.134,0,34.357,0c0-2.986,0-5.627,0-8.671c-2.812,0.25-6.421-0.503-7.507,0.858c-4.578,5.73-9.829,1.611-15.184,2.766
	c1.207-5.683,4.996-7.69,8.485-9.996c3.662-2.417,7.641-4.482,10.866-7.41c6.329-5.745,5.329-12.571-2.136-16.647
	c-7.727-4.225-15.991-3.381-24.294-2.601c-5.049,0.474-5.927,3.032-4.174,8.229c2.466-0.512,5.826-0.199,7.472-1.769
	c3.09-2.951,5.627-1.684,7.872,0.091c2.909,2.3,1.194,4.969-0.784,6.947c-3.125,3.126-6.489,5.997-9.739,8.992
	C428.412,870.153,426.662,876.519,428.857,884.128z M536.89,842.297c-7.576,0-14.53,0-21.24,0c-1.376,3.822-0.079,5.749,3.646,5.905
	c0,9.489,0.046,18.599-0.06,27.71c-0.014,1.063-0.807,2.146-1.33,3.17c-0.771,1.515-1.626,2.983-2.811,5.14
	c9.189,0,17.101,0,25.85,0c-0.624-1.929-0.896-4.548-1.62-4.688c-3.179-0.604-2.41-2.862-2.418-4.777
	C536.868,864.054,536.89,853.355,536.89,842.297z"/>
<path fill="#FFFFFF" d="M106.64,693.299c-9.315-2.594-15.446-7.862-18.972-15.885c-5.359-12.194-7.077-25.139-6.933-38.488
	c0.202-18.761,4.992-35.675,17.426-49.918c0.745-0.853,1.006-2.598,0.799-3.803c-5.08-29.613-7.089-59.501-5.6-89.455
	c0.979-19.672,3.507-39.319,6.333-58.826c6.275-43.285,21.049-83.805,40.61-122.457c15.49-30.604,34.799-58.672,56.922-84.72
	c16.741-19.708,35.136-37.645,54.906-54.046c25.685-21.305,53.662-38.942,83.524-53.572c29.307-14.358,59.76-25.349,91.47-32.121
	c18.763-4.007,37.957-6.335,57.073-8.029c15.862-1.404,31.922-1.523,47.845-0.896c30.925,1.22,61.236,6.633,91.011,15.532
	c46,13.753,88.385,34.972,127.314,63.441c17.668,12.918,34.224,27.196,49.979,42.566c22.293,21.749,41.979,45.701,59.152,71.715
	c19.651,29.772,35.679,61.631,46.73,95.802c6.294,19.459,11.989,39.221,16.311,59.218c3.433,15.873,5.036,32.259,6.225,48.512
	c1.177,16.092,1.536,32.33,0.93,48.45c-0.629,16.644-2.675,33.245-4.468,49.823c-0.749,6.945-0.345,12.513,4.443,18.681
	c9.925,12.781,13.591,28.271,13.602,44.61c0.008,14.645-2.138,28.752-9.581,41.575c-3.36,5.794-8.418,9.465-14.768,10.785
	c2.79-4.949,6.014-9.545,8.134-14.623c12.73-30.451,10.984-59.35-9.619-85.935c-2.15-2.776-3.324-5.148-2.804-9.225
	c2.079-16.23,3.384-32.563,4.931-48.864c2.001-21.096,0.895-42.138-0.843-63.201c-4.781-58.045-23.354-111.577-50.682-162.184
	c-15.81-29.277-35.297-55.877-57.571-80.364c-29.712-32.669-63.104-60.67-101.02-82.757
	c-33.051-19.255-67.955-34.133-105.094-42.884c-15.035-3.543-30.351-5.949-45.624-8.294c-20.562-3.156-41.317-3.662-62.049-2.622
	c-22.77,1.141-45.324,3.908-67.703,8.87c-34.688,7.691-67.546,20.282-99.197,36.386c-25.423,12.934-49.291,28.488-71.018,47.22
	c-13.023,11.228-26.002,22.644-37.91,35.07c-43.711,45.613-76.847,98.192-96.568,159.056c-5.918,18.268-11.206,36.906-14.766,55.771
	c-3.393,17.991-4.933,36.458-5.863,54.792c-0.963,18.986-0.823,38.094,0.005,57.093c0.551,12.629,3.27,25.149,4.744,37.753
	c0.255,2.178-0.164,5.103-1.443,6.702c-13.639,17.082-19.36,36.438-17.785,58.464C90.379,664.764,96.109,679.425,106.64,693.299z"/>
<path fill="#FEE00D" d="M637.489,773.211c0-11.567,0.097-23.233-0.031-34.898c-0.1-8.938-0.398-17.876-0.766-26.809
	c-0.319-7.85-4.977-13.367-10.484-17.9c-6.017-4.95-7.059-11.563-3.773-18.194c3.063-6.188,2.013-12.25-2.578-17.045
	c-2.778-2.901-3.206-5.863-3.081-9.45c0.174-4.951-0.329-9.578-5.781-11.775c-6.569-2.646-12.271,0.273-13.617,7.264
	c-0.33,1.709-0.415,3.522-0.276,5.26c0.294,3.706-0.573,6.58-3.37,9.371c-5.112,5.1-5.524,11.679-1.914,17.857
	c2.354,4.028,1.881,10.354-1.033,13.81c-5.717,6.781-12.839,8.719-22.011,5.702c0.186-2.548,0.494-5.22,0.536-7.895
	c0.03-2.008,0.23-4.298-0.605-5.951c-0.677-1.336-2.919-2.785-4.222-2.576c-1.225,0.194-2.813,2.39-3.035,3.889
	c-0.46,3.135-0.265,6.398-0.074,9.591c0.179,2.988-0.661,4.662-3.879,4.306c-11.743-1.295-10.362,3.134-10.134,12.569
	c0.076,3.128-1.12,6.313-1.888,9.433c-1.228,4.986-3.495,9.899-3.706,14.915c-0.536,12.793-0.178,25.625-0.178,39.229
	c-8.283,0-16.374,0-25.242,0c0-4.726-0.025-9.493,0.006-14.259c0.106-17.313,0.316-34.621,0.285-51.93
	c-0.006-3.604,1.577-5.882,3.954-8.14c21.53-20.444,43.119-40.82,64.447-61.478c9.646-9.344,9.185-10.011-0.195-19.371
	c-7.489-7.471-14.407-15.537-21.841-23.623c6.85-6.105,14.335-13.086,22.156-19.647c5.899-4.948,6.261-5.976,3.21-13.086
	c-4.58-10.661-8.906-21.437-13.896-33.506c20.531,10.816,39.709,20.917,59.542,31.363c-1.413,5.188-2.944,10.748-4.44,16.319
	c-4.4,16.389-5.909,33.078-5.353,50.048c0.123,3.735,2.459,4.397,4.7,4.41c0.97,0.006,2.849-2.87,2.793-4.377
	c-0.75-19.963,3.563-39.099,8.659-58.122c0.398-1.487,1.107-2.889,1.924-4.975c5.737,2.967,11.276,5.619,16.542,8.747
	c0.97,0.576,1.166,3.093,1.169,4.715c0.062,35.592,0.078,71.184,0.038,106.775c-0.034,28.213-0.186,56.422-0.208,84.634
	c-0.005,3.259-0.762,5.028-4.442,4.868C649.685,773.029,643.958,773.211,637.489,773.211z"/>
<path fill="#FEE00D" d="M462.767,596.002c-9.023,9.261-17.648,18.109-26.268,26.964c-5.057,5.195-5.279,7.132-0.112,12.256
	c11.902,11.806,23.956,23.455,36.077,35.022c11.424,10.901,23.045,21.59,34.471,32.486c0.856,0.816,1.169,2.563,1.2,3.894
	c0.132,5.445,0.032,10.898,0.065,16.349c0.079,13.466,0.227,26.934,0.25,40.4c0.005,3.496-0.35,6.993-0.557,10.821
	c-9.187,0-17.953,0-27.068,0c0-16.985,0-34.001,0-51.004c7.872-0.982,7.951-0.983,7.765-9.278
	c-0.095-4.274,0.934-9.877-1.263-12.403c-1.856-2.137-7.629-0.811-11.669-0.834c-10.226-0.062-10.388-0.023-10.155-10.292
	c0.102-4.442-0.636-7.753-5.173-9.535c-1.146-0.45-2.179-2.611-2.314-4.079c-0.334-3.656,0.167-7.4-0.239-11.042
	c-0.253-2.256-0.121-5.625-3.84-5.434c-3.438,0.176-3.634,2.843-3.579,5.563c0.044,2.083,0.172,4.184-0.007,6.251
	c-0.308,3.552,1.316,7.418-2.557,10.42c-1.207,0.937-0.816,4.232-0.888,6.458c-0.124,3.778-0.035,7.564-0.035,11.499
	c-2.233,0-3.757,0-5.89,0c0-4.968-0.133-9.891,0.04-14.804c0.151-4.266-1.44-7.629-4.938-9.6c-3.023-1.703-3.497-4.114-3.471-7.167
	c0.051-6.088,0.027-12.178-0.147-18.262c-0.037-1.295-0.489-3.25-1.363-3.73c-4.071-2.239-4.146-5.896-3.983-9.793
	c0.033-0.792-0.108-1.594-0.143-2.39c-0.093-2.105-0.024-4.825-2.963-4.161c-1.723,0.391-3.412,2.212-4.495,3.826
	c-0.662,0.985-0.152,2.801-0.16,4.242c-0.017,3.077,0.551,6.019-3.335,7.878c-1.483,0.709-2.083,4.43-2.207,6.825
	c-0.305,5.917,0.062,11.87-0.214,17.792c-0.07,1.48-1.216,3.668-2.427,4.202c-5.506,2.423-7.264,6.996-7.796,12.504
	c-0.03,0.317-0.002,0.643-0.005,0.964c-0.074,11.841-0.074,11.841-11.939,11.843c-7.804,0.001-7.805,0.001-7.806,7.848
	c0,20.367,0.003,40.734-0.009,61.101c-0.001,1.104-0.124,2.208-0.216,3.735c-5.751,0-11.391,0-17.639,0c0-3.351,0-6.822,0-10.291
	c0-61.902,0.041-123.806-0.096-185.707c-0.009-4.02,1.348-6.101,4.758-7.62c3.935-1.752,7.687-3.936,12.354-6.368
	c1.936,7.496,3.837,14.443,5.515,21.446c3.207,13.376,4.596,26.951,3.773,40.721c-0.175,2.926,0.579,5.456,3.623,5.633
	c2.929,0.173,3.979-2.055,4.34-5.045c1.59-13.162-0.157-26.059-2.789-38.858c-1.646-8.008-3.69-15.938-5.79-23.838
	c-0.728-2.735,0.119-3.957,2.413-5.165c18.475-9.726,36.896-19.562,56.145-29.795c-1.412,3.863-2.554,7.214-3.852,10.5
	c-3.594,9.098-7.127,18.221-10.955,27.214c-1.217,2.858-0.855,4.593,1.431,6.586C445.321,580.314,453.861,588.048,462.767,596.002z"
	/>
<path fill="#FFFFFF" d="M448.24,431.345c9.415-3.419,9.203-3.413,8.958-11.841c-0.256-8.91-0.058-17.832-0.058-26.833
	c-5.15,0-9.997,0.223-14.818-0.05c-8.059-0.457-16.634,0.88-23.382-5.28c-2.8-2.555-5.05-5.739-7.166-9.054
	c12.034,7.415,25.029,9.746,38.625,9.73c17.497-0.019,34.694-1.629,50.737-9.626c9.167-4.571,16.925-10.985,23.716-18.743
	c1.076-1.23,3.164-2.598,4.511-2.35c10.622,1.959,21.185,4.261,31.749,6.534c3.718,0.799,5.102,2.993,5.033,7.16
	c-0.255,15.044-0.092,30.098,0.021,45.148c0.028,3.823,0.457,7.644,0.693,11.331c3.067,1.276,5.849,2.434,8.964,3.727
	c0-7.659,0.323-15.055-0.151-22.396c-0.204-3.176,0.156-5.875,2.926-6.647c2.102-0.585,5.467-0.182,6.939,1.233
	c9.681,9.307,7.599,23.612-4.41,32.623c-0.344,0.257-0.668,0.541-0.955,0.775c3.988,17.732-4.863,30.295-23.294,32.787
	c-3.071,0.417-4.605,1.511-5.853,4.339c-6.804,15.427-17.952,25.548-34.829,27.089c-13.534,1.237-25.298-3.579-34.09-14.401
	c-3.528-4.344-5.895-9.658-9.085-14.316c-0.866-1.264-2.726-2.225-4.274-2.52c-8.624-1.647-16.35-4.806-21.617-12.455
	c-4.427-6.429-4.488-13.26-1.526-20.655c-6.701-3.729-10.611-9.774-11.782-17.542c-0.838-5.556-0.07-10.992,4.468-14.702
	c1.805-1.475,5.303-2.842,6.875-2c1.721,0.923,2.809,4.417,2.94,6.858C448.484,416.345,448.24,423.455,448.24,431.345z
	 M511.004,452.571c3.061,2.124,6.18,4.232,9.243,6.422c5.633,4.027,11.98,5.995,18.724,6.375
	c10.923,0.617,21.482-0.924,30.591-7.721c4.906-3.66,6.974-8.874,5.813-15.131c-1.416-7.616-11.327-11.601-17.306-6.321
	c1.562,0.924,3.163,1.491,4.228,2.597c1.455,1.515,2.501,3.442,3.723,5.192c-1.768,1.189-3.403,3.059-5.32,3.438
	c-5.734,1.128-9.979-2.228-14.103-5.766c-5.639-4.837-11.656-9.839-19.468-8.315c-5.317,1.036-10.247,4.15-15.846,6.547
	c-5.126-6.371-12.827-8.762-21.291-5.515c-4.782,1.835-8.974,5.528-13.109,8.807c-3.873,3.072-7.898,5.365-12.821,4.242
	c-1.874-0.426-3.847-1.979-4.933-3.607c-0.403-0.607,1.377-3.115,2.561-4.354c1.336-1.401,3.124-2.351,5.643-4.166
	c-2.706-0.971-4.444-2.24-6.02-2.054c-9.722,1.145-14.889,12.228-10.155,18.38c2.448,3.182,5.105,6.733,8.475,8.535
	c10.218,5.464,21.258,6.423,32.56,4.14C500.831,462.548,507.448,457.603,511.004,452.571z M492.519,399.088
	c0.002-0.061,0.004-0.122,0.006-0.183c0.619,0.066,1.256,0.264,1.854,0.174c2.868-0.433,5.671-1.055,5.818-4.869
	c0.127-3.343-1.815-4.859-4.767-5.359c-1.973-0.333-3.962-0.905-5.93-0.856c-5.675,0.145-11.342,0.611-17.017,0.833
	c-4.307,0.17-8.031,2.571-7.466,5.397c0.778,3.889,3.617,5.03,7.375,4.919C479.095,398.945,485.809,399.088,492.519,399.088z
	 M540.942,398.6c0.003-0.104,0.007-0.207,0.011-0.309c3.742,0.217,7.492,0.682,11.224,0.575c2.899-0.085,6.27-0.303,6.305-4.649
	c0.032-4.003-2.958-4.783-5.926-5.332c-2.284-0.422-4.622-0.873-6.926-0.816c-5.568,0.135-11.207,0.107-16.65,1.106
	c-1.917,0.351-3.349,3.496-5.002,5.365c2.061,1.353,3.981,3.462,6.21,3.886C533.663,399.085,537.347,398.6,540.942,398.6z
	 M512.431,469.688c-3.432,0-6.942-0.441-10.263,0.181c-1.757,0.329-3.182,2.511-4.757,3.859c1.413,1.531,2.748,4.283,4.255,4.384
	c6.987,0.475,14.045,0.53,21.023-0.015c1.7-0.132,3.187-3.104,4.773-4.773c-1.579-1.208-3.038-3.178-4.765-3.465
	C519.355,469.305,515.862,469.698,512.431,469.688z M516.661,430.117c6.822-1.499,5.95-0.141,6.176-9.488
	c0.07-2.977-1.284-4.119-3.805-4.159c-5.574-0.09-11.152-0.028-17.198-0.028c-0.253,3.902-0.727,7.067-0.513,10.184
	c0.072,1.057,1.734,2.348,2.94,2.848c0.729,0.303,2.738-0.534,2.875-1.157c1.321-6.026,5.358-3.528,8.723-3.434
	C516.145,426.738,516.38,428.281,516.661,430.117z M481.793,416.15c4.301-0.159,6.221-2.111,6.208-6.019
	c-0.016-3.904-1.879-5.736-5.698-5.922c-4.215-0.208-5.069,2.987-5.157,5.883C477.052,413.215,478.57,415.979,481.793,416.15z
	 M547.299,410.13c-0.203-3.881-1.772-5.863-5.453-5.903c-4.313-0.046-5.206,3.196-5.305,6.345c-0.11,3.506,1.938,5.426,5.701,5.266
	C546.241,415.67,546.999,413.037,547.299,410.13z"/>
<path fill="#FFFFFF" d="M669.656,668.068c4.659,0.536,6.229,2.395,6.627,7.083c0.788,9.251,10.514,15.689,19.923,14.115
	c4.064,7.678,8.148,15.396,12.741,24.076c1.729-2.718,2.903-4.314,3.821-6.052c2.053-3.904,4.145-7.8,5.914-11.841
	c2.178-4.97,4.702-8.339,10.957-6.252c1.842,0.615,4.437-1.133,6.797-1.831c0,4.248,0,9.051,0,14.244
	c-4.6,0.333-8.77,0.984-12.911,0.841c-5.028-0.17-5.951,2.176-4.788,6.707c5.707,0.447,11.411,0.894,17.699,1.387
	c0,4.093,0.272,8.017-0.16,11.858c-0.135,1.195-2.078,2.911-3.365,3.093c-3.231,0.454-6.561,0.144-9.85,0.188
	c-2.666,0.035-4.987,0.427-4.891,4.1c0.09,3.462,2.18,3.675,4.775,3.617c4.322-0.099,8.648-0.026,13.123-0.026
	c0,5.63,0,10.3,0,15.402c-3.673,0-6.934-0.099-10.184,0.041c-1.677,0.073-3.668,0.1-4.914,1.013
	c-1.247,0.914-2.073,2.84-2.371,4.461c-0.09,0.49,2.161,2.008,3.393,2.075c4.603,0.255,9.228,0.101,14.168,0.101
	c0,5.849,0,10.421,0,15.655c-4.419,0.246-8.585,0.706-12.742,0.631c-2.9-0.054-4.832,1.194-4.791,3.829
	c0.017,1.131,2.429,2.94,3.949,3.19c4.278,0.705,8.661,0.759,13.333,1.095c0.253,4.86,0.501,9.642,0.796,15.339
	c-5.041,0-9.459,0.029-13.875-0.011c-3.07-0.028-4.077,1.336-3.603,4.488c0.764,5.078-2.172,8.879-7,10.033
	c-1.638,0.392-3.032,1.74-4.649,2.339c-13.293,4.926-24.577-7.032-24.844-19.064c-0.671-30.254-0.681-60.523-1.131-90.781
	c-0.069-4.587-1.076-9.161-1.646-13.742c-0.641-0.024-1.283-0.052-1.923-0.077c-0.353,2.783-1,5.563-1.013,8.347
	c-0.097,22.285-0.068,44.567-0.087,66.852c-0.009,10.877-0.003,21.756-0.064,32.634c-0.084,14.544,10.43,26.173,24.202,29.984
	c16.707,4.621,35.162-4.711,40.775-21.215c1.197-3.521,1.791-7.434,1.804-11.168c0.124-40.413,0.16-80.825-0.034-121.237
	c-0.023-4.767,2.459-6.228,6.366-8.201c0.14,2.182,0.315,3.671,0.315,5.162c0.014,42.016,0.273,84.034-0.105,126.046
	c-0.171,19.145-14.447,35.132-33.017,37.739c-19.382,2.721-34.968-4.707-42.783-20.474c-2.657-5.362-4.672-11.732-4.728-17.666
	c-0.4-41.689-0.213-83.387-0.203-125.083C669.464,670.164,669.58,669.215,669.656,668.068z M712.137,739.245
	c-1.914,2.732-4.141,4.608-3.832,5.799c0.396,1.528,2.771,3.32,4.401,3.438c1.14,0.083,3.342-2.385,3.442-3.831
	C716.24,743.314,714.164,741.822,712.137,739.245z M711.903,794.776c2.066-2.621,3.275-4.152,4.483-5.685
	c-1.553-1.245-3.007-3.227-4.697-3.467c-1.033-0.146-3.281,2.296-3.418,3.727C708.147,790.689,710.092,792.232,711.903,794.776z
	 M715.324,761.345c-2.283-1.72-3.969-3.854-5.002-3.563c-1.526,0.432-2.593,2.583-3.855,4.004c1.314,1.105,2.601,3.04,3.947,3.084
	C711.734,764.911,713.115,763.032,715.324,761.345z"/>
<path fill="#FFFFFF" d="M848.874,577.73c12.706,0.743,25.662,0.141,38.048,2.574c14.827,2.912,24.466,14.573,31.34,27.433
	c13.694,25.615,11.427,51.046-4.075,75.216c-6.343,9.893-15.134,15.1-27.422,14.972c-40.58-0.421-81.168-0.158-121.755-0.158
	c-7.223,0-7.608-0.454-6.795-8.699c2.066,0,4.209,0,6.352,0c36.196-0.006,72.391,0.026,108.588-0.058
	c5.154-0.012,10.381-0.13,15.445-0.996c6.729-1.152,12.474-4.568,14.559-11.671c1.554-5.293,0.75-10.946-3.997-14.222
	c-3.271-2.254-7.563-3.858-11.479-4.052c-10.926-0.536-21.891-0.185-33.773-0.185c3.543-1.913,6.367-3.913,9.493-5.007
	c4.473-1.564,6.074-4.381,5.479-9.014c-0.263-2.029-0.043-4.123-0.043-6.278c-3.712-0.867-5.728,0.38-5.613,3.844
	c0.091,2.86-1.237,3.852-3.566,4.575c-4.893,1.528-9.301,3.668-15.005,2.988c-7.639-0.912-15.562,0.927-23.29,0.434
	c-4.907-0.313-9.75-2.541-14.457-4.355c-0.797-0.308-0.597-2.938-1.171-4.363c-0.508-1.25-1.455-2.316-2.206-3.464
	c-1.116,0.958-2.903,1.718-3.24,2.907c-1.917,6.765,0.056,10.563,6.437,13.352c2.85,1.246,5.667,2.567,9.716,4.405
	c-7.935,0-14.611,0-21.614,0c0-26.229,0-52.581,0-79.204c9.723,0,19.381,0,29.92,0c-1.247,1.414-2.125,2.548-3.141,3.538
	c-7.708,7.511-15.36,15.085-23.208,22.44c-3.261,3.057-2.774,5.352,0.306,8.047c11.036,9.647,22.137,19.228,32.891,29.196
	c3.109,2.886,5.295,3.018,8.201,0.35c10.82-9.938,21.706-19.798,32.494-29.77c3.186-2.946,2.936-8.217-0.223-11.177
	c-7.839-7.34-15.65-14.71-23.473-22.064C848.688,578.752,848.781,578.241,848.874,577.73z"/>
<path fill="#FFFFFF" d="M772.879,707.391c15.218,0,29.768,0,44.315,0c18.637,0,37.271,0,55.909,0
	c10.227,0,12.231,2.475,7.677,11.601c-8.161,16.36-16.718,32.536-25.735,48.417c-5.979,10.525-15.25,15.415-27.631,15.201
	c-21.591-0.372-43.197,0.16-64.798,0.438c-3.136,0.04-4.961-0.405-3.509-4.323c0.917-0.066,1.842-0.115,2.764-0.202
	c7.707-0.729,10.996-4.446,11.003-12.479c0.01-17.619,0.004-35.241,0.004-52.859C772.879,711.443,772.879,709.708,772.879,707.391z"
	/>
<path fill="#FFFFFF" d="M253.881,710.186c0,18.379,0,35.95,0,53.521c0,12.319,0.011,12.271,11.798,14.977
	c1.047,0.242,1.841,1.633,2.752,2.49c-0.271,0.609-0.541,1.218-0.809,1.826c-7.486,0-14.971,0.04-22.457-0.008
	c-16.746-0.106-33.5-0.589-50.239-0.266c-11.039,0.211-19.062-5.212-24.788-13.616c-11.594-17.02-21.193-35.284-29.526-55.335
	c2.571-0.943,4.731-2.403,6.911-2.435c33.253-0.493,66.509-0.804,99.764-1.152C249.14,710.17,250.992,710.186,253.881,710.186z"/>
<path fill="#FFFFFF" d="M749.671,651.158c-2.348-2.592-4.687-5.064-6.867-7.676c-0.471-0.563-0.544-1.641-0.495-2.464
	c0.434-7.294,0.863-14.591,1.454-21.876c0.287-3.533-1.329-4.766-4.418-4.18c-3.786,0.721-7.526,1.699-11.279,2.604
	c-1.774,0.426-3.53,0.936-5.17,1.374c-4.425-9.349-8.692-18.371-12.965-27.393c-0.594-0.01-1.188-0.018-1.781-0.025
	c-2.868,5.692-5.769,11.367-8.588,17.086c-1.458,2.962-2.056,7.347-4.354,8.619c-2.229,1.236-6.131-0.679-9.298-1.209
	c-9.782-1.639-11.107-0.43-10.641,9.936c0.137,3.035,0.426,6.069,0.789,9.086c0.341,2.808,0.875,5.589,1.371,8.686
	c-2.21,2.603-4.689,5.52-7.724,9.092c0-59.849,0-118.751,0-178.074c1.71-0.083,3.343-0.162,5.845-0.283c0,16.374,0,32.437,0,48.803
	c2.771,0,4.689,0,6.431,0c0-14.657-0.025-29.162,0.02-43.669c0.011-3.195,0.612-6.068,4.726-6.063
	c15.039,0.021,30.08,0.043,45.117-0.021c3.447-0.014,5.134,2.287,5.166,5.023c0.211,17.446,0.106,34.893,0.106,52.098
	c-3.397,0-6.458,0-10.309,0c0-4.192,0.044-8.105-0.026-12.021c-0.021-1.234-0.055-3.379-0.579-3.555
	c-4.79-1.599-3.011-5.582-3.099-8.69c-0.212-7.421-3.782-12.505-10.827-14.821c-5.225-1.723-11.481,0.338-14.807,6.08
	c-1.782,3.076-1.775,7.24-2.574,10.911c-0.516,2.379,0.878,4.979-2.309,7.09c-1.36,0.902-0.525,5.398-0.55,8.264
	c-0.058,6.603-0.022,6.603-6.215,6.613c-8.619,0.014-9.898,1.187-9.759,9.843c0.217,13.455,0.587,26.905,0.955,40.359
	c0.058,2.053,0.46,4.098,0.701,6.148c0.4,0.101,0.799,0.202,1.198,0.304c0.303-1.273,0.635-2.541,0.899-3.823
	c0.334-1.614,0.714-3.229,0.902-4.866c0.673-5.827,1.544-11.652,1.796-17.502c0.153-3.508,1.19-4.771,4.677-4.725
	c12.532,0.157,25.066-0.076,37.597,0.099c12.856,0.182,25.267,12.095,25.435,24.995c0.297,22.926,0.061,45.858,0.027,68.788
	C750.251,650.368,749.985,650.613,749.671,651.158z M728.879,565.521c-0.104,0.493-0.21,0.983-0.314,1.476
	c1.01,1.169,1.959,2.4,3.041,3.495c3.955,3.999,5.813,8.885,5.843,14.508c0.045,7.927,0.013,15.855,0.013,23.302
	c5.02,3.058,6.147,0.48,6.213-3.106c0.136-7.69,0.341-15.4-0.033-23.075c-0.336-6.881-3.468-12.548-9.447-16.031
	C732.777,565.262,730.669,565.676,728.879,565.521z"/>
<path fill="#FFFFFF" d="M828.701,795.1c-82.357,90.382-181.546,142.728-302.126,147.85
	c-142.224,6.042-267.112-71.619-329.741-147.831c6.401-2.471,10.084-1.328,14.78,3.133c13.002,12.35,25.705,25.129,39.538,36.446
	c15.649,12.804,31.914,24.978,48.785,36.026c24.744,16.206,51.554,28.381,79.141,38.723c21.209,7.948,42.932,14.11,65.14,18.067
	c14.355,2.555,28.972,3.721,43.513,4.981c9.634,0.834,19.372,1.361,29.013,0.911c15.982-0.746,31.957-2.07,47.879-3.725
	c26.436-2.745,52.051-9.459,77.108-18.304c44.54-15.727,85.129-38.874,122.416-68.348c16.612-13.132,32.224-27.319,46.401-43.082
	C815.39,794.568,820.373,792.75,828.701,795.1z"/>
<path fill="#FFFFFF" d="M168.63,631.42c-8.551-0.617-16.43-1.186-24.738-1.785c-0.519,9.898,4.672,15.402,10.648,19.826
	c3.779,2.796,8.669,4.021,13.066,5.94c1.356,0.594,2.731,1.141,4.098,1.708c-0.064,0.397-0.13,0.793-0.194,1.188
	c-6.893,0-13.787-0.001-20.681,0c-4.528,0-9.059-0.067-13.586,0.027c-7.065,0.146-12.772,4.662-13.967,10.917
	c-1.445,7.571,1.723,14.35,8.939,16.845c4.919,1.703,10.314,2.706,15.504,2.731c37.749,0.203,75.502,0.07,113.253,0.067
	c2.163,0,4.327,0.211,6.829,0.341c0.07,1.324,0.053,2.404,0.198,3.463c0.542,3.959-1,5.196-4.95,5.165
	c-23.186-0.179-46.373-0.088-69.558-0.088c-19.427,0-38.859-0.277-58.277,0.115c-10.15,0.206-17.802-3.894-23.656-11.84
	c-21.343-28.971-20.43-70.598,8.417-97.021c7.794-7.14,16.889-11.011,27.539-10.611c4.021,0.149,8.054,0.022,12.741,1.072
	c-3.865,3.938-7.34,8.421-11.693,11.677c-5.859,4.387-6.802,10.702-1.505,16.058c5.543,5.604,11.129,11.171,16.499,16.947
	C165.531,626.289,166.941,628.965,168.63,631.42z"/>
<path fill="#FFFFFF" d="M342.929,701.605c-4.183,0.335-8.198,1.066-12.168,0.868c-4.825-0.239-6.297,1.667-4.93,7.022
	c5.391,0.341,11.081,0.701,17.068,1.08c0,4.675,0,9.359,0,15.1c-4.39,0-8.718-0.001-13.043,0.002
	c-2.612,0.001-5.396,0.098-5.434,3.681c-0.04,3.795,2.798,4.034,5.622,4.02c4.187-0.018,8.374-0.004,12.852-0.004
	c0,5.452,0,10.015,0,14.988c-4.502,0.345-9.105,0.718-13.71,1.047c-2.482,0.179-4.187,0.985-3.972,4.036
	c0.239,3.392,2.574,2.938,4.768,3.044c4.197,0.208,8.388,0.534,13.148,0.848c0,4.402,0.229,8.68-0.176,12.896
	c-0.09,0.942-2.34,2.218-3.705,2.377c-3.249,0.381-6.62-0.165-9.827,0.382c-1.499,0.257-2.726,2.179-4.074,3.347
	c1.25,1.251,2.408,3.444,3.768,3.582c4.453,0.46,8.976,0.174,13.775,0.174c0,5.563,0,10.265,0,15.194
	c-5.518,0.528-10.894,1.042-15.629,1.496c-2.914,2.621,1.622,6.088-2.346,8.398c-2.469,1.438-3.623,5.898-6.045,6.621
	c-4.689,1.398-10.105,2.305-14.771,1.275c-9.021-1.988-14.271-9.58-14.479-19.63c-0.483-23.495-0.557-46.998-0.994-70.495
	c-0.21-11.249-0.979-22.483-1.267-33.731c-0.115-4.49,0.385-8.999,0.646-14.332c4.038,5.212,8.595,8.514,14.882,8.673
	c0.87,0.021,1.905,1.896,2.5,3.1c3.27,6.625,6.396,13.327,9.646,19.966c0.656,1.342,1.625,2.522,3.336,5.127
	c4.515-10.07,8.513-18.988,12.519-27.917c3.684-0.567,7.737-1.191,12.04-1.855C342.929,688.205,342.929,694.81,342.929,701.605z
	 M325.047,789.643c-2.839-1.982-4.444-3.918-6.143-4.011c-1.219-0.063-2.564,2.339-3.852,3.646c1.346,1.25,2.592,3.334,4.063,3.517
	C320.568,792.974,322.249,791.23,325.047,789.643z M323.889,744.461c-2.666-1.568-4.392-3.412-5.697-3.14
	c-1.562,0.325-2.765,2.457-4.124,3.805c1.238,1.163,2.623,3.398,3.68,3.246C319.537,748.113,321.116,746.346,323.889,744.461z
	 M321.267,761.199c-2.634-1.723-4.176-3.493-5.706-3.483c-1.133,0.009-3.359,2.634-3.12,3.562c0.387,1.509,2.266,3.343,3.752,3.598
	C317.337,765.07,318.844,763.056,321.267,761.199z"/>
<path fill="#FFFFFF" d="M349.574,609.104c0.395-9.802,1.073-19.15,1.098-28.501c0.115-43.772,0.047-87.544,0.055-131.317
	c0.001-5.861,0.198-6.003,6.03-5.045c0,68.959,0,137.942,0,207.592c-5.135-3.829-7.825-7.152-6.348-13.854
	c1.379-6.254,0.31-13.074,0.309-19.646c0-4.171-3.113-3.607-5.375-3.194c-4.555,0.837-9.015,2.217-13.789,3.443
	c-4.163-8.744-8.455-17.757-13.418-28.182c-6.422,9.558-10.258,19.022-14.383,28.369c-4.993-1.228-9.747-2.441-14.525-3.557
	c-4.506-1.049-6.369,0.266-6.13,4.945c0.354,6.961,1.236,13.892,1.723,20.847c0.1,1.42-0.161,3.189-0.944,4.281
	c-1.981,2.766-4.354,5.239-7.545,8.967c0-9.157-0.012-16.918,0.003-24.68c0.03-16.192,0.001-32.386,0.138-48.578
	c0.092-11.094,12.812-24.767,22.968-24.635c11.194,0.146,22.384,0.593,33.577,0.895c1.253,0.034,2.523,0.12,3.756-0.05
	c6.435-0.883,6.275-0.901,6.481,5.966c0.377,12.661,0.751,25.333,1.632,37.962C345.064,603.669,343.658,607.932,349.574,609.104z
	 M287.119,606.17c0.394-5.176,0.713-9.34,1.026-13.505c0.649-8.687-0.144-17.854,7.939-24.018c0.573-0.438,0.434-1.854,0.627-2.814
	c-0.973-0.12-2.146-0.659-2.885-0.29c-6.212,3.11-9.813,8.398-9.954,15.368c-0.155,7.747,0.542,15.518,1,23.269
	C284.905,604.741,286.027,605.238,287.119,606.17z"/>
<path fill="#FEE00D" d="M441.964,629.535c7.588-7.646,14.649-14.655,21.583-21.797c2.973-3.06,5.871-6.249,8.384-9.699
	c0.754-1.035,0.773-3.84-0.024-4.658c-5.046-5.188-10.403-10.063-15.688-15.008c-2.191-2.049-4.453-4.025-6.691-6.02
	c-6.006-5.353-5.881-5.294-2.721-13.003c5.333-13.009,10.486-26.098,15.721-39.15c0.255-0.634,0.575-1.243,1.491-1.887
	c9.747,58.75,27.573,115.22,44.211,172.006c-0.429,0.26-0.857,0.516-1.283,0.772C485.52,670.796,464.098,650.501,441.964,629.535z"
	/>
<path fill="#FEE00D" d="M517.313,690.144c16.412-56.806,34.73-113.117,43.975-172.152c1.475,3.549,3,7.075,4.414,10.651
	c4.583,11.584,9.014,23.236,13.765,34.749c1.19,2.885,0.809,4.342-1.521,6.405c-7.798,6.903-15.313,14.142-22.886,21.305
	c-1.47,1.391-2.719,3.026-5.027,5.627c10.905,10.577,21.611,20.959,32.775,31.786c-21.63,21.003-42.798,41.562-63.965,62.118
	C518.331,690.471,517.822,690.309,517.313,690.144z"/>
<path fill="#FFFFFF" d="M343.056,530.2c-3.151,0-5.793,0-9.669,0c-0.486-8.236-0.772-16.571-1.568-24.853
	c-0.32-3.336-1.551-6.644-2.79-9.789c-0.527-1.341-1.956-2.786-3.281-3.233c-4.396-1.482-4.622-4.835-4.555-8.687
	c0.095-5.446-0.056-10.897-0.134-16.345c-0.016-1.102,0.146-2.388-0.337-3.261c-0.808-1.456-1.896-3.477-3.184-3.765
	c-2.255-0.502-3.534,1.136-3.604,3.733c-0.185,6.874-0.74,13.746-0.735,20.617c0.003,3.484-0.513,5.887-3.983,7.546
	c-4.076,1.947-6.076,5.887-6.397,10.4c-0.643,9.042-1.034,18.102-1.542,27.375c-4.024,0.316-7.521,0.59-11.396,0.893
	c0-9.135-0.072-18.498,0.017-27.859c0.168-18.1,0.565-36.201,0.544-54.301c-0.004-4.068,2.057-5.759,5.08-5.811
	c14.091-0.24,28.189-0.219,42.28,0c2.486,0.038,5.275,0.972,5.27,4.729C343.042,474.97,343.056,502.35,343.056,530.2z"/>
<path fill="#FFFFFF" d="M511.183,333c22.417-0.427,43.032,2.492,62.725,10.662c9.987,4.144,19.222,9.583,26.397,18.143
	c4.378,5.222,5.99,11.37,6.114,18.021c0.064,3.514-7.885,12.43-11.138,12.805c-3.228,0.373-6.473-2.896-5.56-6.007
	c3.057-10.403-2.016-17.38-9.62-22.638c-10.776-7.449-23.146-11.33-35.824-13.459c-10.235-1.72-20.693-2.792-31.059-2.825
	c-21.705-0.071-42.986,3.308-62.734,13.008c-5.274,2.591-9.809,7.226-13.901,11.676c-2.04,2.218-3.369,3.342-6.125,2.273
	c-0.708-0.275-1.632-0.015-2.301-0.34c-2.704-1.313-7.27-2.432-7.561-4.23c-0.426-2.646,1.661-6.296,3.644-8.665
	c9.138-10.912,21.521-16.466,34.537-20.676C476.233,335.104,494.107,332.262,511.183,333z"/>
<path fill="#FFFFFF" d="M874.998,572.474c-1.46,0-2.684,0-4.283,0c-0.342-2.432-0.877-4.746-0.958-7.077
	c-0.355-10.015-7.437-19.477-16.972-22.428c-3.214,3.224-0.525,4.957,1.677,6.754c7.1,5.788,9.897,12.158,9.323,22.521
	c-8.631-0.729-17.465,3.02-25.943-2.392c-0.926-0.591-2.701,0.032-4.033,0.328c-2.901,0.645-5.746,1.929-8.658,2.075
	c-6.358,0.323-12.745,0.101-20.049,0.101c0-5.782,0-10.811,0-16.707c-5.566,3.308-5.039,7.772-4.934,11.876
	c0.098,3.78-0.714,6.073-5.02,4.916c-3.441-14.775,4.228-30.133,18.313-35.141c4.625-1.645,6.012-3.822,5.568-8.479
	c-0.392-4.126-0.132-8.323-0.061-12.486c0.063-3.627,1.194-5.761,5.519-5.46c6.383,0.441,12.816,0.193,19.229,0.179
	c4.873-0.011,6.848,2.417,5.896,7.34c-0.235,1.23-0.411,2.475-0.572,3.717c-1.083,8.276,0.239,13.786,9.819,16.919
	C871.198,543.059,876.604,556.346,874.998,572.474z"/>
<path fill="#FFFFFF" d="M574.493,314.522c-58.632-16.578-90.692-8.5-124.103-0.084c0-4.365-0.704-8.804,0.217-12.856
	c0.769-3.379,2.742-7.928,5.403-9.131c8.533-3.86,17.454-7.239,26.552-9.276c15.597-3.492,31.594-4.169,47.41-1.932
	c10.961,1.551,21.863,4.191,32.48,7.421c8.528,2.595,13.512,8.793,12.087,18.789C574.228,309.636,574.493,311.906,574.493,314.522z"
	/>
<path fill="#FFFFFF" d="M204.059,510.135c0,7.325,0.106,13.241-0.036,19.151c-0.097,4.055,1.375,6.714,5.349,7.671
	c15.29,3.691,21.147,18.936,21.054,32.096c-0.021,3.081-1.165,4.09-4.272,3.386c-1.074-4.684-1.72-9.715-3.455-14.316
	c-1.241-3.284-3.672-6.268-6.13-8.821c-0.964-1.002-3.452-0.465-5.245-0.63c0.384,1.459,0.404,3.184,1.21,4.334
	c5.667,8.101,7.126,12.457,6.052,19.277c-5.625,1.153-10.442,0.567-14.437-4.636c-3.848-5.008-8.491-9.378-12.81-14.004
	c-2.697-2.891-5.292-2.829-7.959,0.189c-4.191,4.741-8.852,9.101-12.649,14.146c-3.358,4.461-7.264,5.473-12.717,4.237
	c0-2.704-0.077-5.542,0.023-8.376c0.089-2.436,0.383-4.863-0.128-7.407c-6.299,3.739-5.255,9.936-5.749,15.876
	c-1.711,0-3.304,0-4.881,0c-1.619-15.435,5.635-30.739,20.811-35.283c4.51-1.351,6.622-3.422,5.992-8.577
	c-0.561-4.577-0.389-9.309,0.039-13.916c0.145-1.554,2.021-4.153,3.188-4.2C186.102,509.973,194.914,510.135,204.059,510.135z"/>
<path fill="#FFFFFF" d="M357.118,666.031c0,5.724-0.007,10.648,0.001,15.569c0.059,36.87,0.362,73.74-0.019,110.604
	c-0.074,7.244-1.534,15.057-4.51,21.578c-9.18,20.108-35.06,27.612-54.792,16.868c-15.196-8.275-21.604-21.445-21.543-38.67
	c0.15-41.846,0.124-83.689,0.168-125.537c0.002-1.206,0.001-2.411,0.001-4.189c5.158,3.841,7.833,7.53,7.731,14.104
	c-0.596,38.655-0.335,77.322-0.939,115.977c-0.389,24.896,18.15,38.06,37.366,36.183c17.361-1.696,30.094-14.678,30.122-32.666
	c0.062-40.087,0.112-80.173-0.102-120.259C350.576,670.743,352.661,668.4,357.118,666.031z"/>
<path fill="#FFFFFF" d="M365.839,792.079c0-3.172,0-5.669,0-8.754c98.401,0,196.502,0,294.496,0
	c1.531,8.453,1.298,8.753-6.401,8.753c-94.172,0.002-188.341,0.001-282.512,0.001C369.725,792.079,368.03,792.079,365.839,792.079z"
	/>
<path fill="#FFFFFF" d="M614.762,368.309c-9.306-18.951-24.844-29.061-42.635-35.981c-13.655-5.313-27.906-8.552-42.587-8.87
	c-12.941-0.28-25.998-1.125-38.819,0.184c-24.317,2.483-47.55,9.17-66.972,25.371c-4.962,4.14-8.698,9.819-12.919,14.698
	c-0.684-6.465,2.249-12.335,6.567-17.54c10.24-12.341,24.142-18.687,38.671-23.597c16.917-5.719,34.45-8.585,52.237-8.654
	c28.546-0.109,56.345,3.993,81.889,18.224c7.883,4.392,14.908,9.964,19.896,17.749C613.477,355.178,615.444,360.991,614.762,368.309
	z"/>
<path fill="#FFFFFF" d="M222.229,598.342c-11.932,16.309-23.352,31.914-34.811,47.574c-2.532-3.857-5.797-8.105-8.289-12.784
	c-5.826-10.935-13.604-20.183-22.557-28.446c-2.994-2.764-4.26-4.699-0.761-8.415c10.517-11.166,20.62-22.746,31.47-34.817
	C199.234,574.069,211.03,586.52,222.229,598.342z M198.604,586.812c0.048-7.372-5.737-11.468-10.077-12.151
	c-3.913-0.618-10.588,3.278-11.138,7.642c-0.545,4.326-2.875,5.405-5.999,7.028c-4.355,2.26-5.521,6.678-4.89,11.404
	c0.535,4.011,3.165,6.559,6.856,7.449c4.218,1.02,7.439-0.607,9.768-4.6c1.186-2.034,3.334-3.479,5.528-5.669
	c2.783,6.46,5.735,12.156,13.167,9.869c4.025-1.237,6.685-4.602,6.903-9.224C208.967,593.372,205.388,589.271,198.604,586.812z
	 M195.373,620.395c-0.619-3.552-5.919-9.203-8.225-7.995c-2.684,1.405-5.029,4.395-6.383,7.259
	c-1.017,2.155,5.054,8.614,6.999,7.564C190.667,625.658,192.872,622.738,195.373,620.395z"/>
<path fill="#FFFFFF" d="M473.657,491.07c22.851,24.577,54.096,25.726,77.417,0.262c0,5.925,0.395,11.093-0.198,16.139
	c-0.229,1.966-2.35,4.198-4.183,5.387c-10.08,6.558-20.241,13.002-30.626,19.035c-1.842,1.07-5.317,0.884-7.257-0.194
	c-9.214-5.114-18.216-10.64-27.176-16.222c-5.861-3.651-10.306-8.133-8.08-16.274C474.217,496.781,473.657,494.005,473.657,491.07z"
	/>
<path fill="#FFFFFF" d="M590.402,736.747c0,12.211,0,24.364,0,36.775c-1.738,0-3.208,0-5.457,0c0-5.26,0.01-10.358-0.001-15.456
	c-0.032-13.778,0.006-27.56-0.139-41.339c-0.079-7.588,2.382-13.871,8.835-17.801c5.709-3.479,6.532-9.221,7.567-15.269
	c3.845,0,7.54,0,11.848,0c-1.54,7.893,3.375,12.387,8.578,16.599c5.738,4.649,7.689,10.517,7.52,17.995
	c-0.389,17.138-0.086,34.293-0.082,51.44c0,1.26-0.138,2.521-0.215,3.833c-3.506,1.098-4.616-0.213-4.574-3.624
	c0.121-9.937,0.059-19.877,0.035-29.815c-0.014-4.659-2.369-6.366-6.671-4.951c-0.643,0.21-1.445,0.491-2.006,0.278
	c-7.702-2.924-15.17,1.735-22.808,0.707C592.14,736.027,591.372,736.48,590.402,736.747z M623.802,723.545
	c1.671-8.514,0.703-15.646-6.476-21.05c-3.031-2.283-5.252-5.664-8.003-8.378c-1.931-1.908-3.896-2.017-5.655,0.543
	c-1.665,2.42-3.104,5.415-5.413,6.89c-8.38,5.352-9.963,12.742-7.338,21.997C601.762,723.545,612.652,723.545,623.802,723.545z"/>
<path fill="#FFFFFF" d="M866.378,607.154c-10.387,9.532-20.132,18.475-30.021,27.551c-9.95-8.702-19.774-17.289-30.212-26.413
	c10.116-9.754,20.052-19.336,30.232-29.153C846.47,588.564,856.319,597.763,866.378,607.154z M820.831,605.59
	c0.02,0.71,0.04,1.417,0.059,2.126c3.426,2.108,6.657,4.706,10.318,6.224c7.549,3.126,16.677-0.422,19.051-7.033
	c0.342-0.951,0.25-2.573-0.335-3.281c-4.118-4.98-10.308-4.835-15.462-4.323C829.763,599.771,825.364,603.371,820.831,605.59z"/>
<path fill="#FFFFFF" d="M794.877,666.024c10.224,0,20.505-0.183,30.768,0.192c1.57,0.058,3.242,2.521,4.54,4.145
	c4.3,5.382,5.999,5.724,9.972,0.362c2.994-4.043,6.437-5.065,11.155-4.882c11.704,0.455,23.428,0.352,35.141,0.595
	c1.957,0.041,4.57,0.034,5.695,1.222c1.535,1.623,2.84,4.511,2.534,6.593c-0.247,1.665-2.911,3.939-4.734,4.194
	c-5.668,0.793-11.445,0.901-17.185,1.007c-19.372,0.365-38.747,0.684-58.122,0.854c-4.347,0.039-8.741-0.322-13.039-0.994
	C796.932,678.582,794.162,672.984,794.877,666.024z"/>
<path fill="#FFFFFF" d="M229.135,679.481c-30.149,0-59.833,0.039-89.515-0.035c-5.618-0.014-7.883-2.05-7.96-6.383
	c-0.072-4.062,3.266-7.009,8.278-7.033c12.201-0.062,24.405-0.146,36.602,0.123c1.697,0.036,3.921,1.606,4.932,3.137
	c4.807,7.278,8.511,7.418,12.437-0.273c1.337-2.623,2.934-3.115,5.407-3.09c8.911,0.09,17.827,0.233,26.732,0.003
	c3.678-0.097,4.811,1.346,4.33,4.769C229.983,673.485,229.589,676.274,229.135,679.481z"/>
<path fill="#FFFFFF" d="M391.338,774.475c-0.068-1.398-0.197-2.82-0.197-4.239c-0.007-19.246,0.102-38.489-0.072-57.731
	c-0.033-3.742,0.99-5.136,4.69-5.117c26.782,0.129,53.563,0.099,80.345,0.185c4.841,0.018,5.226,0.792,4.127,7.331
	c-27.882,0-55.849,0-84.459,0c0,1.978,0.002,3.494,0,5.014c-0.028,16.673-0.044,33.348-0.099,50.022
	C395.664,772.651,395.421,775.302,391.338,774.475z"/>
<path fill="#FFFFFF" d="M472.281,774.072c-8.336,0-15.837,0-23.556,0c0-12.763,0-25.005,0-37.529c7.875,0,15.604,0,23.556,0
	C472.281,748.905,472.281,761.139,472.281,774.072z"/>
<path fill="#FFFFFF" d="M706.494,465.838c-13.005,0-26.011,0-39.016,0c-1.096-0.001-2.428,0.381-3.238-0.117
	c-1.548-0.95-2.796-2.406-4.171-3.654c1.425-1.353,2.757-3.725,4.296-3.877c5.437-0.538,10.944-0.362,16.423-0.371
	c20.991-0.034,41.979-0.046,62.967-0.031c2.346,0,4.745-0.035,7.011,0.463c1.215,0.267,3.188,1.775,3.092,2.472
	c-0.215,1.53-1.226,3.378-2.475,4.199c-1.3,0.854-3.263,0.874-4.936,0.881C733.129,465.864,719.812,465.838,706.494,465.838z"/>
<path fill="#FFFFFF" d="M402.659,736.4c5.073,0,9.726,0,15.042,0c0,12.533,0,24.952,0,37.429c-5.31,0-10.065,0-15.042,0
	C402.659,761.353,402.659,749.117,402.659,736.4z"/>
<path fill="#FFFFFF" d="M698.485,450.072c1.324-12.544,2.683-24.637,3.824-36.75c0.309-3.272,0.94-6.447,4.488-6.652
	c3.666-0.211,5.424,2.875,5.825,6.24c1.386,11.644,2.576,23.313,3.808,34.975c0.063,0.595-0.172,1.224-0.324,2.188
	C710.014,450.072,703.99,450.072,698.485,450.072z"/>
<path fill="#FFFFFF" d="M381.831,379.614c-1.959,1.53-3.068,2.999-4.459,3.379c-7.455,2.034-12.645,6.273-14.757,14.157
	c-0.334,1.248-1.895,2.151-2.887,3.213c-0.775-1.033-1.946-1.954-2.262-3.119c-2.13-7.871-7.384-12.123-14.817-14.199
	c-1.203-0.336-3.131-1.944-2.992-2.525c0.343-1.415,1.533-3.455,2.682-3.687c7.893-1.603,12.32-6.669,14.879-14.108
	c0.406-1.18,2.021-1.925,3.078-2.87c0.794,1.018,1.951,1.916,2.322,3.077c2.307,7.209,6.803,11.9,14.078,13.819
	C378.206,377.148,379.528,378.3,381.831,379.614z M367.733,379.53c-3.292-2.207-5.861-4.892-8.832-5.496
	c-1.391-0.282-5.331,3.87-5.013,5.275c0.667,2.944,3.391,5.401,5.279,8.07C362.257,384.548,364.53,382.465,367.733,379.53z"/>
<path fill="#FFFFFF" d="M533.963,567.145c3.58-3.181,6.715-5.968,9.848-8.756c0.3,0.168,0.602,0.335,0.902,0.504
	c-4.31,17.251-8.617,34.503-12.925,51.754c-0.473-0.003-0.946-0.008-1.419-0.01c-0.952-5.589-1.92-11.175-2.857-16.767
	c-1.608-9.614-2.778-19.335-5.002-28.797c-0.907-3.854,0.418-4.775,2.836-5.728C528.299,562.018,531.145,564.593,533.963,567.145z"
	/>
<path fill="#FFFFFF" d="M662.79,357.96c1.348,3.052,2.194,5.002,3.065,6.943c2.563,5.714,6.125,10.15,12.575,11.637
	c1.571,0.363,2.792,2.324,4.174,3.549c-1.342,1.246-2.512,3.23-4.056,3.608c-6.776,1.657-11.194,5.479-13.131,12.455
	c-0.438,1.578-2.063,2.811-3.142,4.203c-0.869-1.346-2.099-2.578-2.551-4.056c-2.22-7.277-7.415-10.998-14.131-13.236
	c-1.298-0.433-2.271-1.885-3.394-2.867c1.103-1.243,2.03-3.305,3.333-3.59c7.308-1.601,11.604-6.123,13.825-13.228
	C659.865,361.765,661.198,360.421,662.79,357.96z M663.102,371.314c-3.329,3.594-5.688,6.139-8.792,9.488
	c3.579,2.179,6.22,4.729,9.162,5.168c1.394,0.208,4.892-3.771,4.717-5.58C667.919,377.584,665.327,375.011,663.102,371.314z"/>
<path fill="#FFFFFF" d="M505.3,540.069c-4.199,4.611-8.264,8.979-12.21,13.454c-1.69,1.917-3.202,2.407-4.988,0.237
	c-0.399-0.481-0.884-0.945-1.422-1.24c-12.607-6.897-9.757-20.323-13.692-31.893C484.231,527.394,494.454,533.543,505.3,540.069z"/>
<path fill="#FFFFFF" d="M534.38,556.27c-5.314-5.889-9.93-11.001-14.832-16.433c10.591-6.23,20.847-12.267,31.803-18.715
	c-1.229,6.247-3.057,12.125-3.402,18.092C547.408,548.472,538.896,549.945,534.38,556.27z"/>
<path fill="#FFFFFF" d="M493.091,609.172c-4.245-16.661-8.488-33.321-12.732-49.981c0.26-0.229,0.521-0.456,0.782-0.684
	c1.763,1.457,3.635,2.797,5.266,4.395c4.404,4.313,5.312,4.372,9.596,0.127c0.225-0.221,0.398-0.539,0.664-0.675
	c1.272-0.648,2.568-1.249,3.855-1.867c0.521,1.517,1.655,3.123,1.456,4.535c-0.836,5.935-2.106,11.804-3.149,17.709
	c-1.536,8.703-3.013,17.417-4.513,26.127C493.906,608.961,493.498,609.066,493.091,609.172z"/>
<path fill="#FFFFFF" d="M237.316,665.235c10.221,0,20.171,0,30.394,0c0,5.358,0,10.531,0,15.938c-10.132,0-20.083,0-30.394,0
	C237.316,676.042,237.316,670.866,237.316,665.235z"/>
<path fill="#FFFFFF" d="M684.069,547.635c-1.662-7.609-0.989-8.526,5.647-8.538c12.49-0.018,24.982-0.154,37.471-0.032
	c2.016,0.019,4.723,0.495,5.883,1.857c2.476,2.903,0.275,6.655-3.783,6.678C714.303,547.688,699.316,547.635,684.069,547.635z"/>
<path fill="#FFFFFF" d="M325.371,530.055c-5.496,0-10.556,0-16.024,0c0.7-9.2,1.094-18.217,2.318-27.113
	c0.233-1.703,3.666-3.933,5.749-4.083c1.883-0.136,5.471,2.031,5.667,3.541C324.262,511.465,324.678,520.633,325.371,530.055z"/>
<path fill="#FFFFFF" d="M292.741,547.47c-0.633-7.48,0.207-8.49,6.661-8.491c12.97-0.003,25.941-0.014,38.912,0.006
	c4.294,0.007,6.103,2.485,4.777,6.745c-0.238,0.764-1.551,1.835-2.179,1.717c-14.896-2.807-29.753,0.064-44.621,0.183
	C295.215,547.638,294.139,547.537,292.741,547.47z"/>
<path fill="#FFFFFF" d="M425.781,736.494c4.763,0,9.711,0,14.658,0c0.217,0.461,0.436,0.921,0.653,1.38
	c-1.354,0.746-2.709,2.12-4.063,2.117c-3.486-0.006-3.826,1.965-3.579,4.674c0.099,1.071,0.167,2.144,0.299,3.878
	c1.413,0.362,3.836,0.985,6.828,1.755c-2.311,2.667-8.551-0.721-6.915,5.825c1.773,0.235,3.562,0.475,5.35,0.715
	c0.112,0.402,0.225,0.804,0.338,1.203c-1.088,0.44-2.22,0.792-3.25,1.345c-1.063,0.57-2.026,1.334-3.033,2.015
	c1.041,0.603,2.021,1.416,3.139,1.75c1.138,0.343,2.411,0.215,3.625,0.295c0.11,0.408,0.224,0.819,0.334,1.226
	c-1.962,0.661-3.924,1.32-6.104,2.054c-0.721,3.745-0.635,3.823,5.541,4.518c-0.669,2.999-0.893,3.039-13.824,2.358
	C425.781,761.435,425.781,749.214,425.781,736.494z"/>
<path fill="#FFFFFF" d="M553.365,725.66c1.038-6.646,2.113-13.53,3.254-20.83c0.938,0,2.548,0,4.172,0
	c1.52,8.604,1.52,8.604,7.474,8.04c1.726-8.646,1.726-8.646,8.085-8.026c0,6.261,0.113,12.577-0.161,18.873
	c-0.03,0.7-2.262,1.822-3.492,1.854C565.875,725.754,559.05,725.66,553.365,725.66z"/>
<path fill="#FFFFFF" d="M699.425,531.272c0.249-2.89-0.278-5.648,0.789-7.381c2.616-4.242,1.993-8.732,2.183-13.228
	c0.071-1.733,0.468-3.454,0.699-5.18c0.507-3.807,2.302-6.304,6.372-5.921c4.114,0.387,5.587,3.466,6.012,7.154
	c0.236,2.045-0.115,4.158,0.084,6.213c0.32,3.349-0.814,6.581,2.479,9.825c3.417,3.366,0.403,8.43-4.479,8.505
	C709.084,531.327,704.603,531.272,699.425,531.272z M711.762,520.511c0-3.886,0.241-7.253-0.12-10.55
	c-0.144-1.3-1.636-2.442-2.515-3.656c-0.84,1.113-2.248,2.147-2.415,3.359c-0.487,3.549-0.479,7.17-0.67,10.847
	C708.235,520.511,709.747,520.511,711.762,520.511z"/>
<path fill="#FFFFFF" d="M610.007,466.036c-1.676-0.14-3.354-0.28-5.314-0.444c0.697-3.393,2.411-5.249,5.809-5.579
	c4.382-0.425,7.941,0.603,10.379,5.421c-1.802,0.227-3.228,0.406-6.265,0.79c1.949,1.869,2.9,3.3,4.219,3.954
	c4.665,2.316,5.749,4.966,3.625,9.772c-1.55,3.508-6.743,6.51-10.283,5.949c-5.158-0.819-9.191-4.667-9.479-8.991
	c-0.212-3.186,0.481-5.55,3.992-6.562c1.512-0.434,2.698-2.04,4.031-3.113C610.484,466.833,610.245,466.436,610.007,466.036z"/>
<path fill="#FFFFFF" d="M785.81,666.821c0,4.076,0,8.146,0,12.911c-8.899,0-17.588,0-26.654,0
	c-0.283-4.355-0.537-8.229-0.841-12.911C767.168,666.821,776.194,666.821,785.81,666.821z"/>
<path fill="#FFFFFF" d="M405.722,465.888c-1.631-0.073-3.263-0.146-4.895-0.22c-0.246-0.487-0.493-0.971-0.74-1.458
	c2.703-1.668,5.302-4.448,8.137-4.729c3.657-0.364,7.093,1.867,8.49,5.475c-1.592,0.411-3.159,0.818-4.728,1.223
	c1.159,1.314,2.082,3.098,3.52,3.855c4.74,2.499,5.38,7.736,1.407,12.299c-3.072,3.527-7.299,3.568-10.771,2.398
	c-2.613-0.881-5.021-3.978-6.417-6.682c-1.836-3.554-0.513-6.559,3.572-8.034c1.284-0.462,2.232-1.896,3.334-2.886
	C406.33,466.717,406.025,466.302,405.722,465.888z"/>
<path fill="#FFFFFF" d="M394.035,539.69c-2.872-8.184-7.718-13.241-16.768-15.153c4.605-2.889,8.171-4.308,10.582-6.866
	c2.446-2.598,3.751-6.323,6.397-10.127c1.857,8.511,7.109,13.467,15.047,16.435C401.971,526.996,396.232,531.079,394.035,539.69z"/>
<path fill="#FFFFFF" d="M629.056,539.566c-3.302-7.129-7.124-13.087-15.382-15.11c6.809-4.196,13.318-7.9,14.884-17.058
	c3.024,8.074,7.509,13.755,15.485,16.583C636.377,526.982,631.668,531.848,629.056,539.566z"/>
<path fill="#FFFFFF" d="M839.63,485.852c-3.993,0-7.374,0-11.244,0c0-8.783-0.177-17.39,0.092-25.979
	c0.101-3.245,2.118-6.018,5.6-5.848c3.494,0.173,5.563,2.535,5.558,6.382C839.622,468.718,839.63,477.03,839.63,485.852z"/>
<path fill="#FFFFFF" d="M183.368,486.028c0-9.012-0.352-17.341,0.217-25.605c0.169-2.437,2.624-6.244,4.591-6.666
	c3.127-0.667,6.054,2.472,6.244,5.789c0.458,7.973,0.267,15.991,0.079,23.983c-0.021,0.855-1.671,2.249-2.692,2.385
	C189.221,486.259,186.562,486.028,183.368,486.028z"/>
<path fill="#FFFFFF" d="M472.136,723.032c-0.114,1.693-0.206,3.053-0.309,4.568c-15.892,0-31.5,0-47.108,0
	c-6.106,0-12.212-0.103-18.313,0.04c-3.271,0.076-3.999-1.492-3.462-4.608C425.843,723.032,448.642,723.032,472.136,723.032z"/>
<path fill="#FFFFFF" d="M230.055,603.642c0,8.818,0,17.638,0,25.758c-7.477,0.572-14.856,1.139-22.62,1.736
	C212.509,620.563,222.738,613.508,230.055,603.642z"/>
<path fill="#FFFFFF" d="M188.052,501.444c-5.616,0-11.245,0.215-16.839-0.145c-1.458-0.094-3.769-1.796-3.999-3.079
	c-0.456-2.534,1.003-4.492,4.037-4.482c11.544,0.034,23.088-0.008,34.632,0.027c2.909,0.009,5.223,1.442,4.519,4.542
	c-0.303,1.337-2.927,2.896-4.576,2.997C199.92,501.664,193.98,501.444,188.052,501.444z"/>
<path fill="#FFFFFF" d="M833.724,501.439c-5.777,0.004-11.558-0.028-17.335,0.021c-2.229,0.018-4.573-0.279-3.859-3.156
	c0.424-1.717,2.349-4.305,3.657-4.34c12.018-0.333,24.049-0.311,36.066-0.003c1.151,0.03,2.838,2.596,3.116,4.196
	c0.149,0.859-2.124,3.057-3.381,3.126C845.915,501.618,839.817,501.435,833.724,501.439z"/>
<path fill="#FFFFFF" d="M378.312,417.805c6.669-3.455,11.428-7.694,13.267-13.982c4.592,4.956,8.784,9.481,13.43,14.497
	c-5.366,2.288-10.021,6.52-12.38,13.479C389.353,425.452,385.922,419.804,378.312,417.805z"/>
<path fill="#FFFFFF" d="M630.174,405.197c3.753,3.398,7.823,6.949,11.68,10.726c0.578,0.564,0.424,3.123,0.148,3.209
	c-6.047,1.881-8.341,7.13-10.861,12.221c-0.174,0.351-0.729,0.505-1.382,0.93c-1.244-2.773-2.029-5.758-3.746-7.994
	c-1.523-1.984-3.964-3.36-6.214-4.592c-1.982-1.086-2.845-2.07-0.963-3.868C622.763,412.079,626.749,408.399,630.174,405.197z"/>
<path fill="#FFFFFF" d="M609.255,653.56c-0.754,2.864,0.198,5.81,3.517,7.951c0.961,0.62,1.639,1.9,2.146,3.021
	c2.448,5.4,1.294,7.02-4.28,6.666c-3.184-0.202-6.777-0.778-9.502,0.432c-3.08,1.367-3.551-0.415-3.164-1.977
	c0.751-3.031,1.682-6.601,3.778-8.543c2.426-2.25,3.06-4.335,2.858-7.288c-0.14-2.069-0.224-4.187,0.069-6.221
	c0.144-0.979,1.221-1.813,1.874-2.713c0.902,0.838,2.318,1.53,2.587,2.544C609.574,649.068,609.255,650.917,609.255,653.56z"/>
<path fill="#FFFFFF" d="M434.065,686.402c-3.991,1.021-7.733-0.622-5.463,5.599c0.677,1.851-1.319,4.726-2.263,7.663
	c-0.79,0.144-2.613,0.473-4.847,0.876c-0.41-3.234-0.582-6.406-1.311-9.438c-0.274-1.143-1.836-1.961-2.811-2.927
	c-0.9,1.019-2.381,1.931-2.583,3.078c-0.411,2.327,0.006,4.795-0.213,7.177c-0.077,0.82-1.029,1.558-1.581,2.333
	c-0.695-0.789-1.928-1.534-1.99-2.373c-0.234-3.183-0.33-6.421-0.026-9.594c0.376-3.956,2.66-6.428,6.702-6.373
	c4.207,0.055,8.444,0.237,12.591,0.88C431.655,683.517,432.805,685.325,434.065,686.402z"/>
<path fill="#FFFFFF" d="M230.212,638.005c0,6.521,0,13.041,0,19.933c-8.977,0-17.806,0-26.635,0
	C213.208,652.613,225.139,650.182,230.212,638.005z"/>
<path fill="#FFFFFF" d="M344.632,652.995c2.506,1.936,4.791,3.7,7.271,5.615c-4.604,4.688-8.807,9.18-13.241,13.417
	c-3.816,3.646-6.293,3.514-8.397,0.032c-1.535-2.536-1.535-4.128,1.392-6.141c3.852-2.646,6.995-6.381,10.391-9.703
	C342.906,655.377,343.572,654.332,344.632,652.995z"/>
<path fill="#FFFFFF" d="M553.716,773.606c-1.709,0-2.915,0-4.364,0c0-13.064,0-25.958,0-38.847c2.959-1.055,4.348,0.041,4.354,2.981
	C553.73,749.561,553.716,761.379,553.716,773.606z"/>
<path fill="#FFFFFF" d="M721.307,648.47c1.443,6.137,0.067,10.472-3.951,13.231c-4.376,3.008-13.193,2.846-17.13-0.311
	c-3.338-2.678-4.908-8.05-3.397-12.462c3.526,4.234,5.792,9.802,12.53,9.546C715.848,658.229,717.769,652.571,721.307,648.47z"/>
<path fill="#FFFFFF" d="M283.538,657.738c1.557-1.771,3.113-3.544,4.873-5.546c3.87,4.321,7.477,8.424,11.179,12.435
	c0.929,1.006,2.049,2.008,3.277,2.511c2.276,0.931,3.903,2.306,1.814,4.425c-1.218,1.235-3.679,1.885-5.433,1.649
	c-1.424-0.192-2.808-1.941-3.894-3.271c-3.605-4.413-7.069-8.946-10.586-13.435C284.358,656.919,283.948,657.327,283.538,657.738z"
	/>
<path fill="#FFFFFF" d="M317.749,694.747c-2.458-4.6-4.492-8.146-6.27-11.823c-1.125-2.33-3.136-5.545-0.161-7.122
	c1.998-1.059,5.243,0.143,7.88,0.624c1.866,0.342,3.645,1.169,6.224,2.033C323.213,683.149,320.647,688.596,317.749,694.747z"/>
<path fill="#FFFFFF" d="M331.523,652.402c-0.022,7.465-9.842,11.494-15.623,10.714c-6.968-0.943-12.655-5.958-12.726-11.916
	C312.395,658.786,321.83,659.45,331.523,652.402z"/>
<path fill="#FFFFFF" d="M230.202,578.743c0,5.2,0,9.949,0,15.216c-4.826-5.563-9.337-10.768-13.197-15.216
	C220.148,578.743,225.009,578.743,230.202,578.743z"/>
<path fill="#FFFFFF" d="M745.013,659.407c-5.664,3.281-11.71,6.783-17.754,10.284c-0.409-0.516-0.819-1.033-1.227-1.55
	c4.017-5.395,8.037-10.79,12.194-16.373C740.239,654.033,742.49,656.568,745.013,659.407z"/>
<path fill="#FFFFFF" d="M716.597,681.61c0.765,5.66-5.461,9.166-7.128,15.923c-3.14-5.867-5.77-10.782-8.525-15.933
	c3.299-0.185,5.801-0.427,8.304-0.433C711.434,681.16,713.622,681.418,716.597,681.61z"/>
<path fill="#FFFFFF" d="M693.038,670.051c-6.951-3.196-13.346-6.134-21.265-9.772c3.525-2.878,6.11-4.988,8.596-7.017
	C684.226,658.373,688.34,663.824,693.038,670.051z"/>
<path fill="#FFFFFF" d="M644.988,493.861c-5.598-7.94-5.598-7.94-0.414-15.333C653.385,482.782,653.565,486.717,644.988,493.861z"/>
<path fill="#FFFFFF" d="M698.448,638.412c0.737-1.924,1.063-4.207,2.299-5.7c2.514-3.029,9.298-4.11,13.003-2.129
	c3,1.602,5.026,4.167,4.344,8.742c-6.162-5.085-12.19-5.949-18.054,0.257C699.507,639.191,698.979,638.802,698.448,638.412z"/>
<path fill="#FFFFFF" d="M634.225,337.775c2.778,3.32,4.751,5.68,6.89,8.237c-1.355,1.452-2.393,2.881-3.729,3.906
	c-1.549,1.19-2.007,5.514-5.429,2.055c-3.512-3.548-4.014-6.487-1.307-9.619C631.768,341.06,632.764,339.658,634.225,337.775z"/>
<path fill="#FFFFFF" d="M421.396,675.126c0-7.324,0-14.65,0-21.958c4.077-0.6,4.259-0.606,4.359,2.92
	c0.156,5.431,0.222,10.883-0.111,16.299c-0.082,1.34-1.839,2.573-2.828,3.855C422.343,675.869,421.871,675.498,421.396,675.126z"/>
<path fill="#FFFFFF" d="M382.264,452.163c-1.45,1.073-3.294,3.428-5.489,3.849c-3.783,0.725-5.332-2.747-6.157-5.785
	c-0.684-2.527,2.762-5.878,5.545-5.731C379.881,444.688,381.557,447.111,382.264,452.163z"/>
<path fill="#FFFFFF" d="M154.268,639.576c9.653-2.136,21.182,4.462,26.264,12.967C172.288,648.473,163.278,644.025,154.268,639.576z
	"/>
<path fill="#FFFFFF" d="M708.63,606.813c2.485,4.84,4.603,8.961,7.094,13.811c-5.007,0.243-9.072,0.439-13.966,0.678
	C704.081,616.402,706.145,612.051,708.63,606.813z"/>
<path fill="#FFFFFF" d="M327.106,638.299c-5.962-5.556-11.894-6.858-18.086-0.71c-0.369-0.322-0.737-0.646-1.105-0.966
	c0.664-1.765,0.891-3.958,2.072-5.213c3.233-3.439,7.239-3.83,11.562-2.032C325.245,630.918,327.348,633.395,327.106,638.299z"/>
<path fill="#FFFFFF" d="M317.418,606.549c2.465,4.949,4.498,9.032,6.892,13.837c-4.915,0-8.716,0-13.599,0
	C312.843,615.985,314.866,611.813,317.418,606.549z"/>
<path fill="#FFFFFF" d="M220.619,638.079c-2.762,5.267-7.758,5.522-11.872,7.356c-4.208,1.878-8.351,3.903-12.414,5.813
	C198.035,645.061,209.809,638.464,220.619,638.079z"/>
<path fill="#FFFFFF" d="M388.744,352.547c-2.024-2.51-4.087-5.067-6.261-7.761c1.865-2.332,3.6-4.501,5.337-6.677
	C395.44,344.701,395.788,349.073,388.744,352.547z"/>
<path fill="#FFFFFF" d="M343.597,635.48c-3.168-2.015-4.948-3.275-6.845-4.31c-1.854-1.012-3.828-1.793-5.749-2.675
	c-0.032-0.453-0.063-0.907-0.095-1.361c4.154-1.343,8.309-2.685,13.381-4.323C344.036,627.432,343.845,630.937,343.597,635.48z"/>
<path fill="#FFFFFF" d="M302.442,636.99c0.931,1.733,1.719,3.198,1.951,3.63c-3.537,4.462-6.562,8.276-9.646,12.167
	C290.099,649.682,291.178,643,302.442,636.99z"/>
<path fill="#FFFFFF" d="M730.656,653.435c-2.06-4.123-4.288-8.347-6.265-12.688c-0.555-1.216-0.372-2.787-0.527-4.192
	c1.416,0.17,3.183-0.153,4.188,0.596C733.573,641.253,734.39,648.04,730.656,653.435z"/>
<path fill="#FFFFFF" d="M338.908,653.435c-0.804-5.265-3.122-9.179-9.389-10.304c1.417-2.017,2.499-3.56,3.735-5.315
	c3.988,2.795,9.06,4.128,8.944,10.049c-0.039,1.955-1.211,3.888-1.865,5.83C339.858,653.607,339.383,653.521,338.908,653.435z"/>
<path fill="#FFFFFF" d="M290.859,634.324c-0.298-3.68-0.55-6.813-0.896-11.092c4.693,1.314,9.189,2.572,13.683,3.829
	c0.018,0.452,0.038,0.901,0.057,1.352C299.512,630.343,295.323,632.27,290.859,634.324z"/>
<path fill="#FFFFFF" d="M683.395,634.763c-0.371-4.077-0.679-7.436-1.057-11.57c4.942,1.338,9.048,2.45,14.06,3.81
	C691.87,629.705,687.998,632.014,683.395,634.763z"/>
<path fill="#FFFFFF" d="M577.052,732.928c-0.728,5.063-6.404,5.988-16.4,2.991C560.985,732.006,565.729,731.109,577.052,732.928z"/>
<path fill="#FFFFFF" d="M735.559,634.087c-4.37-2.584-8.04-4.751-12.532-7.406c4.737-1.299,8.858-2.429,13.597-3.729
	C736.202,627.369,735.887,630.65,735.559,634.087z"/>
<path fill="#FFFFFF" d="M693.164,637.82c-1.448,5.712-2.896,11.425-4.353,17.161c-5.482-4.884-4.324-11.669,2.995-17.599
	C692.259,637.529,692.711,637.675,693.164,637.82z"/>
<path fill="#FFFFFF" d="M322.547,650.319c-2.198-3.173-3.631-5.241-5.062-7.309c-1.544,2.16-3.087,4.323-5.088,7.128
	c-0.492-0.896-2.45-2.911-2.046-4.018c1.273-3.467,4.121-5.344,8.025-5.152c3.767,0.186,5.793,2.443,6.085,5.928
	C324.571,648.209,322.935,649.674,322.547,650.319z"/>
<path fill="#FFFFFF" d="M714.718,645.621c-4.196,4.759-8.152,6.077-10.13,3.234c-0.74-1.063-0.652-3.817,0.181-4.746
	C707.786,640.755,710.922,641.343,714.718,645.621z"/>
<path fill="#FFFFFF" d="M827.695,655.835c5.611,0,10.3,0,14.487,0c-1.971,2.175-4.215,4.65-6.695,7.386
	C833.168,661.021,830.783,658.762,827.695,655.835z"/>
<path fill="#FFFFFF" d="M714.594,672.519c-3.97,0-7.494,0-11.016,0c-0.284-0.456-0.567-0.913-0.854-1.369
	c1.877-1.383,3.791-3.923,5.617-3.857C710.753,667.377,714.287,668.026,714.594,672.519z"/>
<path fill="#FFFFFF" d="M679.373,413.407c0.937,1.617,2.756,3.352,2.569,4.821c-0.197,1.557-2.299,2.862-3.569,4.276
	c-1.154-1.473-3.095-2.87-3.236-4.437c-0.131-1.482,1.625-3.143,2.551-4.725C678.249,413.364,678.811,413.386,679.373,413.407z"/>
<path fill="#FFFFFF" d="M733.864,673.632c-2.011,2.754-4.02,5.507-6.431,8.81c-1.716-2.474-2.82-4.062-4.316-6.221
	c3.517-1.193,6.66-2.262,9.805-3.329C733.235,673.139,733.549,673.385,733.864,673.632z"/>
<path fill="#FFFFFF" d="M686.856,672.441c2.586,1.429,5.17,2.859,8.795,4.864c-2.104,1.743-3.483,2.887-4.861,4.029
	c-1.829-2.477-3.655-4.955-5.483-7.431C685.823,673.416,686.338,672.93,686.856,672.441z"/>
<path fill="#FFFFFF" d="M456.243,700.979c-0.66-1.273-1.869-2.547-1.867-3.819c0.005-2.621,0.655-5.242,1.038-7.862
	c0.826,0.509,2.32,0.966,2.363,1.535c0.233,3.146,0.112,6.322,0.112,9.488C457.34,700.538,456.791,700.757,456.243,700.979z"/>
<path fill="#FFFFFF" d="M376.553,478.551c1.611,2.087,3.227,3.271,3.131,4.281c-0.135,1.425-1.541,2.721-2.404,4.073
	c-1.124-1.064-2.953-1.996-3.174-3.229C373.891,482.474,375.318,480.961,376.553,478.551z"/>
<path fill="#FFFFFF" d="M652.368,447.257c-1.354-2.434-2.64-3.691-2.489-4.734c0.187-1.295,1.562-2.411,2.42-3.604
	c1.015,1.073,2.737,2.075,2.85,3.238C655.264,443.373,653.829,444.745,652.368,447.257z"/>
<path fill="#FFFFFF" d="M757.611,298.463c-0.288,4.018,0.044,7.046-0.786,9.692c-4.27,13.618-12.08,24.501-24.676,31.227
	c-1.939,1.037-4.699,1.728-6.655,1.13c-2.168-0.662-4.576-2.645-5.503-4.702c-0.7-1.548,0.077-4.894,1.382-6.116
	c10.674-9.999,21.619-19.696,32.512-29.451C754.431,299.755,755.241,299.575,757.611,298.463z"/>
<path fill="#FFFFFF" d="M668.74,247.064c-4.543,8.137-8.599,15.572-12.828,22.902c-1.764,3.059-4.602,5.434-8.072,4.1
	c-3.817-1.466-3.637-5.83-2.583-8.693c3.263-8.86,8.508-16.181,18.177-18.636C664.807,246.389,666.386,246.892,668.74,247.064z"/>
<path fill="#FFFFFF" d="M559.127,858.461c3.248,2.567,6.405,4.895,9.371,7.453c2.735,2.362,5.149,5.409,3.138,9.092
	c-1.104,2.021-3.728,4.002-5.93,4.381c-3.994,0.685-7.396-1.548-9.022-5.397C554.406,868.593,555.316,863.457,559.127,858.461z"/>
<path fill="#FFFFFF" d="M572.514,849.063c-2.833-2.127-5.664-3.687-7.711-5.98c-1.479-1.655-2.783-4.398-2.529-6.443
	c0.181-1.47,3.165-3.734,4.719-3.589c2.306,0.21,5.276,1.693,6.488,3.611C575.791,840.323,575.392,844.551,572.514,849.063z"/>
<path fill="#FFFFFF" d="M494.481,862.563c-0.502,4.472-0.798,8.945-1.617,13.317c-0.263,1.405-1.906,2.54-2.917,3.8
	c-1.07-1.185-2.811-2.213-3.104-3.571c-1.913-8.831-2.099-17.745,0.186-26.547c0.323-1.247,1.909-2.149,2.91-3.212
	c0.955,1.131,2.5,2.136,2.757,3.415C493.541,853.968,493.919,858.27,494.481,862.563z"/>
<path fill="#FFFFFF" d="M181.356,586.176c2.726-2.286,4.679-4.892,5.685-4.554c1.88,0.635,4.139,2.813,4.453,4.666
	c0.214,1.265-2.434,4.017-4.119,4.331C186.042,590.866,184.23,588.42,181.356,586.176z"/>
<path fill="#FFFFFF" d="M176.045,603.359c-1.416-2.814-3.071-4.581-2.8-5.953c0.33-1.674,2.276-3.013,3.523-4.499
	c1.565,1.857,3.407,3.57,4.46,5.695C181.44,599.027,178.647,601.015,176.045,603.359z"/>
<path fill="#FFFFFF" d="M202.845,598.181c-1.685,1.113-3.422,3.155-5.039,3.061c-1.426-0.085-2.717-2.557-4.067-3.976
	c1.49-1.46,2.808-3.724,4.53-4.115c1.233-0.282,3.012,1.94,4.546,3.045C202.826,596.857,202.836,597.518,202.845,598.181z"/>
<path fill="#FFFFFF" d="M597.301,715.751c1.087-3.438,7.442-9.571,9.622-9.407c2.41,0.184,9.043,6.44,9.724,9.407
	C610.174,715.751,603.766,715.751,597.301,715.751z"/>
</svg>
