<?xml version="1.0" encoding="utf-8"?>
<!-- Generator: Adobe Illustrator 16.0.0, SVG Export Plug-In . SVG Version: 6.00 Build 0)  -->
<!DOCTYPE svg PUBLIC "-//W3C//DTD SVG 1.1//EN" "http://www.w3.org/Graphics/SVG/1.1/DTD/svg11.dtd">
<svg version="1.1" id="Layer_1" xmlns="http://www.w3.org/2000/svg" xmlns:xlink="http://www.w3.org/1999/xlink" x="0px" y="0px"
	 width="1024px" height="1024px" viewBox="0 0 1024 1024" enable-background="new 0 0 1024 1024" xml:space="preserve">
<g>
	<path fill-rule="evenodd" clip-rule="evenodd" fill="#FFFFFF" d="M216.612,685.846c-9.985,0-19.175,0-29.106,0
		c0-15.601-0.011-30.774,0.004-45.951c0.018-18.249,0.628-36.522-0.111-54.742c-0.513-12.607,0.349-26.21-8.863-36.466
		c-5.139-5.72-11.472-10.46-17.783-14.87c-3.098-2.165-4.865-3.857-4.619-7.913c0.272-4.513-0.442-9.078-0.426-13.62
		c0.005-1.244,0.79-2.852,1.732-3.661c6.256-5.368,7.81-11.979,5.371-19.752c-1.936-6.166-6.945-7.879-12.438-8.737
		c-1.433-0.225-2.928-0.035-5.22-0.035c-0.329-10.144-1.176-19.983-0.834-29.78c0.436-12.515-8.434-17.496-15.882-17.734
		c-9.475-0.303-15.92,6.86-16.257,17.52c-0.304,9.684-0.422,19.375-0.638,29.062c-0.004,0.163-0.19,0.32-0.292,0.478
		c-2.342,0.442-4.666,1.042-7.026,1.297c-7.147,0.776-10.03,5.793-11.172,12.107c-1.102,6.089,1.862,10.872,5.676,15.258
		c1.256,1.444,2.646,3.221,2.931,5.02c1.773,11.162-0.737,18.708-12.307,24.478c-13.753,6.859-19.578,21.016-19.861,36.811
		c-0.066,3.695-0.868,5.459-4.498,6.924c-7.468,3.013-14.581,6.944-22.575,10.854c-0.938-4.76-2.257-10.245-3.075-15.81
		c-4.594-31.255-4.506-62.771-3.188-94.168c1.823-43.414,10.82-85.582,24.738-126.645c17.582-51.878,43.103-99.188,76.24-142.434
		c41.463-54.116,90.962-98.437,149.958-131.383c35.633-19.898,72.872-36.138,112.509-45.526
		c21.992-5.208,44.402-8.769,66.766-12.058c14.059-2.068,28.401-3.319,42.579-3.041c19.748,0.39,39.491,2.244,59.186,4.037
		c24.234,2.207,47.877,7.807,71.148,14.881c51.769,15.733,99.775,39.621,143.462,72.063c27.954,20.762,54.191,43.78,77.542,69.97
		c46.312,51.946,80.887,111.063,103.159,177.681c8.938,26.732,15.92,53.98,19.882,81.896c2.198,15.486,2.959,31.245,3.454,46.91
		c0.57,17.987,0.82,36.047-0.071,54.008c-0.829,16.659-3.346,33.231-5.139,50.024c-9.605-4.779-18.527-9.216-28.012-13.934
		c-0.289-11.214-2.258-23.227-10.619-32.58c-4.479-5.01-10.144-9.251-15.969-12.549c-4.549-2.572-6.757-5.224-5.952-10.443
		c0.23-1.486,0.06-3.041,0.031-4.563c-0.089-4.64-0.276-8.814,4.076-12.477c5.107-4.295,6.172-11.009,3.434-17.025
		c-1.498-3.297-5.189-5.925-8.452-7.879c-2.371-1.421-5.658-1.247-9.101-1.888c0-9.512,0.115-19.179-0.025-28.843
		c-0.211-14.603-13.381-22.382-25.52-15.144c-4.537,2.707-6.576,6.991-6.821,12.225c-0.497,10.615-0.938,21.233-1.404,31.877
		c-2.109,0.419-4.046,0.895-6.01,1.175c-5.637,0.806-9.968,3.787-11.313,9.376c-1.553,6.459-1.006,13.358,4.495,17.674
		c3.024,2.373,3.094,4.647,3.069,7.621c-0.006,0.57-0.091,1.159,0.012,1.711c1.786,9.669-1.713,15.344-10.5,20.352
		c-12.852,7.327-19.392,20.177-19.547,35.342c-0.363,35.729-0.178,71.463-0.231,107.194c-0.001,1.678-0.171,3.355-0.288,5.447
		c-9.244,0-18.22,0-26.352,0c3.889-18.928,8.658-37.875,11.451-57.119c2.265-15.588,2.628-31.527,2.949-47.33
		c0.286-13.982,0.477-28.143-1.314-41.947c-2.434-18.749-5.662-37.555-10.551-55.775c-12.323-45.931-31.387-88.843-59.766-126.876
		c-18.508-24.801-39.708-47.034-63.896-66.243c-31.905-25.338-67.211-43.528-105.968-55.12c-29.3-8.764-59.256-12.077-89.378-9.474
		c-60.17,5.195-114.205,27.473-161.666,65.806c-38.722,31.273-70.049,68.958-92.547,114.081c-0.663,1.328-1.262,2.692-1.812,4.074
		c-0.115,0.287,0.123,0.721,0.262,1.399c11.711,0,23.473,0,36.062,0c0-6.825,0-13.208,0-19.308c4.842-1.792,5.789,0.792,5.885,3.953
		c0.155,5.099,0.042,10.207,0.042,15.911c3.164-0.173,5.813-0.319,8.978-0.494c0-6.888,0-13.281,0-19.915c1.967,0,3.391,0,5.561,0
		c0,2.271,0,4.487,0,6.704c0.008,13.689,0.009,13.718,13.519,13.558c6.51-0.078,13.016-0.359,19.525-0.387
		c2.193-0.009,4.538,0.089,6.525,0.887c1.226,0.493,2.562,2.362,2.643,3.689c0.073,1.217-1.203,3.126-2.362,3.682
		c-1.918,0.917-4.221,1.359-6.363,1.364c-28.268,0.061-56.536-0.008-84.804,0.012c-3.687,0.002-8.188-0.949-10.829,0.837
		c-2.605,1.763-3.644,6.331-4.824,9.859c-7.356,21.994-15.556,43.767-21.458,66.171c-3.897,14.793-5.218,30.464-6.237,45.842
		c-1.127,17.011-1.223,34.161-0.646,51.211c0.984,29.133,6.691,57.51,15.215,85.297
		C215.313,681.592,215.857,683.375,216.612,685.846z M810.091,251.098c10.837-9.837,21.431-19.455,32.265-29.293
		c-9.455-10.987-18.495-21.493-27.306-31.73c-2.899,2.684-5.479,5.074-8.061,7.466c1.104,1.7,1.986,3.056,3.205,4.931
		c-11.353,10.297-22.492,20.503-33.743,30.581c-13.356,11.964-26.894,23.724-40.163,35.787c-3.573,3.248-6.495,7.001-10.5,0.605
		c-2.633,2.466-4.911,4.605-7.589,7.116c7.89,9.18,15.622,18.348,23.582,27.304c1.764,1.985,4.328,3.224,7.27,5.346
		c0.321,6.565,1.643,8.661,11.367,16.127c10.111,7.762,21.048,11.712,33.945,8.641c20.301-4.833,31.363-25.632,30.481-43.771
		C824.161,276.159,819.615,262.977,810.091,251.098z M380.735,85.346c2.105,4.436-1.092,11.779,7.608,11.233
		c0.407-0.026,1.157,1.374,1.316,2.197c0.846,4.416,1.509,8.866,2.317,13.291c3.6,19.707,7.264,39.402,10.826,59.115
		c1.829,10.122,3.493,20.274,5.229,30.403c-2.031,0.759-3.523,1.317-5.39,2.016c0.646,3.804,1.262,7.424,1.887,11.096
		c13.618-2.69,26.875-5.311,40.578-8.018c-2.013-11.419-3.956-22.442-6.006-34.07c12.75,6.855,20.924,16.888,26.221,30.324
		c13.559-2.558,26.997-5.095,40.408-7.626c-1.467-11.64-1.467-11.64-7.894-10.648c-8.501-16.272-21.521-27.718-38.296-34.985
		c3.603-6.535,6.653-12.323,9.953-17.958c2.016-3.439,2.294-8.683,8.111-8.67c0.459,0,1.396-2.887,1.279-4.361
		c-0.188-2.347-1.077-4.635-1.668-6.943c-1.704,0.156-3.145,0.306-4.588,0.417c-9.903,0.768-17.769,3.524-21.779,14.693
		c-3.495,9.732-9.497,18.521-14.923,28.729c-4.893-26.707-9.561-52.182-14.286-77.979C407.816,80.22,394.53,82.735,380.735,85.346z
		 M290.172,188.915c-1.041-1.267-2.611-3.172-4.077-4.953c-11.307,8.543-22.06,16.667-33.038,24.96
		c2.336,3.442,4.303,6.341,6.297,9.278c1.736-1.053,3.298-2.001,5.303-3.217c12.35,17.171,24.732,34.385,37.223,51.75
		c-1.712,1.247-3.046,2.217-4.76,3.466c1.658,2.539,3.014,5.175,4.931,7.274c0.754,0.826,3.258,1.151,4.128,0.512
		c10.422-7.669,20.687-15.563,30.892-23.322c-4.145-5.895-8.086-11.565-12.095-17.184c-4.012-5.621-8.134-11.16-12.132-16.791
		c-4.534-6.382-9.413-12.566-13.35-19.321c-4.035-6.923-0.61-13.892,6.947-14.68c5.33-0.554,8.014,3.973,10.708,7.718
		c11.726,16.299,23.343,32.679,35.082,49.143c11.376-8.537,22.455-16.854,33.841-25.397c-2.174-3.044-4.142-5.803-6.179-8.656
		c-1.954,1.301-3.452,2.299-5.168,3.442c-1.036-1.349-1.945-2.509-2.829-3.69c-9.042-12.092-17.746-24.473-27.22-36.2
		c-8.648-10.705-30.465-11.882-41.244-1.404C298.401,176.533,294.723,182.883,290.172,188.915z M574.104,192.751
		c5.902-33.533,11.991-66.836,17.401-100.255c0.812-5.008,2.215-6.419,6.581-5.618c0.558-3.813,1.061-7.26,1.609-11.025
		c-16.517-3.07-32.496-6.039-48.908-9.09c-0.584,4.033-1.135,7.831-1.695,11.699c2.38,0.479,4.056,0.816,6.006,1.21
		c-0.447,1.125-0.854,1.784-0.974,2.494c-5.332,31.189-10.515,62.405-16.106,93.543c-0.699,3.89,1.099,10.825-6.974,10.055
		c-0.461-0.043-1.378,2.458-1.695,3.866c-0.48,2.134-0.618,4.351-0.942,6.838c29.146,5.213,58.217,10.412,87.274,15.609
		c0.743-4.29,1.27-7.234,1.758-10.186c0.52-3.143,0.842-6.331,1.533-9.432c2.565-11.512,2.609-11.502-8.363-13.851
		c-0.182-0.039-0.36-0.101-0.544-0.124c-3.129-0.405-5.654-0.186-6.981,3.648c-1.394,4.031-3.323,7.927-5.488,11.593
		c-0.817,1.386-3.078,2.941-4.453,2.745C586.831,195.571,580.601,194.078,574.104,192.751z M707.918,251.93
		c7.199-12.729,14.308-25.455,21.568-38.09c6.237-10.854,6.706-21.321-0.422-32.145c-7.832-11.89-18.451-20.263-31.187-25.209
		c-16.146-6.272-12.157-7.938-20.613,7.938c2.907,1.904,5.793,3.894,8.777,5.71c1.698,1.034,3.563,1.786,5.38,2.678
		c1.771-1.681,3.379-3.209,4.924-4.678c9.305,5.064,13.507,10.371,6.979,19.085c-6.519-2.003-12.843-4.709-19.419-5.757
		c-6.813-1.087-13.934-1.263-20.808-0.611c-15.567,1.478-24.041,15.785-23.049,28.694c0.802,10.462,7.485,18.08,15.438,24.396
		c6.219,4.94,12.707,8.51,21.829,4.294c-1.258,3.065-1.94,4.728-2.802,6.83c11.044,6.435,22.136,12.898,33.541,19.543
		c1.896-3.242,3.551-6.073,5.194-8.884C711.381,254.393,709.736,253.224,707.918,251.93z M173.662,244.986
		c23.875,23.922,47.31,47.535,70.939,70.944c3.461,3.428,4.766,6.061,0.938,8.696c2.505,2.676,4.9,5.234,6.593,7.042
		c11.362-11.598,22.876-23.352,33.952-34.656c-2.126-2.241-4.656-4.908-7.262-7.654c-1.107,0.944-2.321,1.978-3.038,2.589
		c-24.889-25.534-49.526-50.809-74.336-76.262c0.703-0.842,1.728-2.066,2.271-2.716c-2.608-2.941-4.952-5.583-7.521-8.479
		c-9.447,9.7-18.744,19.255-28.051,28.797c-7.952,8.154-7.957,8.149,1.858,14.868C171.192,247.127,172.442,246.045,173.662,244.986z
		"/>
	<path fill-rule="evenodd" clip-rule="evenodd" fill="#FFFFFF" d="M165,845.875c18.858,0,37.154,0,55.981,0
		c1.552,18.735,7.973,35.174,22.67,47.251c10.722,8.812,23.612,13.115,36.827,12.709c22.661-0.699,48.83-9.073,57.568-50.938
		c117.053,0,234.147,0,351.123,0c7.244,36.521,31.855,51.902,61.512,50.319c26.881-1.438,50.646-17.296,54.965-59.396
		c9.012,0,18.122,0,27.232,0c8.72,0,17.441,0,27.152,0c-1.643,2.074-2.729,3.678-4.035,5.064
		c-36.503,38.822-78.606,69.921-124.874,95.405c-31.585,17.399-64.711,30.82-99.308,40.137c-17.885,4.813-36.264,7.79-54.5,11.136
		c-25.723,4.716-51.731,6.889-77.819,5.52c-16.556-0.871-33.121-2.901-49.5-5.576c-19.162-3.128-38.471-6.269-57.112-11.608
		c-50.814-14.561-98.841-36.021-142.464-66.643c-20.085-14.099-38.948-30.055-58.058-45.567
		C182.413,865.614,172.624,857.193,165,845.875z M592.342,917.51c10.946-11.197,10.002-22.475-2.298-28.217
		c-9.229-4.306-18.856-4.282-28.083,0.013c-11.362,5.292-13.184,16.861-4.434,25.894c0.741,0.767,1.404,1.609,2.369,2.726
		c-1.632,1.507-3.115,2.654-4.34,4.042c-9.442,10.697-6.233,25.394,6.86,30.599c9.176,3.648,18.575,3.651,27.684-0.292
		c12.026-5.207,15.319-17.927,7.566-28.599C596.146,921.582,594.288,919.744,592.342,917.51z M459.913,928.374
		c-0.135,16.432,8.936,25.794,25.156,25.964c16.625,0.174,26.157-8.762,26.384-24.729c0.234-16.528-9.255-26.639-25.178-26.825
		C469.98,902.591,460.046,912.236,459.913,928.374z M413.294,953.784c14.001,0,27.464,0,40.789,0c0-3.546,0-6.68,0-10.294
		c-3.338,0.297-7.624-0.596-8.913,1.019c-5.434,6.804-11.669,1.913-18.026,3.284c1.433-6.747,5.931-9.131,10.073-11.867
		c4.348-2.87,9.072-5.322,12.9-8.798c7.513-6.82,6.326-14.924-2.535-19.764c-9.174-5.014-18.985-4.013-28.842-3.087
		c-5.994,0.562-7.036,3.6-4.955,9.77c2.927-0.608,6.917-0.236,8.871-2.1c3.669-3.503,6.68-1.999,9.345,0.109
		c3.454,2.73,1.417,5.898-0.93,8.247c-3.71,3.711-7.704,7.12-11.562,10.675C412.766,937.193,410.688,944.75,413.294,953.784z
		 M541.549,904.123c-8.994,0-17.25,0-25.217,0c-1.632,4.538-0.093,6.825,4.329,7.011c0,11.265,0.054,22.08-0.071,32.896
		c-0.016,1.263-0.958,2.548-1.579,3.764c-0.915,1.798-1.93,3.542-3.337,6.102c10.91,0,20.302,0,30.689,0
		c-0.742-2.29-1.065-5.4-1.923-5.566c-3.775-0.718-2.862-3.397-2.871-5.671C541.524,929.952,541.549,917.251,541.549,904.123z"/>
	<path fill-rule="evenodd" clip-rule="evenodd" fill="#FFFFFF" d="M30.764,727.234c-11.06-3.079-18.337-9.333-22.524-18.857
		c-6.362-14.478-8.401-29.845-8.23-45.692c0.24-22.274,5.927-42.354,20.688-59.262c0.884-1.013,1.194-3.084,0.948-4.516
		c-6.031-35.155-8.416-70.637-6.648-106.199c1.162-23.354,4.163-46.679,7.519-69.837c7.449-51.387,24.988-99.491,48.212-145.379
		c18.389-36.333,41.312-69.654,67.577-100.578c19.874-23.398,41.713-44.692,65.184-64.163c30.492-25.293,63.706-46.232,99.158-63.6
		c34.793-17.046,70.946-30.094,108.592-38.134c22.274-4.757,45.061-7.521,67.756-9.532c18.831-1.667,37.897-1.808,56.8-1.063
		c36.714,1.448,72.7,7.875,108.046,18.439c54.611,16.327,104.93,41.518,151.147,75.317c20.974,15.336,40.629,32.286,59.333,50.533
		c26.466,25.82,49.838,54.255,70.224,85.139c23.33,35.346,42.358,73.167,55.479,113.735c7.472,23.102,14.232,46.563,19.363,70.303
		c4.075,18.844,5.979,38.298,7.39,57.593c1.396,19.104,1.823,38.38,1.103,57.519c-0.746,19.759-3.175,39.468-5.303,59.148
		c-0.89,8.247-0.41,14.856,5.274,22.178c11.783,15.174,16.136,33.563,16.148,52.961c0.009,17.386-2.538,34.134-11.374,49.358
		c-3.99,6.878-9.994,11.236-17.532,12.803c3.312-5.876,7.139-11.332,9.657-17.36c15.113-36.15,13.04-70.459-11.42-102.02
		c-2.553-3.295-3.947-6.112-3.329-10.952c2.468-19.268,4.017-38.657,5.853-58.01c2.376-25.045,1.062-50.026-1-75.031
		c-5.677-68.91-27.727-132.462-60.169-192.542c-18.769-34.757-41.903-66.336-68.347-95.407
		c-35.274-38.784-74.917-72.026-119.929-98.248c-39.238-22.859-80.675-40.522-124.765-50.911
		c-17.85-4.207-36.032-7.063-54.164-9.847c-24.411-3.747-49.052-4.348-73.664-3.113c-27.032,1.354-53.808,4.639-80.376,10.53
		c-41.181,9.131-80.19,24.079-117.765,43.197c-30.182,15.355-58.517,33.821-84.312,56.059
		c-15.46,13.329-30.869,26.882-45.005,41.634c-51.893,54.151-91.232,116.572-114.644,188.829
		c-7.026,21.687-13.304,43.814-17.53,66.211c-4.028,21.358-5.857,43.282-6.96,65.048c-1.144,22.54-0.978,45.224,0.006,67.779
		c0.654,14.993,3.882,29.858,5.632,44.82c0.302,2.585-0.195,6.057-1.713,7.956c-16.192,20.28-22.985,43.259-21.115,69.408
		C11.458,693.358,18.261,710.764,30.764,727.234z"/>
	<path fill-rule="evenodd" clip-rule="evenodd" fill="#FFFFFF" d="M660.978,822.105c0-13.732,0.115-27.582-0.037-41.431
		c-0.118-10.611-0.473-21.222-0.909-31.826c-0.379-9.32-5.909-15.869-12.447-21.251c-7.143-5.877-8.379-13.729-4.48-21.601
		c3.637-7.346,2.39-14.542-3.061-20.234c-3.298-3.446-3.805-6.962-3.657-11.22c0.206-5.878-0.391-11.371-6.863-13.979
		c-7.799-3.142-14.569,0.324-16.167,8.623c-0.392,2.029-0.492,4.182-0.328,6.245c0.349,4.399-0.68,7.811-4,11.125
		c-6.07,6.053-6.559,13.864-2.273,21.2c2.795,4.782,2.233,12.291-1.226,16.393c-6.787,8.051-15.243,10.352-26.131,6.77
		c0.22-3.024,0.586-6.196,0.636-9.372c0.036-2.384,0.274-5.102-0.718-7.065c-0.804-1.586-3.466-3.306-5.013-3.058
		c-1.454,0.23-3.34,2.837-3.602,4.616c-0.547,3.722-0.315,7.596-0.089,11.387c0.212,3.547-0.785,5.534-4.605,5.111
		c-13.941-1.538-12.303,3.72-12.031,14.922c0.091,3.713-1.329,7.495-2.24,11.198c-1.458,5.92-4.15,11.752-4.401,17.707
		c-0.636,15.188-0.211,30.421-0.211,46.572c-9.833,0-19.438,0-29.966,0c0-5.61-0.031-11.27,0.006-16.927
		c0.126-20.553,0.375-41.102,0.339-61.65c-0.007-4.278,1.872-6.983,4.695-9.664c25.559-24.27,51.189-48.461,76.51-72.985
		c11.451-11.092,10.904-11.884-0.232-22.997c-8.891-8.869-17.105-18.445-25.929-28.044c8.132-7.249,17.018-15.536,26.304-23.325
		c7.003-5.875,7.433-7.095,3.81-15.536c-5.437-12.657-10.573-25.45-16.497-39.778c24.375,12.841,47.142,24.832,70.688,37.235
		c-1.678,6.158-3.495,12.759-5.272,19.374c-5.224,19.456-7.015,39.269-6.354,59.416c0.146,4.434,2.919,5.22,5.58,5.235
		c1.151,0.007,3.382-3.407,3.315-5.196c-0.889-23.7,4.23-46.417,10.281-69.001c0.473-1.767,1.314-3.43,2.284-5.907
		c6.811,3.522,13.387,6.671,19.638,10.385c1.151,0.684,1.384,3.671,1.387,5.597c0.074,42.254,0.094,84.508,0.046,126.763
		c-0.041,33.493-0.221,66.982-0.247,100.475c-0.006,3.868-0.904,5.969-5.273,5.779C675.458,821.89,668.659,822.105,660.978,822.105z
		"/>
	<path fill-rule="evenodd" clip-rule="evenodd" fill="#FFFFFF" d="M453.552,611.726c-10.713,10.994-20.952,21.499-31.184,32.01
		c-6.004,6.168-6.268,8.468-0.133,14.551c14.13,14.015,28.439,27.845,42.83,41.577c13.562,12.943,27.358,25.632,40.924,38.568
		c1.016,0.969,1.387,3.043,1.425,4.623c0.157,6.464,0.038,12.938,0.077,19.408c0.093,15.986,0.269,31.975,0.297,47.963
		c0.005,4.15-0.415,8.301-0.662,12.846c-10.906,0-21.313,0-32.134,0c0-20.165,0-40.365,0-60.55
		c9.344-1.166,9.438-1.168,9.217-11.015c-0.113-5.075,1.109-11.726-1.499-14.726c-2.203-2.536-9.057-0.962-13.853-0.99
		c-12.141-0.072-12.333-0.027-12.056-12.218c0.12-5.274-0.755-9.204-6.141-11.32c-1.361-0.534-2.587-3.1-2.748-4.843
		c-0.397-4.341,0.198-8.785-0.284-13.108c-0.3-2.679-0.143-6.678-4.559-6.451c-4.082,0.209-4.315,3.375-4.248,6.604
		c0.052,2.474,0.204,4.967-0.009,7.422c-0.365,4.216,1.562,8.807-3.035,12.37c-1.433,1.111-0.969,5.025-1.055,7.667
		c-0.146,4.486-0.041,8.981-0.041,13.652c-2.651,0-4.46,0-6.992,0c0-5.898-0.158-11.743,0.048-17.576
		c0.179-5.063-1.71-9.056-5.863-11.396c-3.589-2.022-4.151-4.884-4.121-8.509c0.061-7.226,0.033-14.456-0.174-21.68
		c-0.044-1.537-0.581-3.858-1.619-4.428c-4.833-2.659-4.922-7-4.728-11.626c0.039-0.941-0.129-1.892-0.17-2.837
		c-0.11-2.5-0.028-5.729-3.518-4.94c-2.045,0.463-4.05,2.625-5.336,4.542c-0.786,1.17-0.18,3.325-0.189,5.036
		c-0.021,3.654,0.654,7.146-3.96,9.353c-1.761,0.842-2.473,5.259-2.619,8.102c-0.362,7.025,0.073,14.093-0.254,21.122
		c-0.083,1.758-1.444,4.356-2.882,4.99c-6.537,2.876-8.624,8.305-9.255,14.845c-0.036,0.376-0.003,0.762-0.006,1.144
		c-0.088,14.057-0.088,14.057-14.173,14.06c-9.265,0.001-9.266,0.001-9.267,9.316c-0.001,24.18,0.003,48.358-0.011,72.537
		c-0.001,1.312-0.147,2.621-0.257,4.435c-6.827,0-13.522,0-20.94,0c0-3.978,0-8.099,0-12.218c0-73.489,0.049-146.979-0.113-220.468
		c-0.011-4.771,1.599-7.242,5.648-9.046c4.671-2.08,9.125-4.672,14.667-7.56c2.298,8.899,4.556,17.146,6.547,25.461
		c3.807,15.879,5.456,31.996,4.479,48.343c-0.208,3.472,0.688,6.476,4.301,6.686c3.478,0.205,4.724-2.438,5.153-5.989
		c1.887-15.626-0.187-30.936-3.311-46.132c-1.954-9.507-4.381-18.921-6.874-28.3c-0.864-3.247,0.142-4.698,2.864-6.132
		c21.934-11.546,43.803-23.223,66.655-35.372c-1.676,4.587-3.033,8.565-4.573,12.466c-4.266,10.8-8.461,21.631-13.006,32.308
		c-1.445,3.393-1.015,5.452,1.7,7.818C432.84,593.102,442.978,602.283,453.552,611.726z"/>
	<path fill-rule="evenodd" clip-rule="evenodd" fill="#FFFFFF" d="M436.305,416.248c11.177-4.059,10.926-4.051,10.636-14.058
		c-0.305-10.578-0.069-21.169-0.069-31.855c-6.115,0-11.869,0.265-17.592-0.059c-9.568-0.542-19.748,1.045-27.759-6.268
		c-3.324-3.034-5.995-6.813-8.507-10.749c14.286,8.802,29.714,11.57,45.855,11.551c20.772-0.022,41.188-1.934,60.234-11.428
		c10.884-5.427,20.094-13.041,28.156-22.252c1.278-1.46,3.756-3.084,5.355-2.789c12.61,2.326,25.15,5.058,37.692,7.757
		c4.413,0.949,6.057,3.553,5.975,8.5c-0.303,17.861-0.109,35.732,0.025,53.6c0.034,4.539,0.543,9.075,0.823,13.452
		c3.642,1.515,6.945,2.889,10.642,4.425c0-9.093,0.385-17.873-0.179-26.589c-0.242-3.771,0.185-6.974,3.473-7.891
		c2.495-0.695,6.49-0.216,8.239,1.463c11.492,11.049,9.021,28.032-5.236,38.729c-0.408,0.306-0.793,0.643-1.134,0.921
		c4.734,21.051-5.773,35.966-27.654,38.924c-3.646,0.494-5.467,1.794-6.948,5.151c-8.078,18.315-21.312,30.33-41.348,32.16
		c-16.068,1.469-30.034-4.249-40.472-17.096c-4.188-5.158-6.998-11.466-10.786-16.996c-1.028-1.501-3.236-2.642-5.074-2.992
		c-10.238-1.955-19.41-5.706-25.663-14.786c-5.256-7.632-5.328-15.742-1.812-24.521c-7.955-4.427-12.597-11.604-13.987-20.826
		c-0.995-6.595-0.083-13.049,5.304-17.453c2.142-1.751,6.296-3.374,8.162-2.374c2.043,1.096,3.335,5.243,3.49,8.142
		C436.595,398.44,436.305,406.881,436.305,416.248z M510.818,441.446c3.634,2.522,7.336,5.025,10.974,7.625
		c6.686,4.781,14.222,7.117,22.228,7.568c12.967,0.732,25.503-1.097,36.316-9.166c5.825-4.345,8.28-10.535,6.901-17.963
		c-1.681-9.042-13.447-13.772-20.545-7.504c1.853,1.097,3.755,1.769,5.019,3.083c1.728,1.798,2.969,4.086,4.419,6.164
		c-2.098,1.412-4.04,3.632-6.316,4.081c-6.808,1.339-11.846-2.645-16.742-6.846c-6.695-5.742-13.838-11.68-23.112-9.872
		c-6.312,1.23-12.165,4.928-18.812,7.774c-6.086-7.564-15.229-10.403-25.276-6.547c-5.677,2.179-10.654,6.562-15.564,10.455
		c-4.598,3.646-9.377,6.369-15.221,5.035c-2.224-0.506-4.567-2.349-5.855-4.282c-0.479-0.721,1.635-3.698,3.04-5.17
		c1.587-1.663,3.708-2.791,6.699-4.946c-3.212-1.152-5.275-2.659-7.146-2.438c-11.542,1.359-17.676,14.517-12.056,21.82
		c2.906,3.778,6.061,7.994,10.061,10.133c12.13,6.487,25.237,7.625,38.654,4.915C498.741,453.291,506.596,447.42,510.818,441.446z
		 M488.873,377.953c0.002-0.072,0.004-0.145,0.006-0.217c0.735,0.078,1.492,0.313,2.201,0.206c3.405-0.514,6.733-1.252,6.907-5.78
		c0.151-3.969-2.155-5.769-5.659-6.362c-2.342-0.396-4.704-1.075-7.04-1.017c-6.738,0.172-13.465,0.726-20.203,0.99
		c-5.113,0.202-9.534,3.052-8.863,6.407c0.924,4.617,4.294,5.972,8.755,5.84C472.936,377.783,480.907,377.953,488.873,377.953z
		 M546.359,377.373c0.004-0.123,0.009-0.246,0.013-0.367c4.443,0.257,8.894,0.81,13.325,0.682c3.441-0.101,7.442-0.36,7.484-5.519
		c0.038-4.752-3.512-5.678-7.035-6.329c-2.712-0.501-5.487-1.036-8.222-0.97c-6.61,0.161-13.304,0.127-19.767,1.313
		c-2.276,0.417-3.976,4.15-5.938,6.37c2.445,1.606,4.727,4.11,7.372,4.613C537.718,377.949,542.091,377.373,546.359,377.373z
		 M512.512,461.769c-4.074,0-8.241-0.525-12.183,0.214c-2.086,0.391-3.778,2.982-5.648,4.581c1.678,1.818,3.263,5.085,5.052,5.206
		c8.295,0.563,16.675,0.629,24.958-0.018c2.018-0.156,3.783-3.685,5.667-5.666c-1.875-1.434-3.608-3.773-5.656-4.114
		C520.732,461.313,516.584,461.78,512.512,461.769z M517.535,414.79c8.098-1.779,7.063-0.167,7.331-11.264
		c0.084-3.534-1.525-4.89-4.517-4.938c-6.618-0.107-13.239-0.033-20.417-0.033c-0.301,4.633-0.863,8.39-0.608,12.09
		c0.085,1.255,2.058,2.787,3.49,3.381c0.865,0.359,3.25-0.634,3.413-1.374c1.568-7.154,6.361-4.188,10.356-4.077
		C516.92,410.779,517.201,412.61,517.535,414.79z M476.139,398.208c5.107-0.188,7.386-2.506,7.37-7.145
		c-0.018-4.635-2.23-6.809-6.764-7.031c-5.005-0.246-6.019,3.546-6.122,6.984C470.511,394.724,472.312,398.006,476.139,398.208z
		 M553.907,391.062c-0.241-4.608-2.105-6.961-6.474-7.008c-5.121-0.054-6.181,3.794-6.298,7.533
		c-0.131,4.162,2.301,6.442,6.769,6.252C552.651,397.638,553.55,394.512,553.907,391.062z"/>
	<path fill-rule="evenodd" clip-rule="evenodd" fill="#FFFFFF" d="M699.166,697.282c5.532,0.636,7.395,2.843,7.868,8.408
		c0.935,10.983,12.481,18.626,23.652,16.758c4.825,9.115,9.674,18.279,15.126,28.582c2.054-3.226,3.447-5.122,4.536-7.184
		c2.438-4.635,4.921-9.26,7.022-14.057c2.585-5.9,5.582-9.9,13.007-7.422c2.187,0.73,5.268-1.345,8.07-2.174
		c0,5.043,0,10.745,0,16.911c-5.461,0.395-10.411,1.167-15.328,0.998c-5.97-0.203-7.065,2.583-5.685,7.962
		c6.776,0.531,13.548,1.061,21.013,1.646c0,4.859,0.323,9.518-0.191,14.078c-0.16,1.419-2.466,3.456-3.995,3.672
		c-3.836,0.539-7.788,0.171-11.693,0.223c-3.165,0.042-5.921,0.506-5.806,4.867c0.107,4.109,2.587,4.362,5.669,4.294
		c5.132-0.117,10.268-0.032,15.579-0.032c0,6.684,0,12.229,0,18.287c-4.36,0-8.231-0.119-12.089,0.048
		c-1.991,0.086-4.355,0.119-5.834,1.202c-1.48,1.086-2.461,3.372-2.815,5.296c-0.106,0.582,2.565,2.383,4.027,2.463
		c5.465,0.303,10.955,0.12,16.821,0.12c0,6.943,0,12.372,0,18.585c-5.246,0.292-10.192,0.839-15.127,0.749
		c-3.444-0.063-5.737,1.418-5.689,4.546c0.021,1.343,2.884,3.492,4.69,3.788c5.079,0.837,10.281,0.901,15.828,1.3
		c0.3,5.77,0.595,11.446,0.944,18.209c-5.984,0-11.229,0.035-16.471-0.013c-3.646-0.033-4.84,1.587-4.277,5.33
		c0.906,6.028-2.579,10.541-8.31,11.911c-1.945,0.465-3.601,2.066-5.52,2.776c-15.781,5.849-29.178-8.349-29.494-22.633
		c-0.797-35.917-0.809-71.852-1.343-107.774c-0.082-5.446-1.277-10.876-1.955-16.315c-0.761-0.028-1.522-0.061-2.282-0.09
		c-0.419,3.303-1.188,6.604-1.202,9.909c-0.115,26.456-0.082,52.909-0.104,79.364c-0.01,12.913-0.003,25.828-0.076,38.742
		c-0.1,17.267,12.382,31.072,28.733,35.598c19.834,5.486,41.743-5.593,48.407-25.187c1.422-4.178,2.126-8.824,2.141-13.258
		c0.148-47.977,0.191-95.954-0.04-143.93c-0.028-5.659,2.919-7.394,7.558-9.737c0.165,2.59,0.374,4.358,0.374,6.128
		c0.017,49.88,0.324,99.764-0.125,149.64c-0.203,22.729-17.151,41.708-39.197,44.804c-23.01,3.229-41.513-5.589-50.791-24.307
		c-3.155-6.366-5.546-13.928-5.613-20.973c-0.475-49.493-0.253-98.995-0.241-148.496
		C698.939,699.77,699.077,698.643,699.166,697.282z M749.599,781.781c-2.271,3.244-4.915,5.472-4.549,6.885
		c0.471,1.814,3.289,3.941,5.225,4.081c1.353,0.099,3.968-2.831,4.087-4.548C754.471,786.612,752.006,784.841,749.599,781.781z
		 M749.321,847.707c2.453-3.111,3.888-4.929,5.323-6.748c-1.844-1.479-3.569-3.831-5.577-4.116
		c-1.227-0.174-3.896,2.725-4.058,4.425C744.862,842.855,747.172,844.687,749.321,847.707z M753.384,808.018
		c-2.711-2.041-4.712-4.576-5.938-4.231c-1.813,0.513-3.078,3.067-4.577,4.754c1.559,1.312,3.087,3.608,4.685,3.661
		C749.121,812.252,750.76,810.021,753.384,808.018z"/>
	<path fill-rule="evenodd" clip-rule="evenodd" fill="#FFFFFF" d="M911.932,590.034c15.084,0.882,30.465,0.167,45.17,3.056
		c17.603,3.458,29.045,17.302,37.205,32.567c16.258,30.41,13.567,60.602-4.837,89.296c-7.53,11.744-17.967,17.926-32.556,17.774
		c-48.175-0.5-96.361-0.188-144.544-0.188c-8.575,0-9.034-0.539-8.067-10.328c2.453,0,4.996,0,7.54,0
		c42.972-0.007,85.942,0.031,128.914-0.068c6.119-0.014,12.324-0.154,18.336-1.183c7.989-1.367,14.809-5.423,17.283-13.856
		c1.845-6.283,0.892-12.995-4.744-16.883c-3.883-2.676-8.979-4.58-13.629-4.81c-12.97-0.637-25.988-0.22-40.094-0.22
		c4.206-2.27,7.558-4.645,11.269-5.943c5.31-1.857,7.211-5.201,6.504-10.701c-0.311-2.409-0.051-4.895-0.051-7.453
		c-4.406-1.031-6.799,0.451-6.664,4.563c0.109,3.396-1.468,4.572-4.233,5.432c-5.809,1.813-11.042,4.353-17.814,3.547
		c-9.069-1.083-18.474,1.1-27.65,0.514c-5.825-0.37-11.574-3.016-17.163-5.17c-0.946-0.365-0.708-3.488-1.39-5.18
		c-0.602-1.485-1.727-2.75-2.619-4.113c-1.325,1.138-3.447,2.039-3.846,3.452c-2.276,8.031,0.066,12.54,7.641,15.851
		c3.383,1.479,6.728,3.048,11.534,5.23c-9.42,0-17.346,0-25.66,0c0-31.138,0-62.423,0-94.03c11.543,0,23.009,0,35.521,0
		c-1.481,1.678-2.523,3.025-3.729,4.2c-9.15,8.916-18.235,17.909-27.552,26.641c-3.871,3.629-3.294,6.354,0.363,9.553
		c13.102,11.454,26.28,22.827,39.048,34.662c3.691,3.426,6.285,3.582,9.735,0.414c12.846-11.797,25.77-23.503,38.577-35.342
		c3.781-3.497,3.485-9.755-0.265-13.268c-9.305-8.714-18.58-17.463-27.866-26.195C911.71,591.247,911.822,590.641,911.932,590.034z"
		/>
	<path fill-rule="evenodd" clip-rule="evenodd" fill="#FFFFFF" d="M821.711,743.965c18.067,0,35.34,0,52.611,0
		c22.126,0,44.248,0,66.375,0c12.14,0,14.52,2.937,9.113,13.771c-9.688,19.423-19.847,38.627-30.552,57.481
		c-7.099,12.495-18.104,18.3-32.803,18.046c-25.632-0.442-51.283,0.19-76.927,0.519c-3.723,0.048-5.89-0.48-4.165-5.132
		c1.088-0.079,2.186-0.137,3.28-0.24c9.149-0.865,13.055-5.278,13.062-14.815c0.012-20.918,0.005-41.838,0.005-62.754
		C821.711,748.776,821.711,746.716,821.711,743.965z"/>
	<path fill-rule="evenodd" clip-rule="evenodd" fill="#FFFFFF" d="M205.566,747.282c0,21.82,0,42.68,0,63.539
		c0,14.625,0.012,14.568,14.007,17.781c1.243,0.287,2.185,1.938,3.267,2.956c-0.321,0.723-0.642,1.445-0.961,2.168
		c-8.887,0-17.773,0.047-26.66-0.009c-19.881-0.127-39.771-0.699-59.643-0.317c-13.105,0.251-22.629-6.186-29.427-16.164
		c-13.765-20.206-25.16-41.888-35.053-65.693c3.053-1.12,5.617-2.853,8.204-2.891c39.478-0.585,78.959-0.953,118.439-1.367
		C199.937,747.264,202.136,747.282,205.566,747.282z"/>
	<path fill-rule="evenodd" clip-rule="evenodd" fill="#FFFFFF" d="M794.16,677.206c-2.787-3.076-5.564-6.012-8.153-9.112
		c-0.559-0.669-0.646-1.947-0.588-2.925c0.515-8.659,1.025-17.322,1.726-25.971c0.341-4.195-1.578-5.658-5.244-4.963
		c-4.495,0.856-8.936,2.018-13.392,3.091c-2.106,0.506-4.19,1.111-6.136,1.632c-5.253-11.099-10.321-21.811-15.392-32.521
		c-0.705-0.011-1.41-0.02-2.115-0.029c-3.404,6.758-6.849,13.494-10.195,20.283c-1.732,3.517-2.441,8.723-5.168,10.234
		c-2.647,1.468-7.28-0.807-11.04-1.436c-11.613-1.945-13.186-0.51-12.631,11.795c0.162,3.604,0.504,7.206,0.936,10.787
		c0.404,3.333,1.039,6.635,1.628,10.311c-2.624,3.09-5.567,6.554-9.17,10.794c0-71.051,0-140.979,0-211.407
		c2.03-0.098,3.969-0.192,6.94-0.335c0,19.438,0,38.508,0,57.938c3.29,0,5.567,0,7.633,0c0-17.4-0.03-34.621,0.024-51.844
		c0.013-3.793,0.726-7.204,5.61-7.197c17.854,0.025,35.71,0.052,53.563-0.025c4.093-0.017,6.094,2.714,6.133,5.963
		c0.25,20.711,0.126,41.424,0.126,61.85c-4.034,0-7.667,0-12.239,0c0-4.976,0.053-9.623-0.03-14.27
		c-0.026-1.466-0.065-4.012-0.688-4.22c-5.687-1.899-3.575-6.627-3.679-10.318c-0.251-8.81-4.49-14.845-12.854-17.595
		c-6.202-2.045-13.629,0.401-17.578,7.218c-2.116,3.651-2.107,8.594-3.055,12.953c-0.613,2.824,1.042,5.91-2.742,8.417
		c-1.615,1.071-0.624,6.409-0.652,9.81c-0.068,7.838-0.026,7.838-7.378,7.851c-10.233,0.016-11.752,1.409-11.586,11.685
		c0.258,15.974,0.696,31.942,1.134,47.914c0.068,2.437,0.546,4.865,0.833,7.299c0.475,0.12,0.948,0.24,1.422,0.361
		c0.359-1.512,0.754-3.017,1.068-4.539c0.397-1.917,0.848-3.833,1.071-5.777c0.798-6.918,1.833-13.833,2.132-20.778
		c0.182-4.164,1.413-5.663,5.552-5.609c14.878,0.187,29.759-0.09,44.635,0.118c15.262,0.214,29.996,14.358,30.195,29.673
		c0.353,27.217,0.071,54.442,0.032,81.665C794.848,676.269,794.532,676.56,794.16,677.206z M769.476,575.539
		c-0.125,0.585-0.25,1.167-0.374,1.751c1.199,1.388,2.326,2.85,3.61,4.149c4.696,4.749,6.901,10.548,6.937,17.224
		c0.054,9.411,0.015,18.823,0.015,27.663c5.96,3.631,7.298,0.57,7.376-3.687c0.161-9.13,0.405-18.283-0.039-27.395
		c-0.4-8.169-4.118-14.896-11.216-19.032C774.102,575.231,771.601,575.723,769.476,575.539z"/>
	<path fill-rule="evenodd" clip-rule="evenodd" fill="#FFFFFF" d="M887.983,848.091c-97.774,107.3-215.528,169.444-358.679,175.525
		c-168.845,7.173-317.111-85.025-391.464-175.503c7.6-2.933,11.973-1.577,17.547,3.719c15.437,14.661,30.517,29.833,46.938,43.269
		c18.58,15.2,37.888,29.653,57.917,42.77c29.376,19.239,61.205,33.693,93.956,45.971c25.179,9.435,50.968,16.751,77.333,21.449
		c17.042,3.033,34.394,4.417,51.658,5.914c11.437,0.99,22.997,1.616,34.443,1.081c18.975-0.886,37.94-2.458,56.842-4.421
		c31.384-3.259,61.794-11.229,91.541-21.73c52.878-18.67,101.065-46.151,145.331-81.142c19.722-15.589,38.255-32.432,55.087-51.145
		C872.18,847.46,878.096,845.302,887.983,848.091z"/>
	<path fill-rule="evenodd" clip-rule="evenodd" fill="#FFFFFF" d="M104.357,653.773c-10.152-0.732-19.505-1.407-29.368-2.119
		c-0.617,11.751,5.546,18.285,12.641,23.537c4.486,3.32,10.292,4.775,15.512,7.052c1.61,0.705,3.242,1.355,4.865,2.029
		c-0.076,0.471-0.154,0.941-0.23,1.409c-8.184,0-16.369-0.001-24.553,0c-5.376,0.001-10.754-0.079-16.129,0.033
		c-8.388,0.173-15.163,5.534-16.581,12.96c-1.716,8.988,2.045,17.036,10.612,19.998c5.84,2.021,12.245,3.213,18.406,3.243
		c44.815,0.24,89.635,0.083,134.453,0.08c2.568,0,5.136,0.25,8.107,0.404c0.083,1.573,0.063,2.855,0.235,4.111
		c0.644,4.7-1.187,6.17-5.876,6.132c-27.526-0.212-55.053-0.104-82.578-0.104c-23.063,0-46.132-0.33-69.185,0.137
		c-12.05,0.244-21.135-4.622-28.084-14.056c-25.338-34.394-24.254-83.813,9.993-115.181c9.253-8.476,20.051-13.072,32.693-12.598
		c4.775,0.178,9.562,0.026,15.126,1.273c-4.589,4.674-8.715,9.997-13.882,13.863c-6.956,5.207-8.075,12.705-1.787,19.062
		c6.581,6.654,13.212,13.263,19.587,20.12C100.678,647.682,102.352,650.858,104.357,653.773z"/>
	<path fill-rule="evenodd" clip-rule="evenodd" fill="#FFFFFF" d="M311.282,737.097c-4.966,0.397-9.733,1.265-14.446,1.03
		c-5.728-0.284-7.476,1.979-5.852,8.337c6.399,0.405,13.154,0.832,20.263,1.282c0,5.55,0,11.111,0,17.927
		c-5.212,0-10.35-0.002-15.486,0.002c-3.101,0.001-6.405,0.116-6.45,4.369c-0.048,4.506,3.321,4.79,6.674,4.772
		c4.971-0.021,9.941-0.004,15.258-0.004c0,6.472,0,11.889,0,17.794c-5.346,0.409-10.81,0.851-16.277,1.243
		c-2.947,0.212-4.971,1.17-4.716,4.791c0.283,4.026,3.056,3.487,5.66,3.614c4.983,0.246,9.959,0.634,15.61,1.006
		c0,5.226,0.272,10.305-0.209,15.309c-0.107,1.119-2.778,2.633-4.398,2.823c-3.857,0.452-7.86-0.197-11.667,0.453
		c-1.779,0.304-3.235,2.586-4.837,3.972c1.484,1.486,2.859,4.089,4.474,4.253c5.286,0.546,10.657,0.206,16.354,0.206
		c0,6.605,0,12.187,0,18.038c-6.551,0.628-12.933,1.238-18.555,1.777c-3.459,3.112,1.926,7.227-2.785,9.971
		c-2.931,1.706-4.301,7.003-7.177,7.86c-5.566,1.66-11.997,2.736-17.535,1.514c-10.709-2.361-16.943-11.373-17.189-23.304
		c-0.573-27.894-0.661-55.796-1.179-83.691c-0.249-13.354-1.163-26.692-1.504-40.045c-0.137-5.331,0.457-10.684,0.766-17.015
		c4.794,6.187,10.204,10.107,17.668,10.296c1.033,0.026,2.262,2.251,2.968,3.68c3.882,7.866,7.594,15.822,11.451,23.704
		c0.78,1.592,1.929,2.994,3.961,6.086c5.361-11.955,10.107-22.542,14.863-33.143c4.374-0.674,9.185-1.414,14.293-2.202
		C311.282,721.188,311.282,729.028,311.282,737.097z M290.052,841.612c-3.37-2.353-5.276-4.651-7.293-4.76
		c-1.447-0.077-3.044,2.776-4.573,4.327c1.597,1.484,3.077,3.958,4.824,4.175C284.735,845.567,286.731,843.498,290.052,841.612z
		 M288.678,787.974c-3.165-1.863-5.214-4.051-6.763-3.728c-1.854,0.387-3.283,2.917-4.896,4.518c1.47,1.381,3.114,4.034,4.369,3.853
		C283.511,792.31,285.386,790.211,288.678,787.974z M285.565,807.846c-3.127-2.046-4.958-4.148-6.775-4.136
		c-1.344,0.01-3.987,3.127-3.704,4.228c0.46,1.791,2.691,3.968,4.455,4.271C280.9,812.441,282.689,810.049,285.565,807.846z"/>
	<path fill-rule="evenodd" clip-rule="evenodd" fill="#FFFFFF" d="M319.171,627.28c0.469-11.635,1.274-22.734,1.304-33.835
		c0.137-51.966,0.056-103.931,0.066-155.897c0.001-6.958,0.235-7.127,7.158-5.989c0,81.867,0,163.761,0,246.45
		c-6.096-4.546-9.289-8.491-7.536-16.448c1.636-7.425,0.367-15.522,0.366-23.323c0-4.952-3.695-4.283-6.381-3.793
		c-5.408,0.994-10.702,2.632-16.37,4.088c-4.943-10.381-10.038-21.08-15.93-33.456c-7.624,11.347-12.178,22.583-17.075,33.679
		c-5.928-1.457-11.572-2.899-17.244-4.222c-5.35-1.245-7.562,0.315-7.278,5.87c0.421,8.265,1.468,16.492,2.045,24.749
		c0.118,1.686-0.191,3.787-1.12,5.083c-2.352,3.283-5.17,6.22-8.958,10.646c0-10.872-0.014-20.085,0.004-29.3
		c0.035-19.224,0.002-38.448,0.164-57.671c0.109-13.171,15.21-29.402,27.268-29.246c13.29,0.174,26.574,0.704,39.862,1.062
		c1.487,0.041,2.995,0.143,4.459-0.059c7.639-1.048,7.45-1.07,7.694,7.082c0.449,15.031,0.892,30.075,1.938,45.068
		C313.816,620.828,312.148,625.889,319.171,627.28z M245.025,623.797c0.467-6.145,0.846-11.088,1.217-16.033
		c0.772-10.313-0.169-21.196,9.426-28.513c0.681-0.52,0.515-2.201,0.744-3.342c-1.154-0.142-2.547-0.782-3.424-0.344
		c-7.375,3.693-11.651,9.971-11.818,18.246c-0.184,9.197,0.643,18.421,1.188,27.623C242.396,622.101,243.728,622.69,245.025,623.797
		z"/>
	<path fill-rule="evenodd" clip-rule="evenodd" fill="#FFFFFF" d="M428.855,651.536c9.008-9.077,17.392-17.398,25.622-25.877
		c3.529-3.633,6.97-7.419,9.953-11.515c0.896-1.229,0.918-4.558-0.028-5.53c-5.991-6.159-12.351-11.947-18.624-17.817
		c-2.602-2.433-5.286-4.778-7.944-7.147c-7.129-6.354-6.981-6.285-3.23-15.436c6.331-15.444,12.449-30.983,18.664-46.479
		c0.303-0.753,0.683-1.475,1.771-2.24c11.571,69.747,32.733,136.787,52.486,204.203c-0.509,0.308-1.018,0.612-1.524,0.917
		C480.564,700.52,455.131,676.426,428.855,651.536z"/>
	<path fill-rule="evenodd" clip-rule="evenodd" fill="#FFFFFF" d="M518.307,723.489c19.484-67.438,41.232-134.291,52.206-204.377
		c1.751,4.213,3.562,8.401,5.24,12.646c5.442,13.752,10.702,27.586,16.342,41.254c1.413,3.424,0.96,5.154-1.806,7.603
		c-9.258,8.195-18.179,16.789-27.17,25.293c-1.744,1.651-3.228,3.593-5.968,6.68c12.946,12.557,25.656,24.883,38.91,37.736
		c-25.679,24.935-50.808,49.341-75.938,73.746C519.516,723.877,518.912,723.685,518.307,723.489z"/>
	<path fill-rule="evenodd" clip-rule="evenodd" fill="#FFFFFF" d="M311.433,533.607c-3.741,0-6.878,0-11.479,0
		c-0.578-9.778-0.917-19.673-1.862-29.505c-0.38-3.96-1.841-7.888-3.311-11.622c-0.626-1.591-2.323-3.307-3.896-3.837
		c-5.219-1.76-5.487-5.741-5.407-10.313c0.112-6.466-0.067-12.937-0.159-19.405c-0.019-1.308,0.173-2.835-0.401-3.871
		c-0.959-1.729-2.25-4.128-3.779-4.47c-2.677-0.597-4.195,1.349-4.278,4.432c-0.219,8.16-0.878,16.318-0.873,24.476
		c0.003,4.136-0.609,6.989-4.729,8.958c-4.839,2.312-7.214,6.989-7.595,12.348c-0.762,10.734-1.227,21.49-1.83,32.5
		c-4.777,0.375-8.929,0.699-13.528,1.059c0-10.844-0.086-21.961,0.019-33.074c0.2-21.487,0.671-42.976,0.647-64.465
		c-0.005-4.829,2.441-6.837,6.03-6.898c16.729-0.285,33.466-0.261,50.195,0c2.951,0.045,6.262,1.153,6.257,5.613
		C311.416,468.038,311.433,500.544,311.433,533.607z"/>
	<path fill-rule="evenodd" clip-rule="evenodd" fill="#FFFFFF" d="M511.031,299.494c26.612-0.507,51.086,2.958,74.466,12.658
		c11.857,4.92,22.82,11.377,31.338,21.539c5.198,6.199,7.112,13.498,7.259,21.394c0.076,4.172-9.36,14.757-13.222,15.202
		c-3.832,0.442-7.685-3.438-6.6-7.131c3.629-12.351-2.394-20.634-11.421-26.875c-12.794-8.844-27.478-13.451-42.53-15.979
		c-12.152-2.042-24.567-3.314-36.872-3.354c-25.768-0.084-51.033,3.927-74.477,15.443c-6.262,3.076-11.645,8.579-16.504,13.862
		c-2.422,2.633-3.999,3.968-7.271,2.698c-0.84-0.326-1.938-0.018-2.732-0.403c-3.21-1.558-8.631-2.888-8.975-5.022
		c-0.506-3.141,1.971-7.474,4.326-10.287c10.849-12.954,25.55-19.548,41.001-24.546
		C469.538,301.991,490.757,298.618,511.031,299.494z"/>
	<path fill-rule="evenodd" clip-rule="evenodd" fill="#FFFFFF" d="M942.946,583.793c-1.734,0-3.187,0-5.085,0
		c-0.405-2.887-1.041-5.635-1.138-8.401c-0.422-11.89-8.828-23.122-20.148-26.626c-3.816,3.827-0.623,5.884,1.991,8.017
		c8.428,6.872,11.75,14.435,11.068,26.737c-10.247-0.864-20.734,3.585-30.799-2.838c-1.1-0.702-3.208,0.038-4.789,0.389
		c-3.444,0.765-6.822,2.29-10.278,2.464c-7.549,0.384-15.132,0.119-23.802,0.119c0-6.865,0-12.834,0-19.834
		c-6.608,3.926-5.982,9.227-5.857,14.099c0.116,4.487-0.848,7.21-5.959,5.836c-4.086-17.541,5.018-35.774,21.74-41.719
		c5.49-1.952,7.137-4.537,6.611-10.065c-0.465-4.898-0.157-9.881-0.072-14.824c0.074-4.305,1.418-6.838,6.551-6.482
		c7.578,0.523,15.216,0.229,22.828,0.212c5.785-0.013,8.13,2.87,7,8.715c-0.279,1.46-0.488,2.937-0.68,4.412
		c-1.285,9.826,0.285,16.366,11.659,20.086C938.433,548.872,944.852,564.647,942.946,583.793z"/>
	<path fill-rule="evenodd" clip-rule="evenodd" fill="#FFFFFF" d="M586.192,277.558c-69.608-19.681-107.669-10.091-147.333-0.1
		c0-5.182-0.836-10.452,0.258-15.262c0.913-4.012,3.256-9.412,6.415-10.84c10.13-4.583,20.72-8.594,31.521-11.013
		c18.517-4.146,37.508-4.95,56.284-2.293c13.013,1.841,25.956,4.975,38.561,8.81c10.124,3.081,16.04,10.439,14.349,22.306
		C585.876,271.757,586.192,274.452,586.192,277.558z"/>
	<path fill-rule="evenodd" clip-rule="evenodd" fill="#FFFFFF" d="M146.417,509.786c0,8.695,0.126,15.72-0.042,22.735
		c-0.115,4.814,1.632,7.971,6.35,9.108c18.151,4.382,25.105,22.479,24.995,38.103c-0.025,3.658-1.383,4.855-5.072,4.019
		c-1.275-5.56-2.042-11.532-4.102-16.996c-1.473-3.899-4.359-7.441-7.277-10.472c-1.145-1.189-4.098-0.552-6.227-0.748
		c0.456,1.733,0.48,3.779,1.437,5.146c6.728,9.616,8.46,14.788,7.184,22.885c-6.677,1.37-12.396,0.673-17.139-5.504
		c-4.568-5.945-10.08-11.133-15.207-16.625c-3.202-3.431-6.283-3.359-9.45,0.225c-4.975,5.629-10.508,10.804-15.016,16.794
		c-3.987,5.296-8.624,6.497-15.098,5.03c0-3.211-0.092-6.58,0.028-9.944c0.105-2.892,0.455-5.773-0.153-8.794
		c-7.477,4.44-6.238,11.796-6.824,18.848c-2.031,0-3.923,0-5.795,0c-1.922-18.324,6.69-36.492,24.707-41.887
		c5.355-1.603,7.861-4.062,7.113-10.184c-0.665-5.433-0.462-11.05,0.047-16.52c0.172-1.845,2.4-4.931,3.784-4.986
		C125.099,509.594,135.561,509.786,146.417,509.786z"/>
	<path fill-rule="evenodd" clip-rule="evenodd" fill="#FFFFFF" d="M328.127,694.863c0,6.795-0.008,12.642,0.001,18.484
		c0.071,43.771,0.43,87.544-0.022,131.308c-0.088,8.6-1.821,17.875-5.355,25.616c-10.898,23.874-41.622,32.782-65.048,20.027
		c-18.04-9.824-25.647-25.46-25.575-45.908c0.179-49.679,0.147-99.356,0.2-149.036c0.002-1.432,0.001-2.863,0.001-4.974
		c6.123,4.559,9.299,8.939,9.179,16.745c-0.708,45.891-0.398,91.796-1.115,137.685c-0.462,29.555,21.547,45.184,44.36,42.956
		c20.611-2.014,35.728-17.425,35.76-38.781c0.073-47.59,0.133-95.18-0.121-142.769C320.361,700.457,322.835,697.676,328.127,694.863
		z"/>
	<path fill-rule="evenodd" clip-rule="evenodd" fill="#FFFFFF" d="M338.48,844.505c0-3.766,0-6.73,0-10.393
		c116.82,0,233.284,0,349.62,0c1.819,10.036,1.541,10.392-7.6,10.392c-111.798,0.003-223.595,0.001-335.393,0.001
		C343.093,844.505,341.081,844.505,338.48,844.505z"/>
	<path fill-rule="evenodd" clip-rule="evenodd" fill="#FFFFFF" d="M633.998,341.412c-11.048-22.499-29.495-34.501-50.616-42.716
		c-16.211-6.308-33.13-10.153-50.558-10.53c-15.364-0.332-30.865-1.335-46.085,0.219c-28.869,2.948-56.451,10.886-79.508,30.12
		c-5.891,4.915-10.326,11.657-15.337,17.449c-0.812-7.675,2.669-14.644,7.796-20.822c12.156-14.651,28.661-22.185,45.91-28.015
		c20.084-6.789,40.899-10.192,62.015-10.273c33.889-0.13,66.891,4.74,97.217,21.635c9.358,5.214,17.698,11.829,23.62,21.071
		C632.472,325.823,634.807,332.725,633.998,341.412z"/>
	<path fill-rule="evenodd" clip-rule="evenodd" fill="#FFFFFF" d="M167.989,614.503c-14.166,19.361-27.724,37.889-41.328,56.479
		c-3.005-4.579-6.881-9.622-9.84-15.176c-6.916-12.982-16.151-23.96-26.78-33.772c-3.554-3.28-5.057-5.578-0.903-9.989
		c12.485-13.257,24.479-27.004,37.36-41.335C140.69,585.688,154.693,600.468,167.989,614.503z M139.942,600.814
		c0.057-8.751-6.811-13.613-11.963-14.425c-4.646-0.734-12.571,3.892-13.223,9.072c-0.646,5.136-3.412,6.417-7.121,8.344
		c-5.17,2.682-6.555,7.927-5.806,13.539c0.635,4.761,3.758,7.786,8.14,8.843c5.008,1.211,8.831-0.721,11.596-5.461
		c1.408-2.414,3.958-4.129,6.562-6.729c3.304,7.669,6.809,14.432,15.631,11.716c4.778-1.469,7.937-5.462,8.195-10.95
		C152.243,608.603,147.995,603.734,139.942,600.814z M136.106,640.685c-0.735-4.217-7.028-10.927-9.764-9.493
		c-3.186,1.669-5.971,5.218-7.578,8.619c-1.208,2.558,6,10.225,8.309,8.979C130.519,646.934,133.136,643.467,136.106,640.685z"/>
	<path fill-rule="evenodd" clip-rule="evenodd" fill="#FFFFFF" d="M466.48,487.152c27.128,29.178,64.222,30.541,91.907,0.312
		c0,7.034,0.469,13.17-0.234,19.16c-0.274,2.334-2.79,4.983-4.966,6.396c-11.967,7.784-24.03,15.435-36.358,22.597
		c-2.188,1.271-6.313,1.049-8.617-0.23c-10.938-6.073-21.626-12.631-32.262-19.258c-6.958-4.335-12.236-9.656-9.592-19.321
		C467.145,493.932,466.48,490.637,466.48,487.152z"/>
	<path fill-rule="evenodd" clip-rule="evenodd" fill="#FFFFFF" d="M605.078,778.815c0,14.498,0,28.926,0,43.66
		c-2.064,0-3.809,0-6.479,0c0-6.245,0.011-12.297-0.002-18.349c-0.038-16.357,0.008-32.718-0.164-49.077
		c-0.094-9.008,2.828-16.467,10.488-21.133c6.779-4.129,7.756-10.946,8.985-18.126c4.564,0,8.951,0,14.065,0
		c-1.828,9.369,4.007,14.705,10.184,19.705c6.812,5.521,9.129,12.485,8.927,21.363c-0.461,20.346-0.102,40.713-0.098,61.07
		c0,1.496-0.163,2.993-0.255,4.551c-4.161,1.303-5.479-0.253-5.43-4.302c0.144-11.797,0.07-23.598,0.041-35.397
		c-0.015-5.532-2.812-7.558-7.919-5.879c-0.762,0.25-1.715,0.584-2.381,0.331c-9.144-3.47-18.009,2.061-27.077,0.839
		C607.141,777.961,606.23,778.5,605.078,778.815z M644.73,763.143c1.983-10.108,0.834-18.575-7.688-24.991
		c-3.599-2.71-6.235-6.723-9.5-9.946c-2.293-2.265-4.626-2.393-6.715,0.645c-1.977,2.873-3.684,6.428-6.426,8.179
		c-9.948,6.354-11.828,15.128-8.711,26.114C618.564,763.143,631.492,763.143,644.73,763.143z"/>
	<path fill-rule="evenodd" clip-rule="evenodd" fill="#FFFFFF" d="M932.712,624.966c-12.331,11.316-23.9,21.932-35.641,32.707
		c-11.813-10.33-23.476-20.525-35.867-31.357c12.009-11.58,23.805-22.956,35.891-34.61
		C909.078,602.896,920.77,613.815,932.712,624.966z M878.64,623.108c0.023,0.843,0.047,1.683,0.069,2.524
		c4.067,2.504,7.904,5.587,12.25,7.389c8.961,3.712,19.798-0.501,22.617-8.35c0.406-1.129,0.297-3.055-0.398-3.896
		c-4.889-5.912-12.237-5.739-18.356-5.131C889.243,616.199,884.02,620.474,878.64,623.108z"/>
	<path fill-rule="evenodd" clip-rule="evenodd" fill="#FFFFFF" d="M847.828,694.855c12.136,0,24.342-0.216,36.526,0.229
		c1.864,0.068,3.85,2.992,5.39,4.92c5.104,6.39,7.122,6.795,11.838,0.431c3.554-4.8,7.641-6.015,13.244-5.796
		c13.894,0.54,27.812,0.417,41.717,0.706c2.325,0.049,5.426,0.04,6.762,1.45c1.822,1.927,3.372,5.355,3.009,7.826
		c-0.293,1.978-3.456,4.678-5.621,4.981c-6.729,0.941-13.588,1.069-20.402,1.195c-22.998,0.433-45.999,0.81-69.001,1.013
		c-5.16,0.045-10.377-0.383-15.479-1.18C850.266,709.764,846.979,703.118,847.828,694.855z"/>
	<path fill-rule="evenodd" clip-rule="evenodd" fill="#FFFFFF" d="M176.187,710.831c-35.793,0-71.033,0.046-106.271-0.042
		c-6.669-0.016-9.358-2.433-9.45-7.577c-0.086-4.822,3.877-8.32,9.827-8.35c14.485-0.073,28.974-0.173,43.453,0.146
		c2.015,0.043,4.656,1.907,5.856,3.724c5.707,8.641,10.104,8.807,14.764-0.325c1.588-3.114,3.484-3.698,6.419-3.668
		c10.579,0.107,21.164,0.278,31.736,0.003c4.366-0.114,5.711,1.599,5.14,5.661C177.194,703.713,176.726,707.023,176.187,710.831z"/>
	<path fill-rule="evenodd" clip-rule="evenodd" fill="#FFFFFF" d="M368.752,823.605c-0.081-1.66-0.233-3.348-0.234-5.032
		c-0.008-22.848,0.121-45.694-0.085-68.538c-0.039-4.442,1.175-6.097,5.568-6.075c31.795,0.152,63.589,0.117,95.384,0.219
		c5.747,0.021,6.204,0.94,4.9,8.704c-33.102,0-66.303,0-100.269,0c0,2.347,0.002,4.147-0.001,5.951
		c-0.033,19.794-0.053,39.59-0.117,59.386C373.888,821.441,373.599,824.587,368.752,823.605z"/>
	<path fill-rule="evenodd" clip-rule="evenodd" fill="#FFFFFF" d="M464.847,823.128c-9.896,0-18.802,0-27.966,0
		c0-15.152,0-29.686,0-44.554c9.349,0,18.526,0,27.966,0C464.847,793.25,464.847,807.773,464.847,823.128z"/>
	<path fill-rule="evenodd" clip-rule="evenodd" fill="#FFFFFF" d="M742.901,457.197c-15.44,0-30.88,0-46.318-0.001
		c-1.302-0.001-2.883,0.453-3.845-0.138c-1.838-1.128-3.32-2.857-4.952-4.338c1.692-1.607,3.273-4.422,5.1-4.603
		c6.454-0.638,12.993-0.429,19.497-0.44c24.92-0.04,49.836-0.055,74.753-0.037c2.784,0.001,5.633-0.041,8.323,0.549
		c1.443,0.317,3.784,2.108,3.67,2.935c-0.254,1.816-1.455,4.011-2.937,4.985c-1.543,1.015-3.873,1.038-5.859,1.046
		C774.521,457.229,758.71,457.197,742.901,457.197z"/>
	<path fill-rule="evenodd" clip-rule="evenodd" fill="#FFFFFF" d="M382.193,778.404c6.022,0,11.547,0,17.858,0
		c0,14.879,0,29.623,0,44.435c-6.303,0-11.949,0-17.858,0C382.193,808.027,382.193,793.501,382.193,778.404z"/>
	<path fill-rule="evenodd" clip-rule="evenodd" fill="#FFFFFF" d="M733.391,438.48c1.572-14.892,3.186-29.248,4.541-43.629
		c0.366-3.884,1.116-7.654,5.328-7.897c4.352-0.25,6.44,3.414,6.915,7.409c1.646,13.823,3.059,27.676,4.521,41.521
		c0.075,0.707-0.204,1.453-0.385,2.597C747.08,438.48,739.928,438.48,733.391,438.48z"/>
	<path fill-rule="evenodd" clip-rule="evenodd" fill="#FFFFFF" d="M357.466,354.834c-2.326,1.816-3.642,3.56-5.294,4.011
		c-8.849,2.415-15.011,7.448-17.519,16.807c-0.397,1.481-2.249,2.553-3.428,3.814c-0.92-1.226-2.31-2.32-2.685-3.703
		c-2.53-9.344-8.767-14.392-17.591-16.857c-1.428-0.399-3.718-2.308-3.552-2.998c0.407-1.679,1.819-4.101,3.184-4.377
		c9.37-1.903,14.626-7.917,17.664-16.749c0.481-1.401,2.399-2.285,3.654-3.407c0.942,1.209,2.315,2.275,2.757,3.653
		c2.738,8.559,8.076,14.127,16.713,16.405C353.163,351.906,354.732,353.273,357.466,354.834z M340.729,354.734
		c-3.908-2.62-6.958-5.807-10.485-6.524c-1.652-0.335-6.329,4.594-5.952,6.262c0.792,3.496,4.026,6.412,6.268,9.581
		C334.228,360.691,336.926,358.218,340.729,354.734z"/>
	<path fill-rule="evenodd" clip-rule="evenodd" fill="#FFFFFF" d="M538.075,577.467c4.25-3.777,7.971-7.085,11.69-10.395
		c0.357,0.2,0.715,0.398,1.071,0.598c-5.116,20.48-10.229,40.961-15.343,61.441c-0.562-0.003-1.124-0.008-1.685-0.011
		c-1.131-6.635-2.279-13.267-3.392-19.905c-1.91-11.414-3.298-22.955-5.939-34.187c-1.076-4.576,0.496-5.67,3.367-6.8
		C531.35,571.38,534.729,574.438,538.075,577.467z"/>
	<path fill-rule="evenodd" clip-rule="evenodd" fill="#FFFFFF" d="M691.016,329.126c1.6,3.623,2.606,5.939,3.64,8.243
		c3.041,6.784,7.271,12.05,14.928,13.815c1.866,0.431,3.315,2.759,4.956,4.213c-1.593,1.479-2.983,3.835-4.815,4.284
		c-8.045,1.967-13.29,6.505-15.59,14.786c-0.52,1.873-2.448,3.337-3.729,4.989c-1.031-1.598-2.491-3.06-3.028-4.815
		c-2.635-8.639-8.803-13.056-16.776-15.714c-1.541-0.513-2.696-2.237-4.029-3.403c1.309-1.475,2.411-3.923,3.957-4.262
		c8.676-1.9,13.776-7.269,16.413-15.704C687.543,333.643,689.125,332.048,691.016,329.126z M691.386,344.98
		c-3.953,4.266-6.752,7.288-10.438,11.264c4.249,2.587,7.384,5.615,10.878,6.136c1.653,0.247,5.806-4.477,5.599-6.624
		C697.105,352.424,694.028,349.369,691.386,344.98z"/>
	<path fill-rule="evenodd" clip-rule="evenodd" fill="#FFFFFF" d="M504.046,545.323c-4.985,5.475-9.81,10.66-14.496,15.973
		c-2.007,2.276-3.801,2.857-5.922,0.282c-0.473-0.572-1.048-1.123-1.687-1.473c-14.967-8.188-11.584-24.127-16.255-37.862
		C479.034,530.274,491.17,537.575,504.046,545.323z"/>
	<path fill-rule="evenodd" clip-rule="evenodd" fill="#FFFFFF" d="M538.57,564.556c-6.31-6.991-11.789-13.06-17.609-19.508
		c12.574-7.398,24.749-14.564,37.756-22.218c-1.46,7.416-3.629,14.395-4.04,21.478C554.037,555.299,543.93,557.048,538.57,564.556z"
		/>
	<path fill-rule="evenodd" clip-rule="evenodd" fill="#FFFFFF" d="M489.551,627.36c-5.039-19.779-10.077-39.558-15.115-59.337
		c0.309-0.271,0.619-0.541,0.929-0.811c2.093,1.73,4.315,3.32,6.252,5.218c5.228,5.119,6.305,5.189,11.391,0.15
		c0.267-0.263,0.473-0.641,0.788-0.801c1.511-0.77,3.049-1.483,4.578-2.217c0.618,1.8,1.964,3.707,1.728,5.384
		c-0.992,7.045-2.501,14.013-3.739,21.024c-1.823,10.332-3.576,20.677-5.358,31.017C490.519,627.11,490.035,627.235,489.551,627.36z
		"/>
	<path fill-rule="evenodd" clip-rule="evenodd" fill="#FFFFFF" d="M185.9,693.919c12.133,0,23.947,0,36.083,0
		c0,6.36,0,12.502,0,18.922c-12.03,0-23.843,0-36.083,0C185.9,706.748,185.9,700.603,185.9,693.919z"/>
	<path fill-rule="evenodd" clip-rule="evenodd" fill="#FFFFFF" d="M716.278,554.305c-1.974-9.034-1.175-10.122,6.704-10.136
		c14.828-0.022,29.658-0.184,44.484-0.039c2.393,0.022,5.607,0.588,6.985,2.205c2.938,3.447,0.326,7.901-4.491,7.928
		C752.171,554.367,734.378,554.305,716.278,554.305z"/>
	<path fill-rule="evenodd" clip-rule="evenodd" fill="#FFFFFF" d="M290.438,533.434c-6.526,0-12.532,0-19.025,0
		c0.831-10.922,1.299-21.626,2.752-32.188c0.277-2.021,4.353-4.669,6.825-4.847c2.236-0.161,6.496,2.411,6.729,4.204
		C289.12,511.365,289.615,522.249,290.438,533.434z"/>
	<path fill-rule="evenodd" clip-rule="evenodd" fill="#FFFFFF" d="M251.699,554.109c-0.751-8.881,0.246-10.08,7.908-10.081
		c15.397-0.003,30.797-0.016,46.195,0.007c5.098,0.008,7.245,2.951,5.671,8.008c-0.282,0.907-1.841,2.179-2.587,2.038
		c-17.685-3.332-35.323,0.076-52.974,0.217C254.636,554.309,253.36,554.189,251.699,554.109z"/>
	<path fill-rule="evenodd" clip-rule="evenodd" fill="#FFFFFF" d="M409.642,778.516c5.654,0,11.528,0,17.401,0
		c0.258,0.547,0.518,1.093,0.776,1.637c-1.608,0.887-3.217,2.518-4.824,2.514c-4.139-0.007-4.542,2.333-4.248,5.549
		c0.117,1.271,0.197,2.545,0.354,4.604c1.678,0.43,4.554,1.169,8.107,2.083c-2.744,3.166-10.152-0.855-8.209,6.916
		c2.104,0.28,4.228,0.564,6.351,0.848c0.133,0.478,0.267,0.954,0.401,1.429c-1.291,0.523-2.635,0.94-3.857,1.596
		c-1.262,0.677-2.405,1.584-3.601,2.392c1.236,0.716,2.4,1.681,3.727,2.077c1.351,0.407,2.862,0.256,4.304,0.351
		c0.131,0.484,0.265,0.972,0.397,1.455c-2.33,0.784-4.659,1.567-7.246,2.438c-0.856,4.445-0.754,4.538,6.578,5.362
		c-0.794,3.561-1.06,3.609-16.411,2.8C409.642,808.125,409.642,793.616,409.642,778.516z"/>
	<path fill-rule="evenodd" clip-rule="evenodd" fill="#FFFFFF" d="M561.107,765.653c1.232-7.889,2.51-16.062,3.863-24.728
		c1.115,0,3.025,0,4.953,0c1.804,10.214,1.804,10.214,8.873,9.545c2.048-10.266,2.048-10.266,9.598-9.529
		c0,7.432,0.135,14.931-0.191,22.406c-0.036,0.831-2.685,2.163-4.146,2.202C575.96,765.766,567.857,765.653,561.107,765.653z"/>
	<path fill-rule="evenodd" clip-rule="evenodd" fill="#FFFFFF" d="M734.508,534.88c0.296-3.431-0.33-6.706,0.937-8.763
		c3.105-5.036,2.366-10.367,2.591-15.704c0.085-2.058,0.555-4.1,0.83-6.149c0.602-4.52,2.733-7.485,7.565-7.03
		c4.884,0.459,6.633,4.116,7.137,8.494c0.28,2.427-0.137,4.936,0.099,7.376c0.381,3.975-0.966,7.813,2.943,11.664
		c4.056,3.997,0.479,10.007-5.318,10.096C745.975,534.945,740.655,534.88,734.508,534.88z M749.154,522.104
		c0-4.614,0.287-8.611-0.143-12.525c-0.17-1.543-1.941-2.899-2.985-4.341c-0.997,1.322-2.669,2.55-2.866,3.989
		c-0.579,4.212-0.57,8.511-0.796,12.877C744.967,522.104,746.762,522.104,749.154,522.104z"/>
	<path fill-rule="evenodd" clip-rule="evenodd" fill="#FFFFFF" d="M628.353,457.432c-1.99-0.166-3.981-0.332-6.31-0.528
		c0.828-4.028,2.863-6.231,6.896-6.623c5.202-0.505,9.429,0.716,12.322,6.437c-2.139,0.269-3.832,0.482-7.437,0.937
		c2.313,2.219,3.443,3.918,5.008,4.694c5.539,2.75,6.825,5.895,4.303,11.601c-1.84,4.165-8.005,7.729-12.208,7.063
		c-6.124-0.973-10.912-5.541-11.254-10.674c-0.251-3.782,0.573-6.589,4.741-7.79c1.793-0.515,3.203-2.422,4.785-3.696
		C628.918,458.379,628.635,457.907,628.353,457.432z"/>
	<path fill-rule="evenodd" clip-rule="evenodd" fill="#FFFFFF" d="M837.063,695.802c0,4.839,0,9.671,0,15.327
		c-10.565,0-20.881,0-31.644,0c-0.337-5.171-0.637-9.769-0.998-15.327C814.931,695.802,825.646,695.802,837.063,695.802z"/>
	<path fill-rule="evenodd" clip-rule="evenodd" fill="#FFFFFF" d="M385.829,457.257c-1.937-0.087-3.874-0.174-5.811-0.261
		c-0.292-0.578-0.585-1.152-0.879-1.73c3.209-1.981,6.294-5.282,9.66-5.615c4.342-0.431,8.421,2.217,10.079,6.5
		c-1.89,0.489-3.75,0.971-5.612,1.453c1.376,1.559,2.472,3.677,4.179,4.576c5.627,2.966,6.388,9.184,1.67,14.601
		c-3.648,4.188-8.665,4.237-12.787,2.848c-3.103-1.046-5.96-4.723-7.619-7.933c-2.179-4.218-0.609-7.786,4.241-9.537
		c1.524-0.549,2.65-2.251,3.958-3.427C386.55,458.24,386.188,457.748,385.829,457.257z"/>
	<path fill-rule="evenodd" clip-rule="evenodd" fill="#FFFFFF" d="M371.955,544.874c-3.41-9.716-9.163-15.72-19.907-17.99
		c5.467-3.43,9.701-5.114,12.563-8.152c2.903-3.084,4.453-7.506,7.595-12.022c2.205,10.103,8.44,15.987,17.864,19.511
		C381.375,529.803,374.562,534.65,371.955,544.874z"/>
	<path fill-rule="evenodd" clip-rule="evenodd" fill="#FFFFFF" d="M650.967,544.727c-3.92-8.464-8.458-15.538-18.261-17.94
		c8.083-4.981,15.811-9.379,17.669-20.25c3.591,9.585,8.915,16.329,18.385,19.688C659.659,529.787,654.069,535.563,650.967,544.727z
		"/>
	<path fill-rule="evenodd" clip-rule="evenodd" fill="#FFFFFF" d="M900.958,480.957c-4.741,0-8.755,0-13.35,0
		c0-10.427-0.209-20.645,0.109-30.843c0.12-3.851,2.515-7.144,6.649-6.942c4.147,0.205,6.604,3.01,6.597,7.576
		C900.948,460.616,900.958,470.484,900.958,480.957z"/>
	<path fill-rule="evenodd" clip-rule="evenodd" fill="#FFFFFF" d="M121.854,481.166c0-10.699-0.418-20.587,0.258-30.397
		c0.2-2.894,3.114-7.414,5.45-7.914c3.712-0.792,7.186,2.935,7.412,6.873c0.544,9.464,0.316,18.983,0.094,28.472
		c-0.025,1.015-1.984,2.67-3.197,2.831C128.802,481.44,125.646,481.166,121.854,481.166z"/>
	<path fill-rule="evenodd" clip-rule="evenodd" fill="#FFFFFF" d="M464.674,762.534c-0.135,2.01-0.244,3.624-0.366,5.423
		c-18.866,0-37.396,0-55.926,0c-7.249,0-14.498-0.121-21.741,0.048c-3.883,0.091-4.747-1.772-4.11-5.471
		C409.715,762.534,436.783,762.534,464.674,762.534z"/>
	<path fill-rule="evenodd" clip-rule="evenodd" fill="#FFFFFF" d="M177.28,620.796c0,10.469,0,20.938,0,30.578
		c-8.876,0.68-17.637,1.353-26.855,2.062C156.449,640.884,168.593,632.509,177.28,620.796z"/>
	<path fill-rule="evenodd" clip-rule="evenodd" fill="#FFFFFF" d="M127.414,499.468c-6.667,0-13.349,0.256-19.991-0.172
		c-1.73-0.112-4.475-2.133-4.748-3.655c-0.541-3.008,1.191-5.333,4.793-5.322c13.705,0.04,27.41-0.009,41.114,0.033
		c3.453,0.01,6.201,1.712,5.366,5.392c-0.36,1.587-3.475,3.438-5.433,3.558C141.504,499.729,134.451,499.468,127.414,499.468z"/>
	<path fill-rule="evenodd" clip-rule="evenodd" fill="#FFFFFF" d="M893.946,499.463c-6.86,0.005-13.721-0.033-20.58,0.024
		c-2.646,0.022-5.43-0.331-4.582-3.746c0.504-2.039,2.788-5.11,4.342-5.152c14.267-0.395,28.55-0.369,42.817-0.004
		c1.367,0.035,3.369,3.082,3.7,4.981c0.177,1.021-2.521,3.629-4.015,3.712C908.419,499.675,901.178,499.457,893.946,499.463z"/>
	<path fill-rule="evenodd" clip-rule="evenodd" fill="#FFFFFF" d="M353.288,400.173c7.918-4.101,13.567-9.134,15.75-16.6
		c5.451,5.883,10.427,11.256,15.944,17.21c-6.371,2.716-11.897,7.74-14.697,16.002C366.396,409.251,362.323,402.546,353.288,400.173
		z"/>
	<path fill-rule="evenodd" clip-rule="evenodd" fill="#FFFFFF" d="M652.294,385.205c4.456,4.034,9.288,8.249,13.867,12.733
		c0.685,0.67,0.503,3.708,0.175,3.81c-7.178,2.233-9.902,8.465-12.894,14.508c-0.206,0.417-0.866,0.6-1.641,1.104
		c-1.476-3.292-2.408-6.836-4.446-9.491c-1.81-2.356-4.706-3.989-7.378-5.451c-2.354-1.29-3.377-2.458-1.143-4.592
		C643.496,393.375,648.229,389.007,652.294,385.205z"/>
	<path fill-rule="evenodd" clip-rule="evenodd" fill="#FFFFFF" d="M627.46,680.058c-0.895,3.4,0.235,6.896,4.175,9.439
		c1.141,0.736,1.945,2.256,2.547,3.587c2.906,6.411,1.536,8.333-5.082,7.913c-3.779-0.239-8.046-0.924-11.28,0.513
		c-3.656,1.623-4.215-0.493-3.756-2.347c0.892-3.599,1.996-7.836,4.485-10.142c2.88-2.67,3.632-5.146,3.394-8.652
		c-0.166-2.457-0.266-4.971,0.082-7.386c0.171-1.161,1.449-2.151,2.225-3.219c1.071,0.994,2.752,1.816,3.071,3.019
		C627.839,674.726,627.46,676.92,627.46,680.058z"/>
	<path fill-rule="evenodd" clip-rule="evenodd" fill="#FFFFFF" d="M419.477,719.048c-4.738,1.211-9.181-0.738-6.485,6.646
		c0.803,2.197-1.566,5.61-2.687,9.098c-0.937,0.17-3.102,0.561-5.754,1.039c-0.486-3.84-0.69-7.604-1.556-11.203
		c-0.326-1.356-2.18-2.328-3.337-3.476c-1.07,1.21-2.827,2.293-3.068,3.655c-0.488,2.763,0.008,5.693-0.253,8.52
		c-0.09,0.975-1.221,1.85-1.877,2.77c-0.825-0.937-2.289-1.822-2.362-2.817c-0.278-3.779-0.391-7.623-0.031-11.389
		c0.447-4.698,3.158-7.631,7.956-7.567c4.994,0.066,10.025,0.281,14.948,1.045C416.616,715.621,417.981,717.769,419.477,719.048z"/>
	<path fill-rule="evenodd" clip-rule="evenodd" fill="#FFFFFF" d="M177.466,661.591c0,7.741,0,15.482,0,23.664
		c-10.657,0-21.139,0-31.621,0C157.28,678.934,171.444,676.047,177.466,661.591z"/>
	<path fill-rule="evenodd" clip-rule="evenodd" fill="#FFFFFF" d="M313.303,679.387c2.976,2.298,5.688,4.392,8.632,6.667
		c-5.466,5.565-10.455,10.897-15.719,15.927c-4.531,4.33-7.471,4.172-9.97,0.039c-1.822-3.011-1.822-4.901,1.653-7.29
		c4.573-3.14,8.304-7.575,12.336-11.519C311.254,682.215,312.044,680.974,313.303,679.387z"/>
	<path fill-rule="evenodd" clip-rule="evenodd" fill="#FFFFFF" d="M561.525,822.575c-2.029,0-3.461,0-5.182,0
		c0-15.511,0-30.817,0-46.118c3.513-1.252,5.162,0.049,5.169,3.539C561.542,794.028,561.525,808.059,561.525,822.575z"/>
	<path fill-rule="evenodd" clip-rule="evenodd" fill="#FFFFFF" d="M760.486,674.015c1.714,7.285,0.08,12.431-4.691,15.708
		c-5.195,3.57-15.663,3.379-20.337-0.37c-3.961-3.178-5.827-9.556-4.033-14.793c4.187,5.026,6.876,11.636,14.876,11.332
		C754.005,685.6,756.286,678.884,760.486,674.015z"/>
	<path fill-rule="evenodd" clip-rule="evenodd" fill="#FFFFFF" d="M240.774,685.019c1.848-2.104,3.695-4.208,5.784-6.585
		c4.595,5.131,8.876,10.001,13.271,14.762c1.103,1.195,2.433,2.384,3.891,2.981c2.702,1.104,4.634,2.737,2.153,5.253
		c-1.446,1.466-4.367,2.237-6.449,1.958c-1.69-0.228-3.333-2.305-4.623-3.882c-4.28-5.239-8.393-10.621-12.567-15.949
		C241.747,684.045,241.26,684.53,240.774,685.019z"/>
	<path fill-rule="evenodd" clip-rule="evenodd" fill="#FFFFFF" d="M281.389,728.954c-2.918-5.461-5.333-9.671-7.443-14.036
		c-1.336-2.767-3.723-6.583-0.191-8.455c2.372-1.257,6.224,0.169,9.355,0.74c2.214,0.406,4.327,1.388,7.388,2.414
		C287.875,715.186,284.829,721.651,281.389,728.954z"/>
	<path fill-rule="evenodd" clip-rule="evenodd" fill="#FFFFFF" d="M297.741,678.684c-0.027,8.861-11.685,13.645-18.548,12.718
		c-8.273-1.119-15.024-7.073-15.108-14.146C275.032,686.262,286.234,687.051,297.741,678.684z"/>
	<path fill-rule="evenodd" clip-rule="evenodd" fill="#FFFFFF" d="M177.454,591.236c0,6.174,0,11.812,0,18.064
		c-5.729-6.604-11.085-12.782-15.667-18.064C165.518,591.236,171.288,591.236,177.454,591.236z"/>
	<path fill-rule="evenodd" clip-rule="evenodd" fill="#FFFFFF" d="M788.629,686.999c-6.724,3.896-13.901,8.053-21.077,12.21
		c-0.485-0.612-0.972-1.228-1.456-1.841c4.769-6.404,9.541-12.809,14.477-19.437C782.961,680.619,785.635,683.629,788.629,686.999z"
		/>
	<path fill-rule="evenodd" clip-rule="evenodd" fill="#FFFFFF" d="M754.894,713.358c0.908,6.72-6.482,10.882-8.462,18.904
		c-3.727-6.965-6.849-12.8-10.121-18.915c3.916-0.219,6.887-0.506,9.858-0.514C748.765,712.824,751.363,713.13,754.894,713.358z"/>
	<path fill-rule="evenodd" clip-rule="evenodd" fill="#FFFFFF" d="M726.926,699.635c-8.253-3.794-15.844-7.282-25.245-11.602
		c4.185-3.416,7.254-5.922,10.204-8.329C716.463,685.771,721.348,692.243,726.926,699.635z"/>
	<path fill-rule="evenodd" clip-rule="evenodd" fill="#FFFFFF" d="M669.881,490.466c-6.646-9.426-6.646-9.426-0.492-18.202
		C679.85,477.313,680.063,481.984,669.881,490.466z"/>
	<path fill-rule="evenodd" clip-rule="evenodd" fill="#FFFFFF" d="M733.348,662.074c0.875-2.284,1.262-4.994,2.729-6.766
		c2.984-3.597,11.038-4.88,15.436-2.528c3.563,1.902,5.968,4.947,5.157,10.378c-7.315-6.036-14.472-7.062-21.433,0.305
		C734.606,663,733.978,662.537,733.348,662.074z"/>
	<path fill-rule="evenodd" clip-rule="evenodd" fill="#FFFFFF" d="M657.104,305.163c3.298,3.942,5.64,6.743,8.179,9.779
		c-1.61,1.724-2.841,3.42-4.426,4.637c-1.84,1.413-2.383,6.546-6.445,2.439c-4.169-4.212-4.765-7.701-1.552-11.42
		C654.187,309.063,655.369,307.398,657.104,305.163z"/>
	<path fill-rule="evenodd" clip-rule="evenodd" fill="#FFFFFF" d="M404.437,705.66c0-8.695,0-17.392,0-26.067
		c4.84-0.713,5.056-0.721,5.175,3.466c0.185,6.447,0.263,12.92-0.132,19.349c-0.097,1.591-2.184,3.055-3.357,4.577
		C405.561,706.543,405,706.102,404.437,705.66z"/>
	<path fill-rule="evenodd" clip-rule="evenodd" fill="#FFFFFF" d="M357.98,440.962c-1.721,1.274-3.91,4.069-6.517,4.569
		c-4.491,0.861-6.33-3.261-7.309-6.868c-0.813-3,3.278-6.978,6.583-6.805C355.151,432.089,357.14,434.965,357.98,440.962z"/>
	<path fill-rule="evenodd" clip-rule="evenodd" fill="#FFFFFF" d="M87.307,663.456c11.46-2.535,25.146,5.298,31.18,15.395
		C108.699,674.018,98.002,668.738,87.307,663.456z"/>
	<path fill-rule="evenodd" clip-rule="evenodd" fill="#FFFFFF" d="M745.436,624.56c2.951,5.746,5.465,10.638,8.422,16.395
		c-5.944,0.289-10.771,0.522-16.58,0.805C740.036,635.944,742.486,630.778,745.436,624.56z"/>
	<path fill-rule="evenodd" clip-rule="evenodd" fill="#FFFFFF" d="M292.497,661.939c-7.078-6.594-14.12-8.141-21.471-0.842
		c-0.438-0.382-0.875-0.766-1.313-1.147c0.788-2.095,1.058-4.699,2.46-6.188c3.838-4.083,8.594-4.547,13.726-2.412
		C290.287,653.178,292.784,656.117,292.497,661.939z"/>
	<path fill-rule="evenodd" clip-rule="evenodd" fill="#FFFFFF" d="M280.995,624.247c2.926,5.875,5.34,10.723,8.182,16.427
		c-5.835,0-10.348,0-16.145,0C275.564,635.45,277.966,630.497,280.995,624.247z"/>
	<path fill-rule="evenodd" clip-rule="evenodd" fill="#FFFFFF" d="M166.077,661.679c-3.279,6.253-9.211,6.556-14.093,8.733
		c-4.995,2.23-9.914,4.635-14.739,6.902C139.266,669.968,153.244,662.136,166.077,661.679z"/>
	<path fill-rule="evenodd" clip-rule="evenodd" fill="#FFFFFF" d="M365.672,322.7c-2.403-2.98-4.852-6.015-7.432-9.213
		c2.214-2.768,4.273-5.344,6.336-7.927C373.623,313.386,374.036,318.576,365.672,322.7z"/>
	<path fill-rule="evenodd" clip-rule="evenodd" fill="#FFFFFF" d="M312.076,658.594c-3.762-2.392-5.875-3.889-8.127-5.116
		c-2.2-1.202-4.544-2.128-6.825-3.176c-0.038-0.538-0.075-1.077-0.113-1.616c4.932-1.594,9.865-3.187,15.886-5.132
		C312.596,649.038,312.37,653.199,312.076,658.594z"/>
	<path fill-rule="evenodd" clip-rule="evenodd" fill="#FFFFFF" d="M263.216,660.386c1.106,2.058,2.041,3.797,2.316,4.309
		c-4.199,5.297-7.79,9.826-11.452,14.446C248.563,675.453,249.844,667.521,263.216,660.386z"/>
	<path fill-rule="evenodd" clip-rule="evenodd" fill="#FFFFFF" d="M771.584,679.909c-2.445-4.895-5.09-9.909-7.437-15.063
		c-0.658-1.444-0.441-3.31-0.626-4.978c1.682,0.201,3.778-0.182,4.973,0.707C775.048,665.447,776.018,673.505,771.584,679.909z"/>
	<path fill-rule="evenodd" clip-rule="evenodd" fill="#FFFFFF" d="M306.508,679.909c-0.955-6.25-3.706-10.897-11.146-12.232
		c1.681-2.395,2.967-4.227,4.433-6.311c4.735,3.318,10.756,4.901,10.619,11.93c-0.046,2.321-1.438,4.615-2.214,6.921
		C307.636,680.114,307.072,680.012,306.508,679.909z"/>
	<path fill-rule="evenodd" clip-rule="evenodd" fill="#FFFFFF" d="M249.465,657.222c-0.353-4.369-0.653-8.089-1.064-13.168
		c5.572,1.559,10.909,3.053,16.244,4.546c0.021,0.536,0.045,1.069,0.067,1.604C259.739,652.494,254.765,654.782,249.465,657.222z"/>
	<path fill-rule="evenodd" clip-rule="evenodd" fill="#FFFFFF" d="M715.477,657.742c-0.44-4.841-0.806-8.828-1.254-13.736
		c5.867,1.588,10.741,2.909,16.692,4.522C725.54,651.737,720.943,654.479,715.477,657.742z"/>
	<path fill-rule="evenodd" clip-rule="evenodd" fill="#FFFFFF" d="M589.229,774.281c-0.864,6.011-7.604,7.11-19.471,3.552
		C570.154,773.188,575.787,772.123,589.229,774.281z"/>
	<path fill-rule="evenodd" clip-rule="evenodd" fill="#FFFFFF" d="M777.406,656.939c-5.189-3.067-9.545-5.639-14.878-8.792
		c5.624-1.542,10.515-2.883,16.141-4.426C778.169,648.965,777.795,652.859,777.406,656.939z"/>
	<path fill-rule="evenodd" clip-rule="evenodd" fill="#FFFFFF" d="M727.076,661.372c-1.72,6.78-3.44,13.563-5.168,20.373
		c-6.508-5.798-5.133-13.853,3.555-20.892C726.001,661.026,726.538,661.199,727.076,661.372z"/>
	<path fill-rule="evenodd" clip-rule="evenodd" fill="#FFFFFF" d="M287.084,676.211c-2.609-3.768-4.31-6.223-6.01-8.678
		c-1.833,2.565-3.665,5.133-6.041,8.463c-0.584-1.064-2.908-3.456-2.428-4.769c1.511-4.117,4.892-6.345,9.527-6.118
		c4.472,0.221,6.877,2.901,7.224,7.037C289.487,673.705,287.545,675.444,287.084,676.211z"/>
	<path fill-rule="evenodd" clip-rule="evenodd" fill="#FFFFFF" d="M752.664,670.633c-4.982,5.649-9.678,7.215-12.026,3.84
		c-0.879-1.263-0.775-4.533,0.214-5.635C744.434,664.855,748.158,665.554,752.664,670.633z"/>
	<path fill-rule="evenodd" clip-rule="evenodd" fill="#FFFFFF" d="M886.788,682.759c6.662,0,12.227,0,17.199,0
		c-2.34,2.581-5.004,5.52-7.949,8.767C893.286,688.916,890.455,686.233,886.788,682.759z"/>
	<path fill-rule="evenodd" clip-rule="evenodd" fill="#FFFFFF" d="M752.516,702.565c-4.713,0-8.896,0-13.077,0
		c-0.338-0.542-0.674-1.084-1.014-1.626c2.229-1.641,4.501-4.657,6.669-4.579C747.957,696.461,752.153,697.231,752.516,702.565z"/>
	<path fill-rule="evenodd" clip-rule="evenodd" fill="#FFFFFF" d="M710.703,394.952c1.112,1.92,3.271,3.979,3.05,5.724
		c-0.234,1.848-2.729,3.397-4.237,5.076c-1.37-1.748-3.675-3.407-3.842-5.267c-0.156-1.76,1.929-3.731,3.028-5.609
		C709.369,394.901,710.036,394.927,710.703,394.952z"/>
	<path fill-rule="evenodd" clip-rule="evenodd" fill="#FFFFFF" d="M775.393,703.887c-2.387,3.269-4.772,6.537-7.635,10.458
		c-2.037-2.937-3.347-4.822-5.124-7.385c4.175-1.417,7.907-2.685,11.64-3.952C774.646,703.301,775.02,703.594,775.393,703.887z"/>
	<path fill-rule="evenodd" clip-rule="evenodd" fill="#FFFFFF" d="M719.586,702.474c3.07,1.696,6.137,3.394,10.442,5.774
		c-2.498,2.069-4.136,3.427-5.773,4.783c-2.171-2.939-4.339-5.882-6.509-8.821C718.359,703.631,718.972,703.053,719.586,702.474z"/>
	<path fill-rule="evenodd" clip-rule="evenodd" fill="#FFFFFF" d="M445.807,736.352c-0.784-1.512-2.219-3.024-2.217-4.535
		c0.006-3.111,0.778-6.222,1.233-9.333c0.98,0.604,2.754,1.147,2.805,1.823c0.277,3.735,0.133,7.505,0.133,11.263
		C447.109,735.829,446.457,736.089,445.807,736.352z"/>
	<path fill-rule="evenodd" clip-rule="evenodd" fill="#FFFFFF" d="M351.2,472.29c1.912,2.479,3.831,3.883,3.716,5.082
		c-0.16,1.692-1.829,3.231-2.853,4.836c-1.334-1.264-3.506-2.369-3.769-3.833C348.04,476.947,349.733,475.151,351.2,472.29z"/>
	<path fill-rule="evenodd" clip-rule="evenodd" fill="#FFFFFF" d="M678.643,435.139c-1.608-2.89-3.134-4.383-2.955-5.62
		c0.222-1.538,1.853-2.863,2.873-4.28c1.204,1.274,3.25,2.464,3.383,3.844C682.081,430.526,680.377,432.155,678.643,435.139z"/>
	<path fill-rule="evenodd" clip-rule="evenodd" fill="#FFFFFF" d="M803.585,258.492c-0.342,4.77,0.052,8.365-0.933,11.507
		c-5.069,16.167-14.342,29.087-29.295,37.072c-2.303,1.231-5.578,2.051-7.902,1.341c-2.573-0.786-5.432-3.14-6.532-5.582
		c-0.832-1.838,0.092-5.81,1.641-7.26c12.672-11.871,25.666-23.383,38.597-34.964C799.81,260.026,800.773,259.812,803.585,258.492z"
		/>
	<path fill-rule="evenodd" clip-rule="evenodd" fill="#FFFFFF" d="M698.08,197.472c-5.393,9.66-10.208,18.487-15.23,27.189
		c-2.093,3.631-5.463,6.451-9.583,4.867c-4.531-1.741-4.317-6.921-3.066-10.32c3.873-10.519,10.1-19.21,21.579-22.124
		C693.41,196.671,695.285,197.268,698.08,197.472z"/>
	<path fill-rule="evenodd" clip-rule="evenodd" fill="#FFFFFF" d="M567.949,923.312c3.856,3.048,7.604,5.811,11.125,8.849
		c3.248,2.805,6.113,6.422,3.725,10.793c-1.311,2.399-4.425,4.752-7.04,5.201c-4.741,0.813-8.781-1.838-10.711-6.407
		C562.344,935.341,563.424,929.244,567.949,923.312z"/>
	<path fill-rule="evenodd" clip-rule="evenodd" fill="#FFFFFF" d="M583.841,912.155c-3.363-2.525-6.724-4.377-9.154-7.1
		c-1.757-1.965-3.304-5.222-3.003-7.65c0.215-1.744,3.758-4.433,5.603-4.261c2.737,0.251,6.263,2.011,7.702,4.289
		C587.732,901.78,587.258,906.799,583.841,912.155z"/>
	<path fill-rule="evenodd" clip-rule="evenodd" fill="#FFFFFF" d="M491.202,928.183c-0.597,5.309-0.948,10.62-1.92,15.81
		c-0.313,1.669-2.263,3.016-3.464,4.511c-1.271-1.405-3.337-2.627-3.685-4.239c-2.271-10.485-2.492-21.067,0.221-31.517
		c0.384-1.479,2.266-2.552,3.455-3.812c1.134,1.342,2.968,2.535,3.273,4.053C490.085,917.978,490.535,923.086,491.202,928.183z"/>
	<path fill-rule="evenodd" clip-rule="evenodd" fill="#FFFFFF" d="M119.465,600.061c3.236-2.714,5.555-5.808,6.749-5.407
		c2.233,0.754,4.914,3.34,5.286,5.539c0.255,1.502-2.889,4.769-4.889,5.142C125.029,605.629,122.876,602.725,119.465,600.061z"/>
	<path fill-rule="evenodd" clip-rule="evenodd" fill="#FFFFFF" d="M113.159,620.46c-1.68-3.341-3.645-5.439-3.324-7.067
		c0.392-1.987,2.702-3.577,4.183-5.341c1.858,2.205,4.045,4.238,5.295,6.76C119.565,615.317,116.249,617.677,113.159,620.46z"/>
	<path fill-rule="evenodd" clip-rule="evenodd" fill="#FFFFFF" d="M144.977,614.313c-2,1.321-4.063,3.746-5.983,3.632
		c-1.693-0.1-3.225-3.035-4.828-4.719c1.769-1.734,3.333-4.42,5.378-4.885c1.464-0.335,3.576,2.303,5.397,3.614
		C144.953,612.741,144.965,613.525,144.977,614.313z"/>
	<path fill-rule="evenodd" clip-rule="evenodd" fill="#FFFFFF" d="M613.268,753.89c1.291-4.082,8.836-11.363,11.424-11.168
		c2.86,0.217,10.735,7.645,11.543,11.168C628.55,753.89,620.943,753.89,613.268,753.89z"/>
</g>
</svg>
