<?xml version="1.0" encoding="utf-8"?>
<!-- Generator: Adobe Illustrator 16.0.0, SVG Export Plug-In . SVG Version: 6.00 Build 0)  -->
<!DOCTYPE svg PUBLIC "-//W3C//DTD SVG 1.1//EN" "http://www.w3.org/Graphics/SVG/1.1/DTD/svg11.dtd">
<svg version="1.1" id="Layer_1" xmlns="http://www.w3.org/2000/svg" xmlns:xlink="http://www.w3.org/1999/xlink" x="0px" y="0px"
	 width="1920px" height="1080px" viewBox="0 0 1920 1080" enable-background="new 0 0 1920 1080" xml:space="preserve">
<g id="background">
	<rect x="1.394" y="1.567" fill="#DEDDDD" width="1918.606" height="1080"/>
</g>
<g id="roads">
	<path fill="#888888" d="M1744.441,1.567c-3.716,0-7.431,0-11.146,0c-0.019,1.043,0.222,2.199-0.095,3.114
		c-3.681,10.697-7.513,21.329-11.168,32.036c-2.836,8.313-5.745,16.615-8.139,25.094c-0.152,0.541-0.285,1.088-0.434,1.631
		l-0.073,0.209l-0.285,1.14c-0.833,3.125-1.619,6.266-2.359,9.424l-8.777,35.06c-0.727,0.678-1.775,1.658-3.209,2.998
		c0.805,0.311,1.544,0.597,2.242,0.867l-4.729,18.882c-0.064,0.17-0.128,0.324-0.194,0.5c0.016,0.023,0.033,0.054,0.051,0.079
		l-1.073,4.287c-0.444,0.168-0.928,0.352-1.477,0.56c0.316,0.613,0.613,1.182,0.901,1.734l-1.413,5.644
		c-0.504,0.189-1.003,0.378-1.5,0.565c0.406,0.217,0.811,0.405,1.213,0.581l-1.606,6.421c-0.257,0.095-0.509,0.189-0.751,0.278
		c0.104,0.557,0.191,1.108,0.268,1.654l-12.497,49.917l-89.366,28.754c-2.809,0.714-5.614,1.451-8.441,2.056
		c-1.731,0.37-3.577,0.057-5.942,0.057l0.632-52.674c0.832-17.542,0.777-35.094,0.633-52.641l0.928-77.319
		c0.125-6.115,0.184-12.228,0.221-18.339l0.391-32.567c-4.644,0-9.289,0-13.933,0l-2.735,228.743
		c-0.023,0.037-0.053,0.075-0.076,0.112c0,1.802,0,3.604,0,6.301c-3-0.283-5.649-0.487-8.291-0.799
		c-1.348-0.159-2.676-0.519-4.015-0.773c-0.226-0.042-0.464-0.001-0.697-0.007c-22.183-0.545-44.364-1.091-66.513-1.635L1462.25,0
		H1430l6.279,81.307c0.237,3.69,0.512,7.374,0.854,11.047l3.387,43.841c-8.568,0-16.979,0-25.734,0c-2.027,0-4.067,0-6.141,0
		c0,0-8.145-0.695-8.145,12.805s-4.281,69.5-4.281,69.5l0.734,1.03c-0.011,0.12-0.021,0.233-0.031,0.354l-0.703-1.384l-2.797-0.33
		l2.871-0.648l-108.909-12.306c-0.228-0.031-0.455-0.052-0.684-0.077l-0.017-0.002l-145.563-15.424l11.155-188.145
		c-4.645,0-9.288,0-13.933,0l-2.461,32.784l-125.909-16.788c-0.082-2.174,1.674-4.36,1.593-6.618
		c-0.111-3.122-0.019-6.252-0.016-9.378c-4.18,0-8.359,0-12.54,0c-0.842,6.041-1.787,12.068-2.498,18.129
		c-0.183,1.554-0.353,3.11-0.516,4.679l-2.14,16.188c-1.596,0.048-3.373,0.249-5.079-0.062c-7.582-1.381-15.134-2.97-22.697-4.47
		c-6.02-1.192-12.042-2.36-18.061-3.555c-7.133-1.415-14.261-2.86-21.393-4.27c-7.136-1.411-14.271-2.83-21.417-4.177
		c-6.708-1.265-13.436-2.413-20.146-3.666c-4.466-0.834-8.896-1.956-13.382-2.592c-3.634-0.514-7.327-0.496-11.473-0.742
		c-1.684,2.698-3.354,5.375-4.845,7.764c2.775,9.015,4.842,10.494,12.393,11.345c7.442,0.84,14.836,2.296,22.228,3.643
		c6.927,1.262,13.821,2.743,20.733,4.11c7.358,1.455,14.716,2.906,22.08,4.323c3.578,0.688,7.159,1.372,10.755,1.922
		c7.438,1.137,14.905,2.033,22.321,3.311c7.822,1.348,15.604,3.002,23.39,4.614c0.526,0.108,0.928,0.983,1.387,1.502l-0.002-0.002
		c0.202,0.229,0.404,0.459,0.606,0.688L975.48,179.686l-7.461-0.512c-2.919-0.408-5.846-0.57-8.777-0.603l-133.2-9.146l21.1-167.858
		c-8.36,0-16.72,0-25.08,0c-0.012,0.104-0.025,0.208-0.038,0.312L812.25,2l-18.54,165.59c0,0-213.878-9.263-285.065-14.123
		c-9.04-0.617-18.019-2.374-26.958-4.071c-23.2-4.403-45.331-13.591-68.195-19.588c-10.708-2.809-21.332-6.119-31.849-9.75
		c-6.046-2.087-12.227-4.107-18.456-5.914c-0.188-0.055-0.375-0.118-0.563-0.175c-1.554-0.473-3.169-0.737-4.729-1.208
		c-29.94-9.04-237.898-15.49-321.758-16.712c-6.223-0.332-12.438-0.29-18.649-0.252c-10.224-0.127-16.093-0.18-16.093-0.18
		c0,1.568,0,3.135,0,4.703v1.567c0,4.703,0,9.405,0,14.107v4.703c0,3.135,0,6.27,0,9.405v1.619l0.974-0.013L1.394,137
		c0,0,60.764-4.08,174.725,0.252c6.961,0.265,13.934-0.098,20.864,0.314c0.004,0,0.01,0,0.015,0c1.701,0.014,3.397,0.054,5.093,0.1
		c3.07,0.084,6.131,0.282,9.182,0.632c7.888,0.904,15.767,0.395,23.595,0.694c3.622,0.139,7.223,0.348,10.786,0.687
		c0.017,0.001,0.032,0.003,0.049,0.005c3.821,0.472,7.648,0.639,11.469,0.861c100.253,5.823,135.008,14.502,177.439,29.379
		c4.392,1.54,12.723,5.777,17.101,7.352c7.888,2.838,16.028,4.985,24.094,7.251c3.489,0.98,7.106,1.488,10.694,1.895
		c6.118,0.693,12.289,0.869,18.384,1.745c13.266,1.907,26.592,1.089,39.891,1.545c5.157,0.177,16.118-1.417,20.611,1.122
		c0.158,0.089,0.164,0.348,0.307,0.417c3.749,1.814,8.333,0.133,12.5,0.279c32.97,1.159,100.087-2.04,131.765,7.171
		c0.255,0.074,0.443,0.309,0.692,0.361c0.427,0.088,0.871-0.014,1.306-0.013c1.219,0.001,2.438-0.061,3.66-0.04
		c18.238,0.313,72.854,3.965,72.854,3.965c-0.142,1.587-0.26,3.5-0.503,5.395c-0.128,0.997-0.631,1.947-0.693,2.939
		c0,0-20.823,446.33-36.066,594.429c-0.103,0.983-0.146,2.007-0.187,3.005c-0.152,3.818-0.474,7.609-0.907,11.387l-9.458,65.1
		c-1.165,2.525-1.295,5.4-1.213,8.35l-2.772,19.087c0,0-3.759,5.486-21.536,8.391c-1.524,0.02-3.025,0.187-4.479,0.64
		c-21.65,2.638-26.375,20.01-26.847,26.989c-3.069-0.558-5.923-1.156-8.798-1.567c-1.821-0.259-3.673-0.313-5.512-0.321
		c-9.049-0.039-18.113,0.36-27.144-0.107c-46.751-2.431-93.528-1.122-140.292-1.595c-8.801-0.087-17.237,1.459-25.627,4.057
		c-1.303,0.402-2.78,0.977-4.01,0.658c-12.124-3.138-24.403-0.747-36.586-1.478c-0.458-0.027-0.915-0.076-2.036-0.173
		c-9.571-14.947-23.784-25.806-33.411-40.905l27.345-443.25c0,0,3.143-15.51-7.365-15.51c-10.507,0-10.58,10.581-10.58,10.581
		l-29.383,428.14c0,3.897,0,7.793,0,11.15l-110.094-4.853l0,0c-0.542-0.108-1.169,0.004-1.774,0.138
		c-5.096,1.124-10.174,2.333-16.152,3.717c-0.811,0.868-2.268,2.538-3.829,4.073c-3.534,3.478-4.841,7.718-4.804,13.062
		c0.18,25.563,0.089,51.128,0.095,76.691c0,2.598,0,5.192,0,8.206c-5.825,1.304-11.542,0.661-17.22,0.387
		c-2.699-0.13-5.376-0.838-8.064-1.276c-0.227-0.035-0.463-0.003-0.693-0.006c-32.59-0.532-65.201-0.456-97.757-1.938
		c-11.023-0.504-22.185,0.21-33.058-1.481c-13.164-2.05-26.313,0.007-39.353-1.462c-15.439-1.742-30.868-1.188-46.307-1.398
		c0,6.792,0,13.585,0,20.377c3.603,0.518,7.196,1.387,10.808,1.482c8.577,0.229,17.164-0.082,25.74,0.137
		c15.437,0.393,30.966-0.016,46.271,1.841c13.869,1.681,27.722-0.184,41.44,1.44c20.313,2.403,40.691-0.181,60.903,1.709
		c13.163,1.229,26.257,0.578,39.364,1.285c5.471,0.294,10.927,0.979,16.377,1.617c0.823,0.098,1.578,0.925,2.602,1.562
		c0,6.593,0,13.169,0,20.168l-243.51-7.73v3.135v4.423l243.482,9.75c0,4.938,0,10.061,0,15.628c-2.214,0-4.238,0.003-6.263,0
		c-11.37-0.013-22.823,0.935-34.094-0.274c-15.467-1.655-31,0.101-46.32-1.656c-13.88-1.592-27.736,0.167-41.47-1.43
		c-15.461-1.793-30.996,0.035-46.318-1.704c-13.646-1.55-27.256-0.003-40.773-1.44c-9.429-1.004-18.815-1.306-28.245-1.35
		c0,6.27,0,12.54,0,18.81h314.3c-9.878-0.578-19.776-0.828-29.633-1.69c-5.384-0.473-10.716-1.915-16.024-3.17
		c-3.949-0.935-7.823-2.271-11.65-3.403c-1.689-5.985-0.063-11.601,0.676-17.749l124.883,5.001
		c-0.711,7.39-1.369,14.224-2.021,21.013h30.711c1.005-7.54,2.015-15.106,3.086-23.142c1.614-0.12,3.388-0.361,5.162-0.363
		c15.521-0.009,31.122-1.06,46.549,0.313c20.778,1.85,41.597-0.297,62.253,1.604c18.942,1.74,37.888-0.325,56.698,1.508
		c17.771,1.729,35.504,0.624,53.236,1.396c7.995,0.348,15.967,1.404,24.837,2.22c1.985,5.025,4.235,10.717,6.508,16.465h2.778
		c-1.933-4.835-3.822-9.693-5.875-14.466c-1.225-2.849-1.973-5.656-1.865-8.888c0.554-16.585,0.847-33.186,1.51-49.765
		c0.308-7.694,1.247-15.356,1.953-23.66c0.621-0.083,1.656-0.221,3.177-0.421c1.852,33.375,16.204,56.051,45.112,66.602
		c-0.686,8.047-1.336,15.93-2.038,23.806c-0.202,2.271-0.484,4.53-0.755,6.792h31.826c-0.203-10.839,0.852-21.452,5.204-31.772
		c0.942-0.576,2.067-1.628,3.346-1.982c6.517-1.813,11.186-6.771,15.813-11.697c4.996-5.321,10.286-10.439,13.097-17.812
		c1.06-2.776,2.215-5.54,2.958-8.43c0.91-3.536,2.798-5.586,5.873-6.674c9.544-3.38,19.097-5.823,29.24-6.686
		c9.427-0.8,18.938,0.142,28.182-1.434c9.686-1.649,19.294-0.737,28.918-1.345c5.234-0.33,10.443-1.23,15.68-1.455
		c10.29-0.438,19.288,4.659,28.224,8.196c-1.394,13.021-2.719,25.395-4.113,38.415c0,0-1.7,9.484,9.484,9.484
		s9.761-9.087,9.761-9.087c1.271-11.536,2.495-22.664,3.816-34.665c12.015,3.188,23.756,6.441,35.555,9.402
		c13.238,3.323,26.565,6.202,39.788,9.601c17.393,4.466,34.688,9.412,52.084,13.853c19.396,4.952,38.934,9.216,58.274,14.417
		c25.691,6.911,51.229,14.55,76.881,21.649c10.672,2.954,21.473,5.32,32.201,8.02h182.862l4.041-54.877l7.781-117.524l166.746,4.951
		c13.859,1.437,27.717,1.233,41.584,1.302v50.901c-6.788,1.939-13.661,3.516-20.746,4.051c-3.347,0.253-6.712,1.185-9.939,2.282
		c-11.241,3.827-22.421,7.887-33.641,11.801c-3.226,1.125-6.525,2.994-9.758,2.908c-22.846-0.604-12.124,2.457-34.979-0.335
		c-12.779-1.561-29.721-11.137-38.613-1.808c-3.62,3.798-3.311,12.604,1.396,15.678c14.906,9.734,19.69,3.051,37.477,3.855
		c0.894,0.04,1.999,0.642,2.682,0.063c0.052-0.044-0.021-0.157,0.028-0.205c4.663-4.26,18.951-0.629,25.23-1.305
		c2.818-0.303,8.371-1.517,11.188-1.835c1.283-0.146,2.555-0.261,3.777-0.619c16.42-4.803,65.898-18.447,65.898-18.447v48.934
		c-0.025-0.006-0.051-0.014-0.076-0.02l-0.125,0.137c-0.03,0.64,0.046,1.152,0.201,1.578V1080h23.885l-14.136-444.128
		c-0.746-12.991-0.13-43.671-0.13-46.072l2.691-131.313l0,0c0.074-2.501-0.021-5.031,0.193-7.525
		c0.57-6.583,1.727-13.103,2.605-19.652c0.103-0.77,0.037-1.563,0.084-2.345c0.469-7.971,0.832-15.954,1.442-23.911
		c0.821-10.733,1.526-21.497,2.854-32.157c1.232-9.919,2.221-19.82,2.853-29.819c0.479-7.557,2.406-14.997,3.669-22.493
		c0.17-1.005,0.396-2.054,0.312-3.052c-0.975-11.337,3.001-21.586,5.502-32.164c4.232-17.907,8.433-35.825,12.612-53.748
		c0.437-1.865,0.764-3.763,1.103-5.656l4.251-17.869c0.048-0.126,0.098-0.251,0.129-0.382c0.052-0.212,0.097-0.425,0.146-0.637
		l27.861-102.755L1750.25,1.567H1744.441z M429.865,970.611c0.126,0.16,0.253,0.318,0.379,0.479
		c-0.272-0.025-0.545-0.051-0.817-0.075C429.573,970.881,429.719,970.746,429.865,970.611z M270.576,908.844l111.788,7.864
		l6.25,7.811c3.579,4.474,7.18,8.973,10.797,13.494l11.628,14.532c-1.319,0.761-2.398,1.618-3.598,2.036
		c-22.225,7.749-44.446,15.511-66.707,23.128c-13.614,4.656-27.267,9.174-40.951,13.565c-11.121,3.569-22.339,6.653-33.981,7.301
		c-2.396,0.133-4.754,1.136-7.647,1.868c-0.161-2.741-0.38-4.745-0.383-6.749c-0.026-24.271-0.008-48.541-0.048-72.813
		c-0.005-2.747-0.301-5.495-0.516-9.142C261.398,910.832,265.987,909.839,270.576,908.844z M259.341,1044.298
		c-0.622-7.264-1.229-14.36-1.87-21.842c5.876-1.273,11.125-2.795,16.46-3.493c14.673-1.921,28.881-5.814,42.928-10.943
		c18.021-6.578,36.248-12.442,54.955-18.81c0.824,2.146,2.064,4.338,2.494,6.715c0.859,4.752,1.281,9.604,1.868,14.414
		c0.648,5.32,1.285,10.643,1.917,15.964c0.835,7.028,1.666,14.061,2.586,21.848L259.341,1044.298z M384.278,1048.274v-0.012
		l-0.789-0.024c-0.106-0.44-0.206-0.883-0.268-1.332c-0.898-6.556-1.787-13.11-2.613-19.676c-0.574-4.562-1.09-9.132-1.546-13.706
		c-0.535-5.354-0.786-10.756-1.533-16.068c-0.416-2.958-1.591-5.78-2.611-9.312c8.687-3.025,17.362-6.438,26.23-9.025
		c8.654-2.524,16.884-7.253,27.495-7.398C405.781,992.396,390.028,1016.561,384.278,1048.274z M664.896,1006.846
		c-1.185,5.695-0.131,11.949-0.337,17.943c-0.389,11.335-0.964,22.662-1.498,34.811c-8.448-0.772-16.661,1.589-24.791-1.41
		c-0.844-0.313-1.843-0.096-2.771-0.112c-28.895-0.545-57.812-0.505-86.679-1.806c-25.421-1.143-50.895-0.112-76.232-1.808
		c-18.45-1.233-36.884-0.073-55.828-1.495c0.827-9.191,3.587-17.371,7.796-24.915c7.185-12.872,16.366-23.716,28.042-31.379
		c5.824-3.82,12.299-6.576,18.722-9.004c4.867-1.84,9.816-3.406,14.786-4.899l26.262-3.105c26.816-0.176,53.648-0.802,80.414,0.418
		c18.475,0.842,36.924,0.501,55.369,1.267c5.673,0.233,11.318,1.36,17.839,2.188C665.472,991.428,666.518,999.04,664.896,1006.846z
		 M1470.359,533.34c1.687-0.133,3.457-0.391,5.229-0.394c14.374-0.027,28.747,0.103,43.118-0.073c4.071-0.05,8.277-1.938,12.17-1.23
		c5.732,1.045,11.821,0.953,17.104,4.422c1.179,0.773,2.41,1.444,3.938,2.354c3.752,15.109,4.032,30.544,1.854,46.29
		c-0.917,6.626-0.229,13.534-0.27,20.314c-0.446,1.575-0.895,3.151-1.343,4.729c0.317,0.347,0.636,0.692,0.953,1.039
		c-0.313,0.181-0.623,0.361-0.935,0.542c-0.023,3.64-0.045,7.279-0.068,10.919c-0.449,8.642-0.785,17.293-1.463,25.911
		c-0.108,1.381-1.74,2.611-2.67,3.911c-1.271,3.51-2.54,7.018-3.973,10.968c-5.44,0-10.492,0-15.545,0
		c-5.102,0-10.201,0.002-15.301,0c-5.333-0.004-10.8,0.817-15.957-0.256c-4.838-1.008-9.523,0.759-14.479-0.875
		c-4.705-1.55-10.414,0.763-15.119-0.784c-4.738-1.557-9.906,3.244-14.185-1.791C1459.054,617.441,1464.672,575.646,1470.359,533.34
		z M1410.94,211.155c0.049-0.109,0.092-0.218,0.146-0.328c0.309-0.631,0.291-1.499,0.325-2.262
		c0.226-4.901,0.425-9.804,0.634-14.706l2.739-42.916c8.724,0,17.646,0,27.187,0c0.504,6.571,1.027,13.169,1.516,19.771
		c0.947,12.822,1.811,25.652,2.842,38.465c0.453,5.615,1.241,11.195,2.064,18.445c-13.48-1.937-25.574-3.675-38.153-5.483
		L1410.94,211.155z M1311.528,230.499l42.755,6.024c0.003,0.063-0.002,0.117,0.003,0.183c0.432,0,0.861,0,1.292,0l55.746,7.854
		l-0.009-0.011c3.811,0.673,7.661,1.066,11.499,1.525c9.001,1.075,18.005,2.107,27.619,3.228c0,2.485-0.038,4.49,0.007,6.491
		c0.466,20.947,0.951,41.892,1.412,62.838c0.054,2.429,0.015,4.864,0.009,7.336c-9.354,1.065-31.792,3.668-37.646,4.775
		c-7.451,1.409-11.155,5.008-11.157,5.01c-2.709,1.784-5.054,4.237-6.961,7.512c-0.688,3.389-1.373,6.777-2.015,9.939
		c-5.31,1.375-10.694,2.771-16.081,4.165c0.002,4.708,0.004,9.417,0.006,14.124c10.045,0.101,17.763-4.969,24.048-13.458
		c4.922-6.649,10.113-12.065,18.938-11.89c7.879,0.158,15.785-1.893,23.694-2.803c2.509-0.289,5.067-0.045,7.553-0.045
		c1.761,8.334,1.233,47.24-0.967,70.524c-5.627,0-11.356-0.172-17.075,0.037c-6.339,0.232-12.676,0.524-19.012,0.854l-26.938,0.665
		l-0.408,0.017c-0.311,0.008-0.619,0.021-0.93,0.039l-73.922,3.102l-1.896-55.035L1311.528,230.499z M1137.775,213.239
		c1.191,0.103,2.384,0.109,3.579,0.079l12.472,1.187c1.222,0.334,2.523,0.396,3.854,0.367l139.526,13.283
		c0.513,0.352,0.841,0.798,1.061,1.3l-1.061-1.3l-0.823,29.437c-0.194,3.667-0.381,7.335-0.56,11.004
		c-0.052,1.052-0.253,2.261,0.163,3.143l-1.746,62.439c-0.064,1.212-0.104,2.428-0.102,3.646l-0.006,0.217l0.003,0.047
		c0.013,1.851,0.114,3.705,0.306,5.552l4.213,76.356c-5.973,0.61-11.618,1.391-17.273,1.575c-9.032,0.293-18.153-0.746-27.1,0.287
		c-15.665,1.808-31.396,0.157-46.957,1.729c-8.483,0.858-16.986,0.158-25.366,0.896l-39.269,1.773
		c-1.893,0.028-3.785,0.078-5.678,0.169c-0.551,0.027-1.103,0.086-1.655,0.162l-4.546,0.205L1137.775,213.239z M976.88,573.991
		c0.111-19.629,0.168-39.253-0.511-58.86c-0.674-19.488-0.486-38.949-1.027-58.413c-0.071-2.554-0.011-5.112-0.011-8.372
		c9.421,0,18.354,0,27.565,0c0-0.309,0-0.606,0-0.911l165.142-5.46l-12.602,154.264c-0.146,0.581-0.256,1.165-0.293,1.755
		c-0.104,1.686-0.181,3.364-0.263,5.042l-0.785,9.612c-0.063,0.446-0.12,0.895-0.192,1.343c-0.883,5.479-1.074,11.096-1.282,16.712
		l-2.604,31.873c-0.151,0.162-0.319,0.319-0.518,0.472c0,1.562,0,3.141,0,4.999l-14.229-0.272c-0.49-0.03-0.987-0.036-1.488-0.028
		l-155.468-2.989c-0.064-1.604-0.123-3.334-0.224-5.068c-1.664-28.543-1.377-57.118-1.213-85.684v-0.001L976.88,573.991z
		 M996.394,129.554c1.321-9.383,2.727-18.753,3.927-28.156c1.164-9.128,1.438-18.432,3.05-27.443
		c1.157-6.47,0.486-13.385,3.461-19.455c0.417-0.85,0.475-1.972,0.541-2.981c0.514-7.723,0.99-15.458,1.505-23.604l126.273,16.219
		l-10.797,143.826l-133.2-8.354c-0.087-0.431-0.446-1.285-0.437-2.12L996.394,129.554z M975.239,319.629
		c-0.051,0.01-0.1,0.017-0.148,0.027l0.872-7.848c0.234,0.071,0.473,0.143,0.707,0.213c0.006-1.618,0.013-3.235,0.019-4.853
		c-0.069,0-0.14,0-0.209,0l0.851-7.653c0.18,0.046,0.357,0.092,0.535,0.138c0.009-1.221,0.02-2.442,0.027-3.663
		c-0.063,0.024-0.117,0.037-0.177,0.058l7.282-65.493c0.944-8.893,1.889-17.793,2.923-27.547l134.416,9.124
		c0.231,0.067,0.457,0.133,0.692,0.201c0,1.59,0,2.788,0,3.986c-0.004,2.411-0.008,4.821-0.013,7.231l-3.729,89.78
		c-0.068,0.87-0.125,1.738-0.203,2.609c-1.252,13.874-1.148,27.9-1.645,41.863l-0.202,4.881c-0.248,0.48-0.67,0.896-1.384,1.195
		c0,2.027,0,4.055,0,5.501c0.363,0.56,0.704,1.084,1.039,1.599l-0.185,4.419c-0.239,0-0.48,0-0.743,0c0,1.705,0,3.452,0,5.2
		c0.106,2.937,0.152,5.872,0.162,8.805l-1.207,29.067c-0.081,1.02-0.158,2.04-0.246,3.059c-0.172,1.983-0.217,3.98-0.321,6.007
		l-140.271,3.613c-0.92-9.049-1.569-18.156-3.067-27.084c-1.868-11.125,0.63-21.772,1.346-32.644
		c0.83-12.621,0.832-25.312,1.194-37.972l1.167-10.492c0.188,0,0.383,0,0.572,0C975.277,321.848,975.259,320.739,975.239,319.629z
		 M757.92,996.674c-3.293,11.666-11.229,17.229-21.272,18.898c-13.27,2.209-26.049-6.107-30.52-21.185
		c-0.851-2.863-1.044-5.975-1.271-7.347c-0.105-14.798,5.623-24.631,15.184-30.56c13.103-8.124,28.732-2.003,35.148,12.027
		C758.5,975.75,760.354,988.051,757.92,996.674z M781.544,938.443c4.567-13.513,9.385-26.708,9.479-41.679
		c2.977,4.47,5.933,8.955,8.936,13.4c3.041,4.501,5.959,9.128,9.242,13.393c3.265,4.237,6.918,8.095,11.557,13.451
		C806.74,937.056,794.615,940.345,781.544,938.443z M963.861,690.305c-0.303,19.72,0.066,39.56-1.406,59.173
		c-1.271,16.925,0.326,33.849-1.278,50.584c-1.745,18.204,0.252,36.466-1.449,54.489c-1.597,16.923,0.019,33.81-1.334,50.589
		c-0.73,9.05-0.953,18.05-1.222,27.089c-0.139,4.643,0.426,8.709,4.034,10.895c0,9.663,0,18.764,0,28.568
		c-3.287-0.521-6.382-0.723-9.346-1.531c-9.875-2.694-19.678-5.639-29.438-8.915c-0.475-0.159-0.941-0.337-1.414-0.501
		c-62.163-23.779-97.896-74.323-100.24-77.715c-3.839-6.215-7.223-12.772-10.574-19.351c-3.29-6.455-6.722-12.817-9.955-19.309
		c-2.016-4.047-3.435-8.156-3.385-13.134l16.972-442.677c0.623,0.057,1.243,0.107,1.864,0.138
		c10.737,0.519,21.468,1.057,32.086,3.117c0.453,0.087,0.928,0.012,1.392,0.039c9.179,0.523,18.56-0.089,27.476,1.917
		c7.952,1.79,16.121-0.684,23.794,2.715c0.406,0.18,0.921,0.042,1.384,0.066c9.411,0.526,18.834,0.871,28.229,1.634
		c8.841,0.719,17.653,1.88,26.874,2.89c1.067,9.337,1.565,18.305,3.259,26.977c1.262,6.468,0.862,12.851,1.257,19.269
		c3.029,49.221-0.313,98.545,1.668,147.73C964.39,626.837,964.349,658.583,963.861,690.305z M964.258,283.681
		c-0.428,6.698-0.713,13.408-1.026,20.116l-1.34,12.594c-0.18,0.514-0.313,1.025-0.297,1.534c0.044,1.365-0.529,2.98-0.329,4.359
		l-1.788,31.865c-0.394,3.537-0.5,7.096-0.598,10.655l-0.614,10.948c-0.199,1.762-0.468,3.519-0.852,5.266
		c-0.798,3.654-0.128,7.714-0.128,12.18c-6.799-0.155-13.145,1.679-19.381-1.203c-0.403-0.187-0.918-0.069-1.381-0.097
		c-8.936-0.527-17.964-0.342-26.78-1.79c-8.36-1.373-16.92-0.08-25.124-2.831c-0.643-0.216-1.384-0.05-2.079-0.088
		c-9.631-0.523-19.464,0.114-28.832-1.936c-7.947-1.738-16.105,0.727-23.771-2.694c-0.604-0.27-1.38-0.033-2.074-0.077
		c-4.55-0.293-9.109-0.591-13.769-0.896l6.931-180.779l153.005,1.417l-2.537,23.864c-0.855,5.438-1.592,10.875-1.742,16.394
		l-0.711,6.682c-0.179-0.035-0.354-0.078-0.525-0.143c-0.834,6.006-1.733,12.003-2.483,18.024
		C965.342,272.576,964.611,278.116,964.258,283.681z M1129.94,969.646c0.168,0.446,0.311,0.892,0.447,1.335l-6.496,42.226
		c-9.923-2.419-19.682-4.779-29.417-7.195c-12.132-3.009-24.265-6.016-36.369-9.147c-8.584-2.224-17.101-4.771-25.688-6.97
		c-11.677-2.988-23.41-5.688-35.085-8.687c-10.093-2.592-20.136-5.427-30.22-8.16c0-10.235,0-19.865,0-29.997
		c3.644-3.663,4.271-8.817,4.093-14.513c-0.261-8.343-0.598-16.758,0.061-25.045c1.563-19.712,0.135-39.541,1.608-59.142
		c1.291-17.174-0.299-34.34,1.271-51.336c1.61-17.405-0.114-34.858,1.42-52.108c1.735-19.498,0.536-38.948,1.238-58.398
		c0.001-0.037,0.007-0.073,0.011-0.109l171.111,3.428l-8.13,122.223c-0.007,0.016-0.01,0.03-0.015,0.046
		c-0.058,0.181-0.038,0.392-0.029,0.599l-4.313,64.837l-0.013,0.218c-0.049,0.456-0.078,0.919-0.082,1.391l-4.013,68.236
		c-0.605,6.594-1.713,13.131-2.309,19.728C1128.832,965.239,1129.193,967.658,1129.94,969.646z M1283.717,1029.267
		c-0.701,9.163-1.365,17.85-2.098,27.405c-25.07-6.932-49.726-13.754-74.383-20.563c-24.734-6.833-49.471-13.654-74.818-20.648
		c1.7-13.973,3.326-27.333,5.021-41.26c2.777-1.396,4.03-3.951,4.692-7.199v-0.002c0.237-1.168,0.401-2.422,0.529-3.747
		c0.762-7.85,1.841-15.652,2.394-23.525l1.894-17.667l8.093-124.945c0.02-0.138,0.028-0.278,0.026-0.424l4.287-66.199
		c0.15-1.222,0.222-2.468,0.242-3.734l0.688-10.615l1.744-13.146l77.346,8.074c0.087,0.051,0.177,0.094,0.263,0.146
		c0.188-0.021,0.362-0.041,0.55-0.062l14.618,1.525c0.129,0.173,0.259,0.346,0.388,0.519c1.415,0,2.8-0.064,4.179,0.01
		c0.344,0.019,0.688,0.038,1.03,0.057l27.903,2.913c0.672,2.271,1.285,4.342,1.894,6.399c0.079-2.038,0.159-4.089,0.241-6.177
		l19.371,2.021l-21.034,219.143h0.001c-0.444,3.756-0.869,7.475-1.258,11.195c-0.667,6.377-0.887,12.813-1.508,19.195
		c-0.791,8.124-1.871,16.211-2.666,24.333c-0.623,6.385-0.95,12.806-1.514,19.198c-0.245,2.777-0.721,5.533-1.142,8.291
		C1280.114,1023.555,1280.013,1027.155,1283.717,1029.267z M1410.491,728.597l-12.965,208.02c-0.856,7.047-1.86,14.948-2.729,22.881
		c-0.611,5.583-0.57,11.291-1.558,16.774c-1.844,10.257-1.138,20.566-1.361,30.863c-0.019,0.788-0.86,1.555-1.318,2.33
		c-0.014,8.87,0.212,17.752-0.098,26.608c-0.445,12.869-1.276,25.72-1.991,39.474c-16.802-2.715-33.589-5.256-50.323-8.184
		c-16.758-2.932-33.461-6.246-50.958-9.541c0.658-8.517,1.285-16.635,1.983-25.67c1.296-1.626,3.134-3.931,4.498-5.643
		c1.216-10.072,2.478-19.43,3.434-28.824c0.7-6.896,0.846-13.861,1.517-20.763c0.714-7.351,1.808-14.653,2.634-21.992
		c0.514-4.577,0.902-9.177,1.232-13.776c0.477-6.623,0.846-13.258,1.262-19.888l9.252-92.193c0.705-0.324,1.411-0.649,2.117-0.975
		c-0.499-0.698-0.996-1.397-1.496-2.097c-0.11,0.035-0.216,0.056-0.321,0.082l0.837-8.345c0.321,0.201,0.64,0.432,0.953,0.701
		c0.008-2.29-0.193-4.578-0.334-6.867l1.54-15.348c0.142-1.095,0.266-2.192,0.356-3.288c0.026-0.314,0.044-0.631,0.067-0.945
		l5.453-54.348c0.018-0.143,0.039-0.284,0.057-0.428c0.64-5.265,1.061-10.563,1.606-16.142c3.586,0,6.572,0,9.559,0
		c0.614,0,1.229,0,1.848,0l45.557,4.756c-0.005,0.444-0.013,0.878-0.013,1.344c1.87-0.094,3.18-0.159,4.487-0.225
		c-0.017-0.218-0.032-0.438-0.05-0.657l7.901,0.825C1398.799,727.604,1404.49,728.086,1410.491,728.597L1410.491,728.597z
		 M1428.066,613.765c-1.749,11.344-3.011,22.732-4.27,34.152c-1.668,15.15-4.481,30.139-6.702,45.215
		c-0.67,4.544-0.874,9.175-1.54,13.719c-0.32,2.181-1.22,4.251-1.912,6.558c-5.463-0.62-10.438-1.224-15.421-1.743
		c-1.605-0.167-3.214-0.155-4.825-0.13l-9.191-0.852c-0.34-0.109-0.681-0.229-1.021-0.368c-1.915-0.776-4.154-0.466-6.373-0.315
		l-10.679-0.988c-1.146-0.167-2.293-0.334-3.44-0.487c0.006,0.057,0.012,0.113,0.018,0.172l-200.38-18.543
		c-0.028-1.064-0.087-2.153-0.148-3.261l1.214-18.744l20.59-227.94c2.431-0.423,4.861-0.846,7.292-1.269
		c1.869-0.004,3.739-0.009,5.608-0.012c14.035-0.154,28.055,0.058,42.083-1.445c12.571-1.348,25.225-0.088,37.916-1.359
		c18.551-1.857,37.288-1.303,55.938-1.98c7.952-0.288,15.889-1.09,24.424-1.7l92.444-4.807c1.126,4.919,1.021,9.441,0.271,14.015
		c-0.37,2.255-0.698,4.528-0.885,6.812c-1.056,12.998-1.46,26.022-3.965,38.901c-2.18,11.2-2.91,22.749-4.46,34.11
		c-1.132,8.304-2.619,16.544-3.823,24.833c-0.696,4.797-1.147,9.636-1.711,14.455c-0.472,4.057-0.886,8.122-1.43,12.166
		C1431.859,586.546,1430.159,600.194,1428.066,613.765z M1640.065,899.551l-207.386-9.353c-0.003-0.02-0.009-0.036-0.011-0.055
		l12.687-167.599c0.297-2.293,0.588-4.587,0.876-6.882c1.521-12.118,3.021-24.24,4.61-37.007c7.956,0.88,15.761-1.604,23.413,1.559
		c0.617,0.256,1.381,0.065,2.076,0.084c19.631,0.518,39.256,1.187,58.887,1.428c4.239,0.053,8.529-1.247,12.735-2.252
		c5.316-1.27,8.651-5.57,11.21-10.554c2.171-4.227,3.926-8.724,5.846-13.11c0.4-0.913,0.957-1.847,1.035-2.812
		c0.547-6.665,0.968-13.342,1.463-20.012c0.437-5.892,0.924-11.776,1.38-17.666c0.436-5.63-1.057-11.445,1.313-16.896
		c0.187-0.427,0.044-1.032,0.064-1.554c0.472-11.896,0.856-23.797,1.448-35.687c0.431-8.63-1.877-16.717-3.458-24.962
		c-2.131-11.109-9.704-15.929-18.234-18.805c-5.802-1.956-12.029-3.021-18.093-3.163c-17.17-0.407-34.354-0.135-51.532-0.13
		c-2.292,0.001-4.584,0-7.429,0c3.323-18.951,4.307-37.754,6.964-56.543c2.017,0.743,3.274,1.537,4.574,1.633
		c8.478,0.628,16.99,0.786,25.438,1.714c9.539,1.047,19.201,0.58,28.63,2.96c0.888,0.225,1.854,0.023,2.778,0.081
		c3.624,0.229,7.274,0.291,10.916,0.425l12.554,1.184c0.415,0.075,0.832,0.134,1.245,0.22c3.734,0.775,7.461,0.923,11.175,0.95
		h0.001l13.314,0.431c0.096,0.012,0.19,0.021,0.286,0.032c16.083,2.082,32.229,1.156,49.109,1.568c0,6.759,0,13.196-0.002,19.636
		c0,3.15-0.06,6.306,0.004,9.454l0.006,91.929c0,2.981-0.06,5.548,0.011,8.11c0.439,16.578,0.889,33.155,1.375,49.732
		c0.718,24.399-0.19,48.782,1.032,73.236c0.544,10.878,0.701,21.776,0.755,32.684L1640.065,899.551z M1671.621,245.434
		c-4.475,19.147-9.097,38.25-13.623,57.383c-1.039,4.397-3.943,7.783-4.394,12.669c-0.859,9.354-2.624,18.6-3.899,27.909
		c-1.001,7.315-1.886,14.652-2.719,21.994c-0.577,5.086-1.075,10.189-1.434,15.3c-0.56,7.965-0.79,15.962-1.49,23.91
		c-0.692,7.878-1.965,15.692-2.671,23.569c-0.679,7.574-1.064,15.188-1.579,23.466l-61.177-4.331c0-4.802-0.001-9.205,0-13.604
		c0.006-12.018-0.824-24.123,0.189-36.029c2.172-25.489-0.153-51.048,1.528-76.436c0.93-14.041,0.415-28.007,1.188-41.685
		c-1.863-4.979-5.031-6.094-9.402-4.85c-5.116,4.137-4.322,10.96-4.46,16.729c-0.469,19.578,0.77,39.254-0.446,58.75
		c-1.626,26.031-0.544,52.03-1.229,78.026c-0.153,5.841-0.919,11.668-1.6,18.091l-83.038-5.878
		c-0.117-4.984-0.534-10.07,0.848-15.446c1.492-5.813,1.567-12.215,1.592-18.361c0.133-34.441,0.471-68.894-0.215-103.318
		c-0.18-9.059-0.769-18.342-2.163-27.511c-1.268-8.33-0.269-17.096-0.269-26.167c2.066-0.145,3.841-0.369,5.615-0.376
		c8.35-0.031,16.739-0.591,25.041,0.126c18.674,1.612,37.365,1.09,56.048,1.585c8.825,0.233,17.187-2.181,25.679-3.88
		c10.672-2.134,21.251-4.852,31.889-7.217c5.327-1.186,10.708-2.065,16.031-3.27l33.752-8.11
		C1674.062,234.138,1672.937,239.813,1671.621,245.434z"/>
</g>
<g id="water">
	<g>
		<path fill="#47A2DA" d="M1911.861,63.678c-11.756,17.578-23.355,35.288-34.909,53.036c-1.73,2.661-3.095,5.688-4.304,8.71
			c-7.718,19.307-15.583,38.544-22.896,58.043c-3.587,9.559-6.125,19.618-9.073,29.475c-2.175,7.274-4.307,14.565-6.44,21.856
			l-3.132,9.908c-0.093-0.033-0.187-0.065-0.279-0.098c-1.929,6.476-3.888,12.94-5.825,19.413l-0.017,0.049h0.001
			c-1.881,6.282-3.742,12.572-5.53,18.888c-2.876,10.158-5.393,20.446-8.046,30.683c-0.123,0.479-0.015,1.033-0.015,1.699
			l-13.948,112.475c-1.246,9.379-1.938,18.853-2.887,28.282c-0.489,4.846-0.603,9.792-1.59,14.507
			c-1.635,7.801-2.65,15.62-2.594,23.626c0.01,1.306,0.125,2.641-0.07,3.911c-1.483,9.632-2.768,19.28-2.713,29.092
			c0.008,1.305,0.076,2.625-0.065,3.913c-0.864,7.872-2.169,15.711-2.601,23.61c-0.778,14.23-0.728,28.525-1.082,42.762
			c-0.641,25.694-1.571,51.479,0.78,77.234c1.291,14.146-0.139,28.479,1.392,42.758c1.375,12.83-0.047,25.834,1.299,38.849
			c1.513,14.628-0.066,29.507,1.479,44.312c1.396,13.351,0.115,26.879,1.301,40.41c1.581,18.045,1.218,36.305,1.685,54.474
			c0.479,18.69,0.938,37.384,1.474,56.071l1.354,28.063l-0.19,18.433c-0.009,0.156-0.011,0.313-0.005,0.472l-0.005,0.41l0.031,0.021
			c0.099,1.104,0.41,2.242,0.468,3.314c0.082,1.488,0.947,2.93,0.993,4.41c0.535,16.849,1.045,33.699,1.419,50.553
			c0.18,8.086,0.055,16.179,0.067,24.27c0.464,0,0.929,0,1.394,0c0.465-2.466,1.354-4.939,1.316-7.396
			c-0.145-9.771-0.263-19.511-0.963-29.311c-1.038-14.493-0.212-29.134-1.234-43.688l0.002,0.001l-0.401-5.173l-0.14-16.331
			l-0.043-1.063c0.021-1.133,0.188-2.333-0.144-3.499l-1.188-29.104l-0.001,0.002c-0.055-9.458-0.298-18.889-1.184-28.352
			c-1.203-12.864-0.006-25.839-1.261-38.853c-1.411-14.636-0.094-29.518-1.537-44.304c-1.258-12.854,0.076-25.839-1.258-38.854
			c-1.472-14.362-0.021-28.989-1.513-43.522c-1.29-12.581-0.263-25.322-1.226-38.063c-1.248-16.493-1.165-33.185-1.51-49.778
			c-0.674-32.26-0.772-64.563,1.143-96.811c0.427-7.2,0.359-14.382,1.073-21.632c1.155-11.734,1.96-23.549,2.961-35.332
			c0.914-10.741,1.395-21.512,2.854-32.214c1.313-9.629,1.846-19.388,2.948-29.058c1.245-10.903,2.771-21.766,4.117-32.654
			c0.564-4.573,0.791-9.206,1.508-13.745c1.701-10.788,3.76-21.504,5.386-32.304c0.911-6.051,1.725-12.121,2.538-18.19l4.228-27.169
			c0.998-3.835,2.331-7.547,3.345-11.123c12.577-6.019,24.634-11.999,36.836-17.58c18.271-8.356,36.631-16.482,54.994-24.584
			c3.555-1.568,7.305-2.577,10.965-3.844c0-72.104,0-144.209,0-216.313C1918.198,55.696,1914.713,59.417,1911.861,63.678z"/>
		<path fill="#47A2DA" d="M1785.459,301.373c3.18-14.548,6.937-28.935,10.171-43.469c0.495-2.226,0.9-4.477,1.269-6.739h0.003
			l-0.015,0.075l3.166-15.96l5.291-28.651v-0.001c1.619-8.675,3.177-17.369,5.165-25.936c4.212-18.16,9.001-36.15,13.292-54.288
			c4.843-20.46,10.634-40.542,19.229-59.405c5.913-12.973,12.274-25.718,19.019-38.166c3.178-5.866,5.876-12.088,10.118-17.398
			c2.198-2.752,6.21-4.972,6.032-9.865c-10.217,0-20.436,0-30.652,0c-1.928,3.467-3.707,7.049-5.803,10.382
			c-10.529,16.747-21.016,33.517-28.397,52.415c-1.367,3.503-2.484,7.14-3.986,10.565c-7.834,17.864-14.222,36.396-19.651,55.311
			c-5.198,18.11-10.589,36.19-13.298,55.087c-0.483,3.375-1.729,6.611-2.928,11.041l-5.294,22.363l-2.811,13.215
			c-2.336,11.393-4.945,22.725-6.941,34.191c-2.784,15.981-7.292,31.521-8.751,47.865c-1.015,11.366-3.649,22.536-5.164,33.861
			c-1.253,9.367-1.924,18.834-2.854,28.257c-0.929,9.422-1.811,18.852-2.806,28.266c-0.888,8.382-1.657,16.792-2.925,25.106
			c-1.563,10.271-3.565,20.458-5.418,30.673c-2.485,13.707-4.987,27.41-7.525,41.105c-2.354,12.707-6.071,25.084-6.557,38.246
			c-0.184,5.021-1.814,9.95-2.483,14.975c-0.71,5.325-1.063,10.711-1.567,16.069c-0.504,5.359-0.824,10.751-1.55,16.072
			c-1.199,8.81-3.126,17.522-3.889,26.37c-0.954,11.054-1.297,22.2-1.408,33.313c-0.067,6.663,1.133,13.335,1.197,20.01
			c0.185,19.317,0.079,38.641,0.095,57.961c0.002,2.088-0.571,4.526,0.186,6.195c1.941,4.285,0.795,8.706,1.211,13.028
			c0.418,4.325,1.08,8.628,1.332,12.963c0.584,10.057,0.983,20.125,1.457,30.188c0.024,0.521-0.094,1.098,0.063,1.558
			c2.968,8.646,0.822,17.83,2.396,26.778c1.768,10.037,1.247,20.584,1.72,30.909c0.022,0.521-0.036,1.055,0.04,1.563
			c1.67,11.175,2.42,22.436,2.78,33.753c0.255,7.984,0.9,15.952,1.382,23.929c0.03,0.508,0.143,1.01,0.216,1.515
			c1.307,9.058,2.836,18.085,3.847,27.184c0.186,1.66,0.407,3.753,0.646,6.007l-0.166,86.504h0.008
			c-0.184,2.999-0.301,6.002-0.354,9.005c-0.272,15.395-0.062,30.801-0.055,46.201c12.54,0,25.08,0,37.62,0
			c-0.468-18.063-0.935-36.124-1.398-54.188c-0.014-0.52,0.065-1.06-0.036-1.554l0.134-38.085l-0.025-0.175
			c0.051-0.471-0.014-0.912-0.207-1.356l-5.161-33.884c0.159-1.286-0.29-2.715-0.383-3.885c-0.671-8.399-2.245-16.738-2.521-25.141
			c-0.438-13.396-1.6-26.684-2.792-40.007c-1.034-11.561-1.072-23.235-1.544-34.86c-0.042-1.042,0.196-2.167-0.073-3.118
			c-2.907-10.258-0.935-20.953-2.386-31.453c-1.754-12.706-1.253-25.808-1.725-38.736c-0.021-0.521,0.106-1.091-0.037-1.558
			c-3.067-9.967-0.964-20.426-2.396-30.67c-1.813-12.956-1.299-26.324-1.801-39.515c-0.02-0.515-0.175-1.021-0.266-1.534
			l-1.193-23.305l-1.215-43.836c0.384-9.283-0.972-18.596,1.215-27.876c1.271-5.394,0.999-11.223,1.94-16.744
			c2.003-11.737,4.467-23.373,6.517-35.102c2.488-14.242,4.585-28.572,7.141-42.798c3.041-16.94,6.561-33.772,9.552-50.723
			c2.6-14.738,4.243-29.709,7.229-44.339c3.815-18.701,6.521-37.541,8.195-56.604c0.382-4.328,0.924-8.642,1.5-12.944
			c1.313-9.834,2.74-19.649,4.031-29.488C1784.185,312.527,1784.273,306.802,1785.459,301.373z"/>
	</g>
	<path fill="#47A2DA" d="M0,321l111.5-3c0,0,110.825-14.729,152.5-36c48-24.5,85.5-40.324,107-39.135
		c23.564,1.303,23.942,5.89,50.94,15.135s61.181,8.544,46.182,16.327c-14.999,7.783-21,4.666-65.996-12.525
		c-44.997-17.191-63.745,0.244-90.37,12.525c-26.625,12.281-58.123,35.986-118.12,44.383S31.498,343.14,0,333.583V321z"/>
</g>
<g id="buildings">
	<g>
		<path fill="#CCCCCC" d="M253.607,94.239c12.431,1.375,24.895,0.537,37.249,1.689c6.396,0.596,12.898,0.242,19.153,1.434
			c13.813,2.633,27.655,0.612,41.457,1.416c6.854,0.399,13.699,1.03,20.551,1.556c0.678-0.106,1.355-0.21,2.79-0.433
			c0-4.217-0.125-8.526,0.023-12.824c0.393-11.261,0.904-22.517,1.368-33.776c0-1.049,0-2.099,0-3.148
			c0-8.548-0.18-17.103,0.055-25.643c0.209-7.655,0.874-15.295,1.337-22.942c-9.289,0-18.578,0-27.867,0c0,15.876,0,31.753,0,48.658
			c-5.492-0.572-10.58-1.316-15.688-1.575c-5.268-0.266-10.554-0.059-15.763-0.059c1.493-16.081,0.511-31.567,0.797-47.025
			c-15.327,0-30.652,0-45.979,0c-0.562,14.894-1.121,29.786-1.697,45.098c-8.506-0.561-16.844-1.111-25.6-1.688
			c-2.39-7.104,1.411-14.253,0.928-21.598c-0.475-7.233-0.104-14.538-0.104-21.811c-7.431,0-14.861,0-22.293,0
			c-1.189,20.214-1.6,40.447-1.472,60.707c0.033,5.092-1.035,10.181-1.264,15.29c-0.232,5.176-0.051,10.376-0.051,16.044
			c2.09,0.165,3.861,0.415,5.636,0.423C235.99,94.074,244.875,93.274,253.607,94.239z"/>
		<path fill="#CCCCCC" d="M13.933,81.138c29.815,0,59.12,0,89.173,0c0-26.592,0-53.082,0-79.571c-13.469,0-26.938,0-40.405,0
			c0,12.221,0,24.442,0,37.138c-8.76,0-17.204,0-26.474,0c0-12.315,0-24.727,0-37.138c-6.967,0-13.934,0-20.899,0
			c-1.579,23.824-1.491,47.688-1.396,71.554C13.941,75.672,13.933,78.223,13.933,81.138z"/>
		<path fill="#CCCCCC" d="M8.204,28.042C9.111,19.331,8.359,10.399,8.36,1.567c-2.321,0-4.645,0-6.966,0c0,28.215,0,56.43,0,84.645
			c1.76-0.128,3.521-0.255,5.415-0.393C7.49,66.204,6.22,47.101,8.204,28.042z"/>
		<path fill="#CCCCCC" d="M1553.492,689.248c0,39.08,0,78.23-0.003,117.385c0,0.26-0.005,0.536-0.083,0.773
			c-0.072,0.227-0.232,0.424-0.378,0.612c-0.151,0.197-0.328,0.369-0.976,1.087c-11.922,0.396-24.344,0.988-36.767,1.172
			c-14.152,0.209-28.313,0.049-42.469,0.063c-0.672,0.001-1.346,0.149-2.114,0.24c-0.677,1.354-1.342,2.685-1.628,3.258
			c0.337,3.757,0.827,6.773,0.839,9.792c0.074,18.536,0.039,37.073,0.04,55.61c0.093,1.468,0.183,2.938,0.293,4.747
			c2.113,0,3.716,0.087,5.312-0.017c7.554-0.481,15.111-1.571,22.654-1.433c28.209,0.523,56.458-1.845,84.629,1.393
			c0.162-0.943,0.324-1.889,0.525-3.063c6.354,0,12.369,0.136,18.379-0.038c6.157-0.178,12.373,0.764,18.439-0.573
			c1.255-27.957,0.667-185.573-0.693-191.934C1599,687.146,1558.993,687.662,1553.492,689.248z"/>
		<path fill="#CCCCCC" d="M379.215,564.229c-8.096,0.181-16.302,1.007-24.271-0.135c-15.868-2.271-31.737-0.729-47.586-1.414
			c-5.452-0.234-10.887-0.981-16.33-1.494c0,7.005,0,14.01,0,21.5c-6.431,0.445-12.502,1.303-18.999-1.036
			c-0.639,6.905-1.676,13.675-1.809,20.467c-0.28,14.283-0.085,28.578-0.085,43.579c-8.115-0.008-15.805,1.117-23.681-2.396
			c0-12.607-1.021-25.474,0.312-38.023c1.131-10.646,0.742-21.164,1.041-31.732c0.595-20.985,0.9-41.981,1.48-62.967
			c0.141-5.102,0.882-10.18,1.348-15.27c-1.117-0.515-2.227-1.45-3.352-1.476c-6.317-0.141-12.639-0.063-18.957-0.059
			c-0.453,10.056-0.132,20.074-1.079,30.199c-1.538,16.45-0.55,33.109-1.403,49.726c-1.517,29.562-1.227,59.241-1.692,88.872
			c-0.021,1.305,0.191,2.683-0.106,3.901c-2.873,11.746-0.51,23.563-1.259,34.967c6.687,0.855,12.555,2.108,18.445,2.265
			c15.67,0.413,31.374-0.508,46.996,1.679c0.005-1.56-0.011-3.117,0.021-4.676c0.464-23.253,0.93-46.507,1.427-69.759
			c0.015-0.689,0.373-1.369,0.792-2.815c0.874,0.889,1.418,1.442,1.963,1.997c16.135,0.585,32.255-0.496,48.432,1.303
			c15.796,1.757,31.847-1.103,47.687,1.84c0.008-0.525,0.015-1.052,0.021-1.576c0.463-7.17,0.961-14.334,1.375-21.506
			c0.325-5.621-0.382-11.229,1.197-16.884c0.917-3.28,0.955-7.644-0.24-10.717c-1.744-4.484-0.462-7.377,1.811-10.083
			c0-3.547,0-6.672,0-9.796c-2.312,0.003-4.622,0.006-6.934,0.009C383.591,563.246,381.41,564.179,379.215,564.229z"/>
		<path fill="#CCCCCC" d="M1375.413,871.765c-4.317-1.291-8.998-0.57-13.583-1.556c-6.918-1.484-14.139-1.077-21.191-1.891
			c-6.071-0.699-12.076-2.1-18.137-2.946c-2.479-0.346-5.024-0.057-8.041-0.057c-0.568,6.645-1,12.985-1.683,19.295
			c-0.794,7.335-1.944,14.623-2.686,21.966c-0.668,6.635-0.888,13.327-1.488,19.973c-0.854,9.412-0.813,18.93-2.658,28.235
			c-0.395,1.993,0.032,4.173-0.128,6.247c-0.452,5.874-0.76,11.784-1.594,17.595c-1.078,7.51-2.728,14.913-3.918,22.404
			c-1.515,9.517-2.825,19.072-4.187,28.618c-0.105,0.743,0.095,1.543,0.184,2.709c13.493,2.636,26.999,5.601,40.599,7.837
			c13.581,2.234,27.021,5.726,40.858,7.071c1.743-12.871,3.37-24.938,5.055-36.994c0.045-0.325,0.705-0.541,1.079-0.808
			c0.458-0.776,1.301-1.542,1.318-2.33c0.225-10.297-0.481-20.606,1.361-30.862c0.986-5.484,0.945-11.192,1.558-16.775
			c0.939-8.591,2.041-17.158,2.94-24.628c1.562-3.914,3.399-6.792,3.81-9.909c0.896-6.83,1.048-13.782,1.554-20.68
			c0.109-1.512,0.489-2.996,0.646-4.508c0.789-7.562,1.546-15.127,2.252-22.086c-1.37-1.405-2.172-2.229-2.973-3.052
			C1389.525,872.469,1382.343,873.835,1375.413,871.765z"/>
		<path fill="#CCCCCC" d="M1604.274,935.991c-52.798,0-104.706,0-156.452,0c-0.874,1.655-1.625,3.077-2.376,4.499
			c-0.449,1.044-1.165,2.05-1.294,3.141c-0.271,2.305-0.085,4.677-0.357,6.979c-0.751,6.313-1.7,12.598-2.432,18.914
			c-0.14,1.199,0.251,2.53,0.589,3.733c1.226,4.346,1.092,8.491-0.565,12.748c-0.884,2.271-1.232,4.898-1.398,7.401
			c-0.239,3.636,0.117,7.325-0.166,10.954c-0.436,5.576-1.198,11.122-1.729,15.853c1.608,1.682,2.402,2.508,3.193,3.336
			c11.121,0,22.255,0,33.637,0c-0.38,11.412-0.746,22.482-1.119,33.69c10.509,0.854,19.866,1.67,29.23,2.357
			c7.544,0.557,15.056,0.096,22.677,1.269c11.343,1.745,22.941,1.39,34.433,1.878c5.713,0.242,11.495-0.733,17.089,1.499
			c0.705,0.281,1.681-0.294,2.425-0.45c0.355-6.342,0.212-12.354,1.146-18.144c1.006-6.223,0.306-12.253,0.573-18.164
			c-6.731-0.833-12.816-1.777-18.931-2.289c-5.694-0.476-11.356-0.383-17.103-1.354c-9.035-1.528-18.307-1.286-27.476-1.853
			c-7.778-0.48-15.556-1.033-23.334-1.589c-0.664-0.048-1.317-0.345-1.969-0.559c-4.874-1.588-9.739-1.177-15.027-0.683
			c0-7.789,0-15.035,0-22.275c-2.597-4.984-0.926-10.451-1.396-15.678c-1.749-0.828-3.498-1.656-5.116-2.422c0-4.893,0-9.7,0-14.974
			c15.397,1.101,30.306-0.375,45.328,1.413c13.533,1.61,27.34,0.141,41.021,0.401c13.811,0.263,27.612,1.01,41.42,1.479
			c1.758,0.06,3.527-0.288,5.533-0.472c0-5.436,0.006-10.372-0.003-15.309C1604.317,946.223,1604.291,941.118,1604.274,935.991z"/>
		<path fill="#CCCCCC" d="M748.676,88.533c0,5.406,0,10.331,0,15.256c0,5.11,0,10.219,0,15.346
			c-4.241,0.227-7.605,0.406-10.844,0.579c-0.279,3.481-0.5,6.222-0.706,8.775c-6.567,0-12.528,0-19.017,0c0-4.08,0-7.892,0-12.41
			c-6.643-2.208-13.285-1.642-19.655-2.814c-6.657-1.227-13.476-1.362-20.331-1.983c-0.675,10.427-1.393,19.877-1.857,29.342
			c-0.243,4.936-0.042,9.899-0.042,14.851c0.924,0.511,1.83,1.417,2.775,1.473c11.007,0.642,21.993-0.189,33.067,1.318
			c10.877,1.479,21.999,0.229,33.021,1.73c9.542,1.3,19.306-1.154,28.87,1.617c2.064,0.599,4.399,0.012,6.281-0.023
			c1.813-13.632,3.491-26.26,5.355-40.286c0.265-0.427,1.293-2.085,1.37-2.208c0.8-8.943,1.439-16.093,2.079-23.244
			c-0.737-2.483-1.475-4.966-2.174-7.319C774.207,88.533,761.594,88.533,748.676,88.533z"/>
		<path fill="#CCCCCC" d="M1602.158,311.684c-3.134,0.27-6.4-0.855-9.603,0.86c0,38.5,0,76.792,0,115.083
			c0.743,1.438,1.485,2.877,2.215,4.291c11.229,0,22.471,0,33.7,0c0.142-1.2,0.231-1.971,0.322-2.742c0-39.519,0-79.037,0-119.065
			c-3.426,0-6.403-0.787-8.855,0.156C1614.034,312.537,1608.071,311.175,1602.158,311.684z"/>
		<path fill="#CCCCCC" d="M1394.325,800.886c-9.462-1.846-18.957-3.107-28.571-3.045c-0.929,0.006-1.886,0.121-2.777-0.085
			c-9.198-2.124-18.536-2.555-27.873-3.04c-0.003,0.526-0.006,1.053-0.009,1.579c-0.461,4.309-1.115,8.604-1.348,12.928
			c-0.579,10.823-0.969,21.658-1.434,32.489c-0.022,0.521,0.118,1.134-0.077,1.55c-2.313,4.914-1.012,10.029-1.275,15.418
			c4.28,0.678,8.061,1.365,11.862,1.85c3.748,0.478,7.517,0.749,11.628,1.144c0.53-5.776,1.321-11.341,1.468-16.926
			c0.113-4.414,0.513-8.564,2.264-11.988c4.084,0,7.717,0,11.211,0c2.499,10.523-2.698,20.659-0.257,30.61
			c9.395,0.652,18.322,1.275,27.248,1.897c0.479-1.161,1.258-2.281,1.387-3.491c1.008-9.408,2.12-18.813,2.751-28.259
			c0.724-10.824,0.985-21.689,1.446-32.539C1399.418,800.971,1396.805,801.369,1394.325,800.886z"/>
		<path fill="#CCCCCC" d="M1503.834,157.354c0,24.059,0,47.13,0,70.568c16.852,0,33.282,0,49.716,0
			c0.475-0.762,1.362-1.524,1.362-2.286c0.027-22.773-0.313-45.553,1.385-68.282C1538.774,157.354,1521.25,157.354,1503.834,157.354
			z"/>
		<path fill="#CCCCCC" d="M1542.995,590.247c0-14.533,0-28.751,0-43.428c-11.138,3.479-22.009,0.68-33.172,2.217
			c0,2.827-0.05,5.383,0.009,7.937c0.447,19.422,0.945,38.841,1.363,58.264c0.117,5.469-0.017,10.943,0.035,16.416
			c0.021,1.989,0.245,3.978,0.367,5.818c0.9,0.224,1.338,0.426,1.775,0.428c9.033,0.027,18.066,0.035,27.101,0.047
			c0.93-1.301,2.562-2.53,2.67-3.911c0.678-8.618,1.014-17.271,1.463-25.911c-1.892-4.046-1.872-7.057,0.068-10.929l-0.011,0.016
			c-0.003-0.529-0.006-1.059-0.009-1.587c0.448-1.577,0.896-3.153,1.343-4.729C1545.16,590.712,1544.321,590.532,1542.995,590.247z"
			/>
		<path fill="#CCCCCC" d="M1150.861,655.188c-0.456-1.295-1.293-2.585-1.309-3.886c-0.11-9.646-0.038-19.297-0.07-28.943
			c-0.008-2.516-0.182-5.028-0.296-7.971c-5.344,0-10.419,1.059-14.97-0.229c-8.275-2.341-16.386-0.493-24.843-1.314
			c0,16.497,0,32.27,0,48.751c4.259,0.502,8.278,1.299,12.312,1.389c9.269,0.205,18.543,0.063,27.813,0.063
			C1152.266,660.935,1150.277,657.78,1150.861,655.188z"/>
		<path fill="#CCCCCC" d="M1394.755,337.853c-0.612-6.499-1.069-13.017-1.556-19.144c-9.279,0-17.692,0-26.351,0
			c0,5.673,0.091,10.84-0.063,15.999c-0.037,1.302-0.853,2.574-1.312,3.86c0.729,5.133,1.456,10.267,2.263,15.96
			c3.331,0,6.646,0,9.921,0c0.16,1.328,0.252,2.084,0.343,2.84c5.387-1.395,10.771-2.79,16.082-4.165
			c0.641-3.163,1.325-6.551,2.014-9.939C1393.616,342.113,1394.93,339.697,1394.755,337.853z"/>
		<path fill="#CCCCCC" d="M1635.328,491.396c-10.16-1.338-19.847-2.727-29.557-3.859c-10.186-1.189-20.395-2.111-30.586-3.215
			c-1.329-0.146-2.611-0.807-3.94-0.999c-1.965-0.284-3.954-0.362-6.645-0.588c0,5.167,0.822,9.375-0.212,12.894
			c-1.23,4.188-1.044,7.996-0.685,13c2.308,0.28,4.464,0.602,6.63,0.794c6.6,0.592,13.303,0.52,19.773,1.865
			c6.716,1.396,13.354,2.917,20.209,2.858c1.618-0.015,3.268-0.154,4.852,0.127c5.12,0.907,10.203,2.075,15.329,2.93
			c1.214,0.202,2.537-0.428,3.964-0.704C1633.273,507.654,1637.502,499.432,1635.328,491.396z"/>
		<path fill="#CCCCCC" d="M1563.152,483.042c-10.178-1.705-20.076-3.363-29.97-5.021c-1.121,8.811-2.127,16.71-3.117,24.485
			c10.324,1.688,20.085,3.282,29.845,4.876C1560.977,499.377,1562.032,491.446,1563.152,483.042z"/>
		<path fill="#CCCCCC" d="M1890.125,785.251c-1.943,0.71-3.121,1.142-4.676,1.71c-4.417-13.137-8.644-25.704-12.879-38.305
			c9.154-3.806,17.954-7.46,27.27-11.33c-2.047-5.503-3.764-10.115-5.209-14.005c-3.884-0.347-6.932-0.618-10.376-0.927
			c-3.637-10.822-7.298-21.724-11.218-33.389c-21.134,8.884-42.05,17.678-63.521,26.703c3.452,10.723,6.817,21.192,10.194,31.658
			c3.315,10.277,6.146,20.801,10.104,30.757c4.029,10.136,5.948,21.309,11.321,30.94c5.365-2.318,10.199-4.405,15.694-6.779
			c4.229,13.287,8.384,26.347,12.515,39.333c6.348-0.56,29.743-11.107,34.228-15.552
			C1899.125,812.564,1894.616,798.881,1890.125,785.251z"/>
		<path fill="#CCCCCC" d="M1823.185,606.121c0.702-8.125,1.688-16.01,2.004-23.928c0.673-16.833,0.984-33.686,1.476-50.528
			c0.061-2.05-0.057-4.242,0.545-6.111c1.39-4.329,0.957-8.492,0.283-12.853c-8.035,0-15.678,0-24.001,0
			c-0.688,3.569-1.726,6.757-1.852,9.99c-0.623,15.791-1.019,31.595-1.459,47.395c-0.095,3.391,0.66,7.041-0.212,10.13
			c-2.314,8.203-0.58,16.296-1.201,24.321C1807.465,605.734,1815.304,607.884,1823.185,606.121z"/>
		<path fill="#CCCCCC" d="M1820.074,470.042c8.717,0,16.995,0,26.469,0c0.776-25.874,2.81-50.984,2.336-76.15
			c-9.576-0.887-18.328-3.345-27.952-1.392C1822.447,418.356,1818.128,444.046,1820.074,470.042z"/>
		<path fill="#CCCCCC" d="M1634.113,132.206c0.978-19.504,0.578-50.982-0.771-56.97c-2.724,0-5.5,0.004-8.277-0.001
			c-5.107-0.008-10.448,1.052-15.268-0.279c-7.85-2.166-15.57-0.54-23.77-1.414c0,20.474,0,39.912,0,59.308
			C1600.357,133.949,1628.991,133.542,1634.113,132.206z"/>
		<path fill="#CCCCCC" d="M1310.265,68.973c2.354,0,4.63,0.009,6.907-0.001c24.733-0.104,49.48,0.551,74.185-1.543
			c2.438-0.207,4.899-0.1,7.282-0.137c0-13.421,0-25.883,0-38.804c-1.215-0.151-1.678-0.275-2.137-0.256
			c-18.918,0.797-37.863-1.398-56.795,1.353c-7.991,1.162-16.229,0.195-24.353,0.196c-2.229,0-4.462,0-7.022,0
			c0,9.513-0.19,18.107,0.082,26.683C1308.543,60.472,1309.565,64.446,1310.265,68.973z"/>
		<path fill="#CCCCCC" d="M1341.033,115.76c4.51,0,8.627,0,13.251,0c2.82-5.833,0.895-11.949,1.344-18.229
			c-5.195,0-9.913,0-15.317,0C1340.774,104.182,1339.549,110.106,1341.033,115.76z"/>
		<path fill="#CCCCCC" d="M1551.99,13.009c-16.536,0-32.402,0-48.179,0c0,18.85,0,37.222,0,55.491c16.291,0,32.158,0,48.179,0
			C1551.99,49.84,1551.99,31.655,1551.99,13.009z"/>
		<path fill="#CCCCCC" d="M878.946,159.14c4.861,0.417,9.678,0.121,14.611,1.137c7.171,1.477,14.625,1.251,21.961,1.657
			c9.396,0.52,18.797,0.947,28.196,1.413c0.207,0.01,0.424-0.035,0.617,0.023c8.75,2.615,17.878,0.606,26.662,2.762
			c1.159-0.093,2.317-0.187,3.947-0.318c0.362-8.456,0.703-16.425,1.042-24.394c0.021-0.462-0.064-0.951,0.043-1.383
			c2.321-9.346,0.732-19.083,2.324-28.543c0.975-5.792,0.75-11.826,1.431-17.698c1.038-8.954,2.396-17.862,3.618-26.789
			c-0.405-0.46-0.811-0.92-1.216-1.381l0.001,0.002c-12.614-0.599-25.229-1.198-38.406-1.823
			c-2.474,15.465-5.062,31.651-7.745,48.431c-3.269-0.758-5.791-1.718-8.351-1.871c-10.436-0.623-20.887-0.884-31.321-1.51
			c-6.052-0.363-12.084-1.166-18.661-1.825c0.779-4.342,1.725-8.258,2.141-12.244c0.681-6.546,3.509-12.647,3.067-19.4
			c-3.013-0.245-4.233,2.641-5.8,4.56c-8.421,10.324-11.973,7.4-18.382-0.438c-0.893-1.09-1.273-2.707-1.892-4.079
			c-1.899,0.159-2.894-1.031-3.786-2.78c-0.384-0.75-1.563-0.985-2.38-1.455c-2.339,6.014-1.122,12.587-2.356,18.835
			c-1.09,5.529-0.305,11.565-1.62,16.988c-1.118,4.612-0.561,9.125-1.189,13.628c-0.842,6.025-1.572,12.069-2.343,18.046
			c5.354,6.659,10.547,13.123,14.837,18.46C865.955,157.914,872.447,158.583,878.946,159.14z"/>
		<path fill="#CCCCCC" d="M1054.545,61.573c0.549-7.521,1.064-14.601,1.582-21.681c-1.431-0.519-2.829-1.226-4.294-1.52
			c-3.192-0.64-6.418-1.07-9.63-1.586c-1.812,1.215-3.621,2.431-5.23,3.511c-0.325,3.744-0.205,7.166-1.01,10.286
			c-0.861,3.342-1.086,6.369-0.15,9.22C1042.262,60.413,1048.263,60.98,1054.545,61.573z"/>
		<path fill="#CCCCCC" d="M1057.56,60.833c5.948,3.609,11.788,2.539,18.067,2.452c0.498-7.132,0.956-13.703,1.415-20.275
			c-3.877-2.589-8.412-1.796-12.541-3.092c-1.537,0.741-3.073,1.482-5.283,2.548C1055.834,47.839,1058.138,54.608,1057.56,60.833z"
			/>
		<path fill="#CCCCCC" d="M1293.018,804.899c-7.162-0.829-13.699-1.86-20.266-2.274c-8.007-0.505-15.998-0.529-24.035-1.354
			c-14.881-1.523-29.898-1.342-44.86-1.869c-0.155,0.958-0.312,1.915-0.433,2.652c-12.559-1.069-24.729-2.106-36.894-3.145
			c-0.127-1.087-0.217-1.855-0.307-2.623c-0.465,0.508-1.313,0.991-1.338,1.525c-0.544,11.346-0.99,22.695-1.47,34.047
			c-0.106,2.575,0.287,5.398-0.523,7.667c-1.211,3.382-0.918,6.43-0.502,9.469c4.255,0.771,8.03,1.754,11.85,2.083
			c6.149,0.531,12.276,0.37,18.483,1.326c8.572,1.316,17.373,0.234,26.085,1.72c6.979,1.188,14.101,0.291,21.25,1.412
			c10.873,1.705,21.999,1.406,33.021,1.86c5.251,0.217,10.56-0.587,15.687,1.512c0.707,0.289,1.687-0.265,2.848-0.485
			c0-3.701-0.006-7.057,0.002-10.412c0.012-4.694-0.808-9.641,0.227-14.033C1294.146,824.182,1292.28,814.496,1293.018,804.899z"/>
		<path fill="#CCCCCC" d="M1236.946,715.881c-6.449-3.935-14.313-3.169-21.876-4.271c-1.577,2.321-4.204,3.855-4.186,7.367
			c0.037,6.729,0.011,13.458,0.011,20.873c6.701,0,12.857,0,18.749,0c2.204,6.396-1.313,13.104,2.201,18.06
			c0.827,0.442,1.029,0.644,1.239,0.651c12.66,0.557,25.321,1.09,37.98,1.651c1.136,0.05,2.354,0.029,3.382,0.479
			c4.249,1.854,8.475,1.086,13.061,0.629c0-11.678,0-22.877,0-34.077c-0.731-2.472-1.463-4.944-2.304-7.783
			c-9.423-0.527-18.973-1.071-28.523-1.586c-1.379-0.074-2.764-0.01-4.179-0.01c-0.749-1.001-1.464-1.953-2.575-3.435
			C1246.004,714.868,1241.75,715.344,1236.946,715.881z"/>
		<path fill="#CCCCCC" d="M1288.115,772.668c-10.868-1.923-21.817-2.433-32.773-3.057c-7.091-0.404-14.173-1.016-21.257-1.564
			c-0.668-0.052-1.347-0.258-1.979-0.518c-4.697-1.922-9.387-1.054-14.11-0.488c-0.734,7.375,0.563,14.412-1.479,21.262
			c-0.521,1.751,0.673,4.15,0.952,5.599c8.072,0.869,15.111,1.801,22.175,2.342c9.164,0.701,18.347,1.092,27.522,1.611
			c0.463,0.025,0.964-0.113,1.387,0.036c8.416,2.998,17.352,0.53,25.801,3.119c0.036-1.523-0.038-3.064,0.127-4.572
			c0.86-7.896,1.78-15.786,2.68-23.68C1294.14,772.754,1291.061,773.189,1288.115,772.668z"/>
		<path fill="#CCCCCC" d="M1196.865,962.099c5.146,0,9.43,0,13.889,0c-0.212-5.521,0.726-10.4-0.576-15.146
			c-8.354-0.604-16.353-1.179-24.351-1.762c-6.386-0.465-12.741,0.403-19.205-1.272c-4.447-1.153-9.534-1.071-14.066,0.414
			c0,9.771,0,19.096,0,29.394c6.335,0.429,12.435,0.938,18.542,1.222c3.937,0.183,7.884,0.039,11.826,0.042
			c4.646-0.005,9.295-0.008,13.941-0.012C1196.865,970.902,1196.865,966.827,1196.865,962.099z"/>
		<path fill="#CCCCCC" d="M1234.793,970.18c7.681,0.099,15.273,3.603,23.793,0.646c0-7.749,0-15.615,0-23.915
			c-8.957-0.556-18.302-1.177-27.649-1.692c-2.773-0.152-5.564,0.09-8.335-0.083c-0.708-0.043-1.372-0.983-2.057-1.513
			c-2.778-0.004-5.56-0.008-8.339-0.011c0,8.048,0,16.096,0,24.157C1219.646,971.869,1227.337,970.084,1234.793,970.18z"/>
		<path fill="#CCCCCC" d="M1259.578,982.807c-0.471,0.006-0.94,0.012-1.412,0.017c-0.16-0.951-0.32-1.903-0.52-3.074
			c-11.532-0.384-22.767,0.331-33.992-1.425c-7.047-1.104-14.34-0.21-21.521-0.21c-5.737-0.002-11.476-0.002-17.497-0.002
			c0,7.524,0,14.417,0,21.947c12.287,0,24.282-0.208,36.269,0.061c11.842,0.265,23.674,1.009,35.879,1.56
			c0-3.819-0.125-6.666,0.063-9.486c0.069-1.068,0.855-2.077,1.314-3.113c0.004,3.738,0.104,7.479-0.055,11.211
			c-0.041,0.997-0.869,1.952-1.336,2.926c0,3.543,0,7.087,0,10.505c6.867,0.764,12.785,3.455,19.186,1.342
			c0.572-5.259,1.373-10.528,1.659-15.834c0.288-5.345,0.064-10.722,0.064-16.421
			C1271.084,982.807,1265.332,982.807,1259.578,982.807z"/>
		<path fill="#CCCCCC" d="M1400.552,479.826c-7.503,0.436-14.827-3.841-21.993-1.135c-0.695,5.304-1.576,10.088-1.899,14.92
			c-0.567,8.482-0.021,16.946-1.178,25.521c-1.265,9.359-0.249,19.033-1.507,28.595c-1.135,8.636-0.012,17.446-1.292,26.284
			c-1.317,9.084-0.118,18.505-1.479,27.815c-1.144,7.827-0.522,15.892-1.292,23.914c-1.427,14.904-1.212,30.011-1.667,45.033
			c-0.063,2.086,0.483,4.406-0.146,6.226c-2.469,7.108-0.753,14.269-1.148,21.58c12.544,0.598,24.637,1.175,36.853,1.757
			c0.455-1.417,0.897-2.801,1.306-4.068c2.366,0.537,4.561,1.036,6.996,1.591c0.773-9.386,1.556-17.557,2.09-25.747
			c0.504-7.706,0.071-15.377,1.165-23.172c1.495-10.661,1.16-21.645,1.66-32.486c0.393-8.497-0.09-16.943,1.098-25.529
			c1.327-9.604,0.222-19.561,1.543-29.371c1.062-7.86,0.17-15.877,1.266-23.936c1.52-11.186,1.23-22.686,1.646-34.054
			c0.234-6.428-0.656-12.938,1.338-19.232c0.25-0.791-0.274-1.892-0.56-3.538C1415.61,480.404,1408.048,479.392,1400.552,479.826z"
			/>
		<path fill="#CCCCCC" d="M1198.264,446.418c-0.483-0.032-0.92-0.962-1.38-1.473c-1.869,0.003-3.739,0.007-5.608,0.011
			c0.1,18.359,0.146,36.71-1.334,55.03c-0.724,8.951-0.957,17.954-1.473,26.928c-0.058,0.98-0.65,1.914-0.767,2.902
			c-0.547,4.671-1.806,9.412,0.794,13.861c4.148-0.003,8.305-0.175,12.444,0.027c8.419,0.411,16.832,1.001,25.241,1.616
			c0.479,0.034,0.906,0.977,1.359,1.496c2.689,0,5.379,0,8.111,0c0.571-12.041,1.086-23.097,1.631-34.15
			c0.075-1.529,0.271-3.053,0.447-4.574c0.37-3.209,0.763-6.415,1.009-8.471c-3.303-5.375-8.315-0.717-11.814-5.327
			c7.936-1.765,15.255,0.017,22.491-1.15c0.723-14.604,3.027-28.828,1.353-43.103c-8.648-0.688-16.849-1.42-25.058-1.972
			C1216.566,447.456,1207.41,447.025,1198.264,446.418z"/>
		<path fill="#CCCCCC" d="M1190.922,681.27c3.551-1.084,4.066,2.838,5.926,4.547c5.12,0.521,10.239,1.046,15.357,1.568
			c0.162-0.95,0.325-1.9,0.591-3.45c7.772,0,15.301,0,23.096,0c0-9.772-0.11-18.877,0.048-27.976
			c0.077-4.445-0.545-8.563-2.541-12.773c-8.357,0-16.64,0-24.516,0c-4.27-8.56-0.886-17.719-2.896-26.336
			c-4.005,0-7.706-0.13-11.396,0.036c-3.831,0.172-7.76-0.765-11.82,0.82c0,3.854,0,7.448,0,10.623
			c-2.12,1.229-3.862,2.242-5.673,3.294c0.572,14.296,1.119,27.978,1.665,41.659c2.894,0.544,5.853,0.828,8.658,1.721
			c1.938,0.616,2.839,2.554,2.354,4.979C1190.157,680.41,1190.539,680.84,1190.922,681.27z"/>
		<path fill="#CCCCCC" d="M1304.152,503.949c0-2.858,0.068-5.454-0.012-8.044c-0.439-14.236-0.913-28.472-1.382-42.706
			c-0.065-2.006-0.172-4.011-0.269-6.226c-9.69,0-18.909,0-28.843,0c-0.47,20.052-0.359,39.411,1.896,59.038
			C1285.087,507.067,1294.525,505.907,1304.152,503.949z"/>
		<path fill="#CCCCCC" d="M1282.857,687.966c0-6.014,0-11.374,0-16.666c-5.056-0.581-9.544-3.584-14.668-1.222
			c0,6.141,0,12.334,0,19.581C1273.445,689.056,1278.52,691.442,1282.857,687.966z"/>
		<path fill="#CCCCCC" d="M1033.556,467.475c-4.485-2.35-23.798-2.99-39.948-1.416c-0.756,21.726,0.637,42.998-1.396,64.237
			c-0.962,10.058-0.022,20.329-0.222,30.496c-0.129,6.668,0.977,13.417-1.186,20.027c-0.467,1.431,0.818,3.588,1.298,5.413
			c13.426,0,26.06,0.048,38.651-0.021c0.585-20.388,1.271-39.8,1.653-59.219c0.246-12.514,0.043-25.038,0.053-37.559
			c0.002-1.821-0.432-3.896,0.186-5.422C1034.891,478.452,1033.597,472.882,1033.556,467.475z"/>
		<path fill="#CCCCCC" d="M1106.31,495.326c-0.008-2.092-0.016-4.185-0.024-6.277c-7.311,0-14.621,0-21.864,0
			c0,5.195,0,9.471,0,13.667c7.469,0,14.516,0,21.89,0C1106.31,499.952,1106.31,497.639,1106.31,495.326z"/>
		<path fill="#CCCCCC" d="M1074.507,558.398c7.202-2.057,13.733,2.377,20.342,0.883c0-4.974,0-9.076,0-13.422
			c-6.902,0-13.496,0-20.342,0C1074.507,549.808,1074.507,553.389,1074.507,558.398z"/>
		<path fill="#CCCCCC" d="M851.184,616.09c11.195-0.129,22.393-0.08,33.59-0.084c0.46-22.339,0.988-44.675,1.35-67.015
			c0.175-10.706,0.031-21.417,0.032-32.125c0-2.279,0-4.56,0-7.522c9.548,0,18.484,0,27.857,0c0-26.246,0.025-51.792-0.075-77.336
			c-0.005-1.313-1.096-2.62-1.541-3.618c-18.717,0-36.941,0-55.021,0c-0.638,14.941-1.334,29.404-1.837,43.875
			c-0.218,6.26-0.036,12.535-0.036,18.805c0,5.413,0,10.825,0,16.913c-7.718,0-14.8,0-21.904,0c0,36.86,0,73.017,0,109.625
			c4.76,0,9.14,0,13.518,0C848.471,617.078,849.823,616.105,851.184,616.09z"/>
		<path fill="#CCCCCC" d="M826.234,767.702c4.463,0,8.259,0,12.421,0c-0.193-6.825,3.229-13.067,0.889-19.499
			c-4.078,0-7.875,0-11.479,0C827.429,754.991,826.844,761.215,826.234,767.702z"/>
		<path fill="#CCCCCC" d="M944.468,213.44c-18.101-1.21-35.755-4.086-53.69-3.261c-0.637,10.577-1.257,20.571-1.824,30.569
			c-0.117,2.08,0.245,4.231-0.086,6.25c-1.785,10.891-2.196,21.911-2.732,32.925c-0.059,1.188-0.328,2.362-0.425,3.033
			c-8.318-0.619-16.173-1.202-24.493-1.819c-0.512,8.677-1.042,17.369-1.525,26.064c-0.101,1.82,0.31,3.749-0.085,5.463
			c-2.54,11.084-0.799,22.555-2.586,33.739c-0.878,5.501,0.47,11.338-1.434,16.856c-0.322,0.935,0.38,2.316,0.61,3.501
			c17.459,1.377,34.518,2.723,51.943,4.097c0.545-4.51,1.347-9.266,1.652-14.064c0.624-9.778,0.979-19.579,1.443-29.371
			c0.012-0.26-0.021-0.531,0.031-0.781c2.268-10.83,1.249-22.007,2.747-32.918c0.233-1.706,0.364-3.43,0.559-5.299
			c6.354,0.422,12.279-0.859,18.216,1.345c2.282,0.847,5.646,1.447,7.724-2.832c0-5.611-1.085-12.161,0.24-18.021
			c2.302-10.179,0.115-20.513,2.283-30.702c1.405-6.603-0.322-13.888,1.581-20.715C944.929,216.39,944.548,215.034,944.468,213.44z"
			/>
		<path fill="#CCCCCC" d="M1313.901,259.249c0,2.389-0.054,4.685,0.009,6.976c0.448,16.542,0.957,33.082,1.349,49.625
			c0.061,2.565,0.399,4.639,2.847,5.494c11.146-0.533,22.289-1.066,33.433-1.6c0.896-1.043,1.791-2.087,3.01-3.508
			c-0.578-6.619-1.192-13.645-1.803-20.612c1.784-0.738,2.998-1.24,4.353-1.801c0-7.167,0-14.124,0-21.08c4.081,0,8.16,0,12.993,0
			c-0.592-10.391-1.128-19.792-1.649-28.938c-4.554-2.006-7.739,0.225-11.344,1.576c0,8.68,0,17.238,0,25.797
			c-5.933,0-11.865,0-18.374,0c0-5.229,0-9.522,0-14.261C1330.193,257.717,1322.305,258.459,1313.901,259.249z"/>
		<path fill="#CCCCCC" d="M631.649,92.953c-0.715,6.246-1.348,11.775-2.063,18.024c15.396,2.208,29.856,4.28,44.55,6.386
			c0.688-6.346,1.312-12.075,2.01-18.508c-5.71-0.852-10.603-1.543-15.484-2.32c-4.917-0.783-9.808-1.826-14.74-2.437
			C641.096,93.501,636.231,93.305,631.649,92.953z"/>
		<path fill="#CCCCCC" d="M629.799,69.706c8.994,1.332,17.266,2.557,26.468,3.92c0.618-6.952,1.175-13.213,1.768-19.881
			c-9.915-0.805-18.682-5.318-28.311-2.893c0,3.767,0.636,7.344-0.171,10.447C628.672,64.685,627.313,67.54,629.799,69.706z"/>
		<path fill="#CCCCCC" d="M642.349,510.168c-0.603,3.224-1.071,6.513-1.237,9.795c-0.189,3.764-0.801,7.639,0.444,10.973
			c6.954,0.703,13.426,1.357,19.587,1.98c0.834-3.62,1.83-6.285,2.01-9.017c0.643-9.756,0.997-19.532,1.491-29.3
			c0.038-0.741,0.308-1.47,0.458-2.147c1.729-1.402,3.365-2.73,5.088-4.128c0-6.68,0-13.168,0-19.657
			c-1.532-3.113-4.09-1.201-6.154-1.495c-4.441-0.633-9.112,1.157-13.362-1.609c-1.743,0.828-3.486,1.654-5.624,2.67
			c0,4.208,0.714,8.787-0.146,12.958C642.932,490.772,644.13,500.618,642.349,510.168z"/>
		<path fill="#CCCCCC" d="M293.811,518.845c1.148-0.524,2.288-1.477,3.446-1.504c6.258-0.148,12.521-0.069,18.78-0.069
			c3.632,0.002,7.262,0.002,11.234,0.002c0-7.387,0-13.873,0-20.36c-0.004-0.531-0.009-1.061-0.013-1.59
			c-2.784-0.003-5.567-0.006-8.351-0.009c-9.295,0.012-18.591,0.021-27.886,0.033c0.005,7.827,0.01,15.653,0.014,23.481
			C291.961,518.833,292.885,518.84,293.811,518.845z"/>
		<path fill="#CCCCCC" d="M1024.074,110.281c7.295,5.603,15.801,0.131,23.355,4.158c0.367-9.148,0.704-17.545,1.068-26.66
			c-7.194-0.676-14.645-1.377-21.841-2.054C1022.647,94.071,1024.567,102.204,1024.074,110.281z"/>
		<path fill="#CCCCCC" d="M613.541,497.472c1.707-5.319,0.804-10.57,0.58-15.748c-4.681-0.614-8.866-1.166-13.859-1.822
			c-0.858,12.575-1.68,24.804-2.542,37.028c-0.154,2.183-1.066,4.513-0.623,6.488c1.155,5.146,0.857,10.075-0.764,15.621
			c5.523,3.109,11.055,1.508,16.38,1.368c0.75-6.56,1.417-12.392,2.083-18.224c-0.454-0.176-0.908-0.352-1.363-0.526
			c-0.561-1.974-2.069-4.428-1.505-5.827c1.739-4.323,0.829-8.688,1.141-13.014C613.196,501.026,613.018,499.105,613.541,497.472z"
			/>
		<path fill="#CCCCCC" d="M609.983,542.682c-4.845,0-8.958,0-13.643,0c0,3.113,0.005,5.925-0.001,8.735
			c-0.008,3.131,0.714,6.569-0.189,9.332c-2.012,6.154-0.767,12.239-1.229,19.103c4.822-1.01,9.174,4.871,14.174-1.042
			C607.291,566.96,611.462,554.823,609.983,542.682z"/>
		<path fill="#CCCCCC" d="M1147.05,271.187c3.92,0,7.366,0,10.813,0c0.929,0.001,1.858,0.001,2.786,0.002
			c4.479,0.518,8.947,1.27,13.438,1.492c5.267,0.262,10.552,0.063,15.829,0.064c0.902-0.521,1.789-1.444,2.716-1.497
			c6.812-0.388,13.589-0.001,20.236,1.881c0.313,0.088,0.489,0.784,0.729,1.197c1.298-0.117,2.597-0.234,4.17-0.376
			c0-3.425-0.007-6.26,0.002-9.096c0.012-3.648-0.674-7.526,0.188-10.9c2.494-9.745,0.459-19.451,1.24-29.365
			c-11.58-0.694-22.531-1.39-33.485-1.984c-3.235-0.176-6.687,0.729-9.688-0.235c-9.124-2.931-18.228-0.454-28.394-1.508
			C1149.823,238.081,1145.452,254.334,1147.05,271.187z"/>
		<path fill="#CCCCCC" d="M1217.014,296.47c-0.752,5.322-1.762,9.831-1.966,14.384c-0.649,14.483-1.024,28.983-1.45,43.478
			c-0.123,4.172,0.792,8.652-0.27,12.461c-1.871,6.719-0.721,13.209-1.035,20.799c6.851-2.198,12.842,3.317,18.85,0.559
			c0.709-4.601,1.709-8.602,1.881-12.647c0.636-15.007,1.018-30.027,1.452-45.044c0.104-3.651-0.737-7.606,0.241-10.901
			c2.292-7.715,0.551-15.257,1.184-23.089C1229.115,296.47,1223.149,296.47,1217.014,296.47z"/>
		<path fill="#CCCCCC" d="M866.122,1020.732c-17.337-1.03-52.622-0.745-63.533,0.365h-7.001v25.068c0,12.151,0,22.992,0,33.833
			c31.582,0,63.164,0,94.746,0H893v-58.901h-26.823C866.156,1020.977,866.146,1020.854,866.122,1020.732z"/>
		<path fill="#CCCCCC" d="M915,1072.806c-0.327,2.398-0.653,4.796-0.979,7.194c0.327,0,0.653,0,0.979,0c6.176,0,12.352,0,18.526,0
			h72.453c12.075,0,24.151,0,36.228,0h2.552v-34.568H915V1072.806z"/>
		<path fill="#CCCCCC" d="M804.399,30.887c0.614-8.175,1.137-15.836,1.787-23.485c0.21-2.474,0.504-4.938,0.807-7.402h-44.018
			c0,1.363,0,2.776,0,4.304c-4.127,0.278-7.898,1.327-11.655-0.689c-0.595-0.318-1.313-0.425-1.982-0.472
			c-7.76-0.547-15.622-0.37-23.249-1.797c-4.705-0.88-9.485-0.731-14.208-1.346h-60.927c-0.408,3.465-0.824,7.008-1.275,10.832
			c-6.391-1.059-12.646-2.095-19.069-3.161c0-2.8,0-5.295,0-7.671H435.08c-0.047,0.462-0.091,0.924-0.142,1.385
			c-0.27,2.442-0.578,4.879-0.887,7.453c7.242,0.758,13.814,1.284,20.348,2.177c5.828,0.796,11.595,2.142,17.419,2.979
			c5.195,0.747,10.466,0.867,15.642,1.739c6.721,1.133,13.558,0.939,20.229,2.849c4.146,1.187,8.545,1.307,12.843,1.769
			c10.201,1.096,20.417,2.017,30.611,3.188c7.902,0.908,15.783,2.053,23.66,3.202c0.817,0.12,1.552,0.984,3.051,1.992
			c-0.999,9.288-2.021,18.81-3.095,28.792c3.498,0.336,6.559,0.63,10.664,1.024c-3.397,3.917-6.698,2.641-9.503,2.346
			c-6.298-0.661-12.546-1.917-18.817-2.905c-6.499-1.024-12.997-2.055-19.502-3.012c-4.281-0.629-8.568-1.223-12.866-1.669
			c-5.907-0.613-11.836-0.954-17.734-1.644c-3.093-0.362-6.14-1.222-9.914-2.004c-2.025,10.527-3.924,20.392-5.82,30.258
			c-0.463,0.533-0.926,1.065-1.389,1.598c-1.424,8.492-2.735,17.01-4.301,25.468c-1.743,9.43-3.697,18.812-5.623,28.198
			c-0.198,0.972-0.816,1.835-1.241,2.749c0.051,1.286,0.103,2.572,0.183,4.601c3.826,0.56,7.593,1.333,11.388,1.624
			c8.7,0.67,17.416,1.082,26.12,1.698c0.483,0.035,0.915,0.983,1.371,1.506c1.729,0.512,3.44,1.365,5.189,1.479
			c8.671,0.563,17.321,0.332,26.045,1.296c15.041,1.664,30.257,1.327,45.399,1.829c0-29.18,0-58.359,0-87.83
			c-2.632-0.888-4.71-1.589-7.79-2.627c1.985-1.23,3.188-1.977,4.546-2.818c1.463-11.312,2.954-22.838,4.47-34.551
			c-4.911-0.877-9.593-1.713-14.479-2.585c-2.451-6.075,1.245-11.792,0.905-17.922c7.252,1.005,14.17,1.964,21.382,2.963
			c2.808,6.855-2.585,13.882-0.06,21.265c5.405,0.743,10.979,1.51,16.577,2.281c0.672-2.047,1.127-3.431,1.573-4.792
			c14.95,1.98,29.752,3.941,44.721,5.924c1.552-5.133-0.973-10.868,2.866-15.36c1.601,0,3.397,0,5.34,0
			c0.231,0.693,0.705,1.405,0.658,2.071c-0.417,6.144-0.496,12.371-1.51,18.395c-1.272,7.557-1.917,15.155-2.789,22.747
			c-0.598,5.21-0.933,10.456-3.292,15.737c-2.499,5.592-1.86,12.956-2.643,19.98c26.374,3.447,52.028,6.8,78.354,10.24
			c0.733-6.58,1.436-12.861,2.22-19.885c-13.728-2.983-27-4.424-40.981-5.717c-0.404-1.267-1.306-2.839-1.349-4.441
			c-0.232-8.755,1.027-17.335,2.429-25.934c0.649-3.985,0.111-8.216,0.111-12.708c15.23,2.045,29.768,3.999,44.326,5.953
			c-1.238,12.678-2.418,24.733-3.646,37.304c12.42,1.671,24.534,3.3,37.154,4.997c1.203-8.226,2.372-16.216,3.468-23.707
			c1.936-1.655,3.614-3.088,5.292-4.522c0.455-1.297,1.129-2.554,1.329-3.9c1.034-6.963,1.946-13.949,2.89-20.829
			C799.636,31.371,802.068,31.124,804.399,30.887z M566.682,114.414c-5.896,0-12.019,0.805-17.897-0.196
			c-8.017-1.366-16.002-1.074-24.008-1.471c-3.554-0.176-7.066-1.403-11.204-2.281c0-4.688-0.251-9.596,0.074-14.456
			c0.305-4.546,1.222-9.041,1.955-14.153c4.421-0.208,9.057-1.134,13.824,0.639c2.101,0.781,4.539,0.434,6.825,0.569
			c10.744,0.633,21.49,1.255,33.048,1.929c0,5.119,0.121,10.242-0.035,15.355C569.118,105.113,570.531,110.286,566.682,114.414z"/>
		<path fill="#CCCCCC" d="M44.607,723.347c0.362-9.803,0.083-19.767,1.633-29.343c1.225-7.551,0.911-14.937,1.094-22.394
			c0.571-23.372,0.078-46.83,1.746-70.098c1.155-16.125,0.461-32.162,1.137-48.218c0.067-1.582,0.868-3.124,1.328-4.685
			c0.001-1.565,0.003-3.132,0.005-4.697c0-13.233,0-26.467,0-40.229c-1.946-0.185-3.698-0.482-5.452-0.497
			c-7.852-0.055-15.789,0.772-23.531-0.268c-7.078-0.95-14.099-1.251-21.174-1.324c0,153.091,0,306.184,0,459.274
			c5.802,0.009,11.846-1.139,17.345,0.317c6.967,1.847,13.768,0.521,20.874,1.403c0.3-1.155,0.736-2.083,0.751-3.019
			c0.506-31.207,0.267-62.456,1.661-93.611c1.118-24.964-0.153-49.983,1.497-74.813C45.027,768.497,43.773,745.928,44.607,723.347z"
			/>
		<path fill="#CCCCCC" d="M173.11,28.803c-15.36,1.796-30.528-1.501-46.351-0.604c-0.026,1.965-0.034,3.92-0.083,5.874
			c-0.326,12.89-0.66,25.78-0.992,38.669c2.23,0.371,4.45,0.935,6.691,1.079c8.159,0.523,16.307-0.154,24.52,0.925
			c9.059,1.19,18.29-0.084,27.457,1.199c5.52,0.773,11.193,0.139,16.797,0.137c0-7.069-0.125-14.142,0.042-21.206
			c0.14-5.87,0.753-11.725,0.917-17.594c0.166-5.947-0.547-12.001,0.21-17.83c0.695-5.346,0.696-10.624,0.818-15.946
			c-9.598,0-19.196,0-28.794,0C173.932,11.904,173.523,20.303,173.11,28.803z"/>
		<path fill="#CCCCCC" d="M715.163,776.686c-8.881-1.559-17.975-0.172-26.747-2.776c-0.407-0.121-0.864-0.021-1.298-0.043
			c-9.229-0.488-18.627,0.064-27.636-1.78c-8.075-1.655-16.341,0.606-24.181-2.552c-0.39-0.156-0.861-0.039-1.295-0.063
			c-9.229-0.489-18.631,0.082-27.637-1.782c-8.293-1.717-16.771,0.593-24.831-2.57c-0.389-0.153-0.862-0.021-1.296-0.044
			c-9.229-0.488-18.63,0.069-27.634-1.793c-7.645-1.583-15.483,0.575-22.882-2.542c-0.384-0.162-0.862-0.034-1.295-0.06
			c-8.795-0.489-17.703-0.174-26.349-1.721c-7.184-1.285-14.583,0.263-21.563-2.599c-0.388-0.159-0.861-0.051-1.295-0.073
			c-9.012-0.49-18.027-0.916-27.034-1.496c-5.546-0.357-11.08-0.972-16.621-1.425c-1.259-0.104-2.529-0.018-3.63-0.018
			c-2.367,7.627-1.168,15.332-2.456,22.46c-1.596,8.837,0.531,17.91-2.276,26.476c-0.071,0.217-0.021,0.482-0.03,0.728
			c-0.438,9.649-0.236,19.405-1.488,28.919c-1.253,9.531,0.025,19.273-2.376,28.636c-0.058,0.229-0.026,0.486-0.04,0.729
			c-0.435,7.697-0.882,15.392-1.295,23.091c-0.076,1.434-0.011,2.875-0.011,4.661c5.711,0.69,11.162,1.552,16.639,1.965
			c8.784,0.665,17.687,0.297,26.346,1.779c5.814,0.995,11.782-0.136,17.242,1.469c7.402,2.179,15.075-0.621,22.239,2.605
			c0.377,0.17,0.861,0.03,1.293,0.053c9.229,0.489,18.63-0.078,27.634,1.788c8.077,1.674,16.335-0.604,24.188,2.519
			c0.775,0.311,1.725,0.04,2.59,0.094c7.709,0.483,15.526,0.261,23.094,1.698c6.027,1.146,12.005,0.583,17.945,1.327
			c11.708,1.465,23.444,2.165,35.186,3.052c11.729,0.887,23.451,2.013,35.188,2.934c11.729,0.918,23.409,2.536,35.201,2.812
			c6.369,0.148,12.722,1.27,19.937,2.043c0-4.072-0.121-7.166,0.06-10.234c0.072-1.243,0.801-2.438,1.23-3.654
			c0.004-0.963,0.007-1.926,0.011-2.888c-0.409-0.481-1.2-1.003-1.164-1.438c0.302-3.556,0.948-7.081,1.13-10.64
			c0.553-10.79,0.864-21.598,2.603-32.263c0.039-0.239,0.021-0.488,0.035-0.732c0.434-7.452,1.134-14.898,1.244-22.357
			c0.178-12.054,1.221-23.99,2.552-35.938c0.585-5.251,0.099-10.653,0.099-16.558C727.837,777.9,721.433,777.786,715.163,776.686z
			 M592.969,821.304c-0.383,1.339-0.322,2.851-0.399,4.286c-0.511,9.36-1.003,18.721-1.533,28.672
			c-3.725-0.095-7.271,1.161-10.775-0.893c-0.538-0.315-1.239-0.343-1.871-0.378c-8.785-0.509-17.577-0.917-26.358-1.518
			c-4.46-0.306-8.899-0.966-13.353-1.423c-4.238-0.434-8.642,1.079-12.714-1.396c-0.342-0.208-0.855-0.05-1.287-0.072
			c-9.221-0.489-18.612,0.065-27.61-1.789c-7.852-1.618-15.836,0.367-23.54-2.444c-2.341-0.855-5.137-0.134-8.069-0.134
			c-0.675-4.729-1.09-9.154,0.304-13.626c0.344-1.104,0.407-2.348,0.462-3.535c0.501-10.599,0.972-21.199,1.491-32.679
			c1.356-0.449,3.152-1.799,4.338-1.302c5.065,2.121,10.247,0.853,15.347,1.339c0.581,0.056,1.161,0.135,1.74,0.215
			c-0.031,0.034-0.063,0.069-0.092,0.104c-0.462,8.687-0.944,17.37-1.371,26.059c-0.1,2.017-0.016,4.042-0.016,7.043
			c6.237-2.516,11.972,4.395,17.712-0.293c0.625-10.822,1.216-21.03,1.806-31.238c0-0.081-0.001-0.161-0.002-0.243
			c1.561,0.218,3.109,0.594,4.64,1.24c10.738,0.492,21.545,0.323,32.188,1.727c6.222,0.82,12.399,0.722,18.574,1.303
			c5.896,0.556,11.716,2.105,17.609,2.724c4.271,0.448,8.61,0.089,13.337,0.089C593.763,809.471,594.666,815.379,592.969,821.304z
			 M689.073,821.842c-0.3,0.54-0.109,1.43-0.141,2.157c-0.438,10.14-0.788,20.285-1.373,30.414
			c-0.145,2.492-1.051,4.929-1.615,7.425c-10.918-0.148-21.125-1.025-31.26-2.957c-0.423-0.081-0.866-0.021-1.299-0.044
			c-9.665-0.49-19.335-0.852-28.99-1.529c-4.669-0.327-9.306-1.253-15.213-2.087c0.472-5.518,0.933-10.914,1.427-16.696
			c8.054-0.075,15.491-1.176,23.101,1.415c3.408-15.54,1.52-31.418,4.808-47.049c4.438,0.384,8.722-1.053,12.81,1.402
			c0.344,0.206,0.856,0.05,1.289,0.072c9.23,0.49,18.467,0.868,27.688,1.531c3.568,0.257,7.102,1.161,10.836,1.804
			c-0.31,4.081-0.562,8.044-0.92,11.994C689.851,813.737,691.228,817.981,689.073,821.842z"/>
		<path fill="#CCCCCC" d="M1430.013,321.917c2.183-0.095,4.338-0.974,6.507-1.497c0-4.599,0-9.199,0-14.081
			c-11.146,0.839-21.275-3.367-31.656-1.022c0,5.612,0,10.949,0,16.699c3.377,0,6.364,0,9.352,0
			C1419.481,322.007,1424.754,322.146,1430.013,321.917z"/>
		<path fill="#CCCCCC" d="M18.116,153.6c0,17.755,0,35.51,0.001,53.266c43.963,0,87.927,0,132.01,0c0-18.614,0-36.463,0-54.831
			c-2.617,0-4.896,0-7.173,0c-24.106,0-48.215-0.196-72.317,0.064C53.126,152.288,35.622,153.078,18.116,153.6z"/>
		<path fill="#CCCCCC" d="M166.195,743.914c-2.005-15.177,2.676-29.765,0.593-44.176c-10.28-0.755-20.113-1.512-29.948-2.19
			c-8.472-0.586-16.917-0.114-25.459-1.224c-11.593-1.506-23.416-0.335-35.148-1.749c-8.833-1.064-17.813-0.562-27.033-0.761
			c-0.021,0.076-0.356,0.779-0.387,1.5c-0.497,12.144-0.08,24.259-1.16,36.464c-1.596,18.026,0.2,36.243-1.438,54.438
			c-1.693,18.809,0.073,37.801-1.323,56.795c-1.767,24.035,0.521,48.279-1.5,72.447c-1.081,12.936-0.212,26.081-0.179,39.132
			c0.005,1.988,0.251,3.979,0.354,5.517c7.107,0.814,13.679,1.745,20.274,2.276c7.079,0.571,14.135,0.242,21.28,1.321
			c10.893,1.646,22.02,1.304,33.044,1.887c3.856,0.206,7.689-0.489,11.574,1.294c2.302,1.058,5.298,0.193,7.896,0.193
			c1.682-31.312-2.767-61.594-0.714-91.666c3.692-0.827,6.991-1.713,10.332-2.271c3.327-0.554,6.845,0.786,10.411-1.08
			c0-18.353,0-36.553,0-55.443c4.168,0,8.008,0,11.989,0c0.995-8.813,0.757-17.069,1.385-25.236
			c1.169-15.238,0.336-30.673,0.336-46.164C169.281,744.692,167.585,744.265,166.195,743.914z M114.254,771.987
			c0,6.564,0.139,13.297-0.028,20.019c-0.374,15.025-1.081,30.042-1.312,45.068c-0.233,15.143,0.938,30.4-0.368,45.403
			c-1.063,12.203-0.475,24.341-1.292,37.457c-17.332,1.123-34.636-3.218-52.991-0.923c0.695-8.11,1.301-15.167,1.985-23.146
			c0.943-1.273,2.406-3.247,3.802-5.13c0.479-23.028,1.007-45.881,1.408-68.732c0.155-8.876-0.147-17.764,0.085-26.634
			c0.182-6.938,0.893-13.854,1.313-20.784c0.109-1.803,0.018-3.621,0.018-5.871c-1.67-0.336-3.185-0.642-5.142-1.035
			c0-7.104,0-14.313,0-22.983c0.705-0.84,1.808-2.15,2.747-3.271c16.997,0,33.463-0.063,49.929,0.075
			c2.162,0.02,4.32,1.067,6.479,1.639c0.341,8.783,0.659,16.978,1.05,27.056C121.18,772.791,117.288,770.338,114.254,771.987z"/>
		<path fill="#CCCCCC" d="M838.32,721.563c-4.729,0-8.987,0-13.256,0c0,5.127,0,9.729,0,14.64c4.976,0,9.231,0,13.256,0
			C838.32,730.882,838.32,726.091,838.32,721.563z"/>
		<path fill="#CCCCCC" d="M757.77,386.397c-5.957-0.836-11.357-2.136-16.778-2.249c-12.851-0.267-25.58-2.066-38.363-3.021
			c-12.337-0.921-24.648-1.818-36.958-3.218c-10.512-1.196-21.132-1.19-31.704-1.716c-2.318-0.023-4.771,0.504-6.932-0.167
			c-7.787-2.421-15.914-0.967-23.708-2.966c-0.469,5.622-1.04,11.235-1.386,16.866c-0.553,9.013-0.248,18.181-1.65,27.013
			c-1.111,7.005-0.896,13.889-1.18,20.836c-0.052,1.271-0.137,2.591-0.48,3.789c-1.675,5.824-0.913,11.617-0.455,17.022
			c5.257,0.803,9.976,1.794,14.731,2.193c8.701,0.729,17.424,1.108,26.139,1.632c0.464,0.028,0.976-0.116,1.386,0.057
			c7.917,3.333,16.311,0.875,24.484,2.756c8.457,1.945,17.371,1.368,26.085,1.893c0.464,0.028,0.944-0.044,1.39,0.07
			c9.417,2.425,19.077,1.938,28.61,2.958c5.295,0.564,10.913-0.941,15.946,0.47c5.129,1.438,9.925,0.735,15.54,1.198
			c0.927-12.314,1.92-24.033,2.657-35.771c0.632-10.052,0.97-20.127,1.437-30.191c0.024-0.522-0.102-1.122,0.083-1.555
			C759.218,398.324,757.588,392.197,757.77,386.397z M710.116,449.751c-6.887-0.491-13.739,1.71-20.437-1.362
			c-0.403-0.185-0.918-0.056-1.381-0.082c-9.39-0.523-18.783-0.964-28.165-1.615c-4.074-0.283-8.115-1.117-12.187-1.488
			c-3.85-0.352-7.832,0.703-11.498-1.528c-0.362-0.221-0.913-0.045-1.376-0.073c-7.519-0.445-15.038-0.896-22.5-1.342
			c-2.73-7.709,0.521-14.667,0.578-21.743c0.06-7.158,0.871-14.308,1.386-21.944c5.862-0.365,11.487-1.397,17.099,0.635
			c0.642,0.233,1.317,0.435,1.986,0.478c8.461,0.548,16.923,1.075,25.386,1.585c8.926,0.539,17.972,0.236,26.736,1.864
			c5.986,1.112,11.867,0.79,17.777,1.345c3.119,0.293,6.188,1.253,9.761,2.014C712.209,421.166,711.183,435.188,710.116,449.751z"/>
		<path fill="#CCCCCC" d="M375.339,315.313c-7.905-1.315-16.123-0.24-24.201-0.24c0,4.405,0,8.812,0,14.053
			c7.002,0.784,13.721,1.537,20.498,2.296c0,8.056,0,16.003,0,24.332c-7.542,0-14.896,1.173-21.82-0.269
			c-11.076-2.307-21.987-0.31-33.61-1.325c1.233,7.3-1.923,13.584-0.945,20.145c20.409,0.643,40.25,1.292,60.091,1.874
			c4.409,0.129,8.825-0.078,13.233,0.069c2.024,0.067,4.066,0.472,6.05,0.978c3.632,0.927,14.833,0.66,19.002-0.609
			c0.861-13.71-0.748-27.476,1.408-41.193c0.955-6.078,0.154-12.505,0.15-18.774C401.926,315.962,388.649,317.527,375.339,315.313z"
			/>
		<path fill="#CCCCCC" d="M576.848,247.669c-0.467,10.963-0.935,21.926-1.401,32.89c5.334,0.015,10.752-0.641,15.986,0.188
			c10.885,1.722,21.815,2.301,32.756,2.987c7.084,0.444,14.161,1.033,21.242,1.558c0.23,0.017,0.497-0.054,0.689,0.05
			c5.299,2.815,10.848,0.939,16.492,1.604c0.742-2.217,1.793-4.059,1.927-5.981c0.623-8.994,0.992-18.01,1.451-27.018
			c0.478-0.001,0.952-0.001,1.429-0.001c2.636,0.347,5.271,0.693,8.507,1.118c0.392-1.516,1.093-3.121,1.185-4.769
			c0.559-10.022,0.974-20.056,1.448-30.084c0.048-1.023-0.057-2.164,0.307-3.042c2.171-5.246,0.639-10.586,1.097-16.532
			c-3.792,0-7.021-0.353-10.157,0.1c-3.126,0.451-5.896-3.703-8.703-1.084c-0.722,6.294-1.649,12.095-2,17.94
			c-0.663,11.057-0.994,22.138-1.462,33.208c0.002,1.044,0.005,2.088,0.007,3.132c-4.528-0.521-9.049-1.157-13.587-1.528
			c-4.546-0.373-9.222,0.781-13.593-1.567c-0.19-0.103-0.458-0.018-0.689-0.031c-9.866-0.524-19.732-1.01-29.596-1.587
			C592.4,248.76,584.625,248.189,576.848,247.669z"/>
		<path fill="#CCCCCC" d="M342.59,669.44c-13.023-1.448-26.001-0.578-38.99-1.05c-0.373,2.844-0.973,5.674-1.08,8.527
			c-0.531,14.184,0.464,28.366-0.995,42.59c-1.294,12.614-0.307,25.403-0.979,38.159c-0.966,18.328-0.479,36.78-1.421,55.16
			c-0.492,9.561,0.188,19.103-0.89,28.734c-1.084,9.674-0.238,19.618-0.238,29.488c0.933,0.234,1.448,0.468,1.968,0.479
			c18.964,0.444,37.929,0.869,56.893,1.29c1.309,0.029,2.616-0.022,3.923,0.015c0.922,0.027,1.957-0.139,2.742,0.27
			c3.776,1.959,7.601,0.562,11.624,0.974c0.798-11.925-0.002-23.354,1.166-34.786c1.33-13.028-0.206-26.231,1.111-39.42
			c1.321-13.233-0.183-26.66,1.15-40.047c1.298-13.035,0.129-26.233,1.021-39.421c1.11-16.416,0.063-33.009,1.385-49.482
			C368.228,668.553,355.307,670.854,342.59,669.44z"/>
		<path fill="#CCCCCC" d="M702.038,617.942c-10.656-1.52-21.574-0.191-32.384-1.767c-8.628-1.257-17.388,0.439-26.161-1.478
			c-7.588-1.658-15.525-1.292-23.309-1.809c-0.927-0.063-1.867,0.05-2.783-0.077c-7.211-0.997-14.396-2.414-21.634-2.969
			c-11.246-0.858-22.527-1.141-33.793-1.664c-0.463-0.021-0.972,0.112-1.385-0.057c-8.384-3.419-17.229-0.924-25.871-2.729
			c-9.628-2.012-19.69-1.393-29.563-1.915c-0.463-0.023-0.937,0.05-1.392-0.029c-11.323-1.961-22.701-2.966-34.165-3.18
			c-7.092-0.132-14.175-0.967-21.261-1.514c-0.672-0.052-1.35-0.239-1.993-0.472c-6.086-2.188-12.188-0.86-18.527-0.713
			c-0.979,12.562-2.067,24.561-2.805,36.587c-0.679,11.09-0.981,22.21-1.448,33.316c-0.021,0.521,0.065,1.074-0.058,1.563
			c-2.521,10.021-1.226,20.438-2.536,30.634c-1.31,10.188-1.115,20.617-1.599,30.939c-0.035,0.761-0.053,1.612-0.358,2.252
			c-1.777,3.7-0.882,7.445-0.767,11.351c9.617,0.657,18.756,1.29,27.896,1.899c1.157,0.078,2.435-0.314,3.463,0.107
			c7.938,3.261,16.313,0.993,24.49,2.687c9.634,1.994,19.689,1.396,29.563,1.92c0.464,0.023,0.938-0.053,1.392,0.033
			c11.078,2.124,22.276,2.548,33.471,3.128c7.325,0.379,14.64,1.022,21.959,1.549c0.231,0.016,0.468,0,0.695,0.044
			c9.465,1.813,18.971,2.943,28.594,3.152c8.254,0.178,16.497,0.979,24.744,1.503c0.231,0.015,0.484-0.05,0.692,0.032
			c8.62,3.39,17.691,0.926,26.563,2.759c9.633,1.99,19.692,1.385,29.564,1.908c0.464,0.025,0.954-0.071,1.389,0.065
			c8.909,2.833,18.166,1.425,27.23,2.845c9.522,1.491,19.256,1.263,28.896,1.808c0.676,0.037,1.453,0.039,1.998,0.405
			c2.83,1.906,5.688,1.104,9.063,0.772c0-5.368-0.32-10.321,0.073-15.2c0.636-7.878,1.996-15.684,2.588-23.563
			c0.735-9.774,1-19.597,1.466-29.396c0.024-0.521-0.032-1.056,0.045-1.564c1.625-10.646,2.594-21.349,2.805-32.168
			c0.134-6.936,0.875-13.855,1.354-20.783c0.036-0.508,0.193-1.001,0.24-1.509c0.383-4.073,0.733-8.151,1.131-12.225
			c0.418-4.273,0.877-8.541,1.334-12.961c-8.392-0.823-15.904-1.678-23.432-2.271C719.045,618.528,710.594,619.16,702.038,617.942z
			 M680.283,750.313c-2.139,0.201-3.901,0.966-5.177,0.381c-4.7-2.153-9.581-0.847-14.322-1.502
			c-9.969-1.383-20.11-0.499-29.983-3.011c-0.443-0.112-0.926-0.027-1.39-0.052c-10.333-0.523-20.771-0.214-30.965-1.85
			c-7.678-1.232-15.587,0.258-23.052-2.774c-0.416-0.169-0.922-0.052-1.385-0.077c-9.638-0.524-19.42-0.069-28.868-1.857
			c-9.079-1.72-18.365,0.43-27.236-2.791c-0.423-0.152-0.923-0.032-1.387-0.056c-10.332-0.522-20.733-0.411-30.977-1.791
			c-7.344-0.988-14.633-1.166-21.969-1.438c-1.201-0.044-2.372-1.142-3.948-1.954c0.676-9.666,1.333-19.098,2.041-29.23
			c7.265,0.527,14.565-1.605,21.741,1.401c0.414,0.174,0.921,0.06,1.384,0.085c9.405,0.523,18.814,0.968,28.213,1.609
			c4.773,0.326,9.524,1.062,14.293,1.512c4.539,0.429,9.238-0.988,13.6,1.525c0.188,0.108,0.458,0.037,0.689,0.054
			c7.316,0.523,14.633,1.057,21.949,1.567c6.111,0.429,12.223,0.832,18.887,1.281c0,5.942,0,10.376,0,15.086
			c4.272,0.825,8.44,2.018,12.663,2.365c9.39,0.775,18.995,0.013,28.154,1.983c8.403,1.811,17.018-0.611,25.159,2.758
			c0.207,0.086,0.461,0.025,0.692,0.039c9.866,0.569,19.734,1.14,29.95,1.729C684.858,739.615,678.035,745.085,680.283,750.313z
			 M703.864,660.92c-0.339,0.902-0.176,2.045-0.229,3.078c-0.504,9.787-1.005,19.574-1.533,29.878c-2.969,0-5.848,0-9.163,0
			c-0.246-1.463-0.533-3.171-0.82-4.877c-5.594-3.047-11.717-1.551-17.489-2.626c-9.511-1.771-19.256,0.054-28.625-2.896
			c-0.434-0.137-0.926-0.022-1.389-0.05c-10.104-0.561-20.208-1.125-30.394-1.69c-2.677-1.159-3.356-4.009-2.332-6.371
			c2.323-5.355,0.379-10.739,1.401-16.448c-8.898-0.854-17.273-1.658-26.028-2.5c-0.854,6.977-1.65,13.487-2.523,20.611
			c-4.747-0.275-9.495,1.304-14.168-1.067c-0.599-0.304-1.337-0.317-2.016-0.356c-9.409-0.54-18.822-0.979-28.226-1.623
			c-4.544-0.313-9.063-1.095-13.604-1.499c-4.315-0.387-8.776,0.854-12.908-1.537c-0.188-0.109-0.458-0.038-0.689-0.054
			c-8.248-0.522-16.499-0.993-24.744-1.589c-7.319-0.526-14.631-1.192-23.005-1.886c0-2.365-0.49-4.591,0.089-6.379
			c1.967-6.074,0.909-12.317,1.339-18.467c0.482-6.913,1.278-13.8,2.003-21.385c1.269-0.105,3.329-0.987,4.714-0.256
			c3.584,1.895,7.263,0.911,10.87,1.402c9.512,1.295,19.188,0.581,28.603,3.029c0.443,0.113,0.926,0.033,1.39,0.059
			c9.641,0.524,19.469-0.068,28.867,1.915c8.178,1.727,16.568-0.618,24.48,2.742c0.408,0.173,0.922,0.022,1.385,0.046
			c10.803,0.523,21.771-0.068,32.353,1.938c8.176,1.55,16.563-0.637,24.473,2.716c0.207,0.087,0.46,0.03,0.692,0.048
			c7.319,0.521,14.634,1.164,21.959,1.542c11.193,0.579,22.393,1.008,33.473,3.123c0.903,0.172,1.856-0.021,2.782,0.048
			c6.567,0.487,13.135,0.998,20.162,1.536C704.514,648.194,706.227,654.627,703.864,660.92z"/>
		<path fill="#CCCCCC" d="M478.994,595.643c0.926,0.063,1.942-0.237,2.769,0.096c7.472,3.016,15.384,1.044,23.062,2.78
			c7.564,1.712,15.508,1.312,23.284,1.835c0.463,0.031,0.968-0.084,1.384,0.086c7.005,2.852,14.453,1.884,21.646,2.73
			c9.734,1.146,19.545,1.568,29.246,3.355c1.922,0.354,3.975-0.188,5.627-0.297c0.683-10.945,1.394-21.227,1.949-31.516
			c0.555-10.31,0.948-20.628,1.431-30.94c0.036-0.762,0.048-1.61,0.35-2.253c1.973-4.218,0.761-8.495,0.88-13.212
			c-8.98-0.565-17.42-1.103-25.859-1.625c-0.926-0.057-1.936,0.233-2.771-0.085c-8.633-3.289-17.688-0.85-26.547-2.733
			c-9.161-1.95-18.749-1.369-28.148-1.894c-0.463-0.025-1.012,0.14-1.377-0.083c-4.359-2.642-9.069-1.022-13.604-1.486
			c-4.765-0.487-9.516-1.185-14.288-1.525c-8.931-0.637-17.872-1.083-26.809-1.609c-0.232-0.014-0.497,0.058-0.69-0.043
			c-5.301-2.768-10.856-1.057-16.575-1.525c-3.463,10.004-1.817,20.494-3.223,30.547c-1.347,9.637-1.125,19.552-1.594,29.345
			c-0.024,0.521-0.004,1.05-0.075,1.563c-0.593,4.24-1.204,8.479-1.868,13.136c10.417,1.385,19.428,2.779,28.477,3.727
			C463.422,594.824,471.218,595.128,478.994,595.643z M470.615,538.06c5.863-0.223,11.032-1.471,16.181,0.692
			c0.628,0.263,1.323,0.396,1.995,0.444c7.545,0.544,15.091,1.053,22.636,1.584c11.395,0.803,22.841,0.895,34.139,3.089
			c1.127,0.219,2.319-0.028,3.475,0.055c7.262,0.523,14.521,1.079,21.865,1.631c-0.915,12.601-1.782,24.55-2.685,36.966
			c-3.736,0.724-7.488,1.367-11.265-0.421c-0.616-0.292-1.306-0.483-1.973-0.536c-7.079-0.551-14.159-1.112-21.243-1.577
			c-10.479-0.688-20.989-0.934-31.353-3.109c-0.45-0.094-0.926-0.012-1.39-0.037c-9.633-0.526-19.266-1.05-28.896-1.6
			c-0.652-0.037-1.295-0.276-2.102-0.457C467.914,562.519,472.489,550.656,470.615,538.06z"/>
		<path fill="#CCCCCC" d="M719.237,473.474c-1.029,11.641-0.15,22.462-1.372,33.351c-1.665,14.855-1.223,30.01-1.696,45.035
			c-0.459,14.505-0.892,29.011-1.454,43.51c-0.063,1.625-0.905,3.211-1.242,4.337c-3.842-0.35-6.962-0.75-10.092-0.899
			c-13.101-0.621-26.204-1.168-39.992-1.771c-1.074-19.047,2.952-37.318,0.737-55.853c-5.827,0-11.498,0-17.752,0
			c-0.432,11.961-0.871,23.549-1.254,35.139c-0.111,3.392,0.64,7.035-0.22,10.138c-2.415,8.722-0.521,17.345-1.188,26.232
			c9.706,0.688,18.631,0.448,27.573,1.447c14.882,1.662,29.938,1.369,44.92,1.873c2.784,0.095,5.752-0.639,8.323,0.21
			c8.661,2.856,17.311,0.567,26.19,1.397c0.821-11.529,0.851-22.385,1.365-33.155c1.366-28.555,1.208-57.201,1.753-85.808
			c0.059-3.03,0.963-6.031,1.122-9.069c0.253-4.833,0.761-9.724-0.28-13.887C742.594,472.433,730.941,473.473,719.237,473.474z"/>
		<path fill="#CCCCCC" d="M280.111,713.431c-4.891,0-9.163,0-13.661,0c-1.096,13.706-0.457,27.134-1.355,40.544
			c-1.365,20.394,0.071,40.991-1.713,61.447c-0.15,1.729-0.021,3.49-0.021,5.416c-7.731,0-14.795,0-22.269,0
			c0.486-4.433,1.074-8.412,1.328-12.417c0.521-8.222,0.268-16.42,1.129-24.716c1.519-14.611,1.237-29.461,1.687-44.212
			c0.08-2.605-0.604-5.516,0.204-7.769c2.196-6.117,0.864-12.117,0.938-18.416c-6.469,0-12.434,0-18.819,0
			c-0.606,2.929-1.68,5.844-1.748,8.786c-0.591,25.706-0.905,51.42-1.511,77.126c-0.275,11.623,0.119,23.201-1.034,34.896
			c-1.342,13.628-0.313,27.554-0.313,40.732c2.541,4.287,5.86,2.565,8.68,2.75c13.099,0.854,26.296-1.535,39.343,1.556
			c1.451,0.343,3.069-0.204,4.471-0.326c0.629-13.959,1.493-27.362,1.782-40.782c0.641-29.62,0.989-59.248,1.458-88.872
			c0.018-1.044-0.171-2.155,0.085-3.118C281.618,735.349,279.327,724.512,280.111,713.431z"/>
		<path fill="#CCCCCC" d="M928.511,657.508c-23.087-0.415-45.658-0.82-68.225-1.226c-0.068,1.135-0.129,1.712-0.136,2.29
			c-0.573,54.269,1.141,108.553-0.996,162.812c-0.343,8.722-0.047,17.472-0.047,26.207c0.001,10.076,0.001,20.152,0.001,30.584
			c23.107,0,45.615,0,68.347,0c0-24.807-0.001-49.251,0-73.692c0.001-24.656-0.132-49.314,0.043-73.971
			C927.674,706.203,928.159,681.896,928.511,657.508z M907.646,781.65c-8.739,0-16.971,0-25.481,0c0-11.133,0-22.084,0-33.604
			c8.53,0.482,17.036-1.303,25.481,1.65C907.646,760.311,907.646,770.736,907.646,781.65z M911.717,719.275
			c-4.885,1.417-25.125,1.117-28.276-0.439c-1.64-3.47,0.48-6.696,0.51-10.056c0.032-3.688-0.099-7.38,0.037-11.063
			c0.126-3.39-0.646-6.882,0.465-10c9.221,0,18.142,0,27.265,0C911.717,698.4,911.717,708.827,911.717,719.275z"/>
		<path fill="#CCCCCC" d="M393.864,500.557c-8.554-3.672-17.185-1.621-25.904-2.002c-0.469,16.647,0.914,32.482-2.201,48.261
			c-0.937,0.083-1.828,0.195-2.724,0.236c-20.352,0.938-40.634-1.287-60.955-1.729c-0.344-0.008-0.676-0.624-1.124-1.064
			c2.058-7.808,1.611-15.666,0.954-23.765c-6.143,0.157-11.854-0.753-17.662,0.605c0.337,6.256-0.808,12.19,0.763,18.377
			c4.395,0,8.513,0,12.983,0c0,6.616,0,12.816,0,19.917c17.653,0.657,34.466-0.23,51.262,1.575
			c13.969,1.501,28.146-1.195,42.141,1.588c0.329,0.064,0.749-0.456,1.44-0.909C392.599,541.438,395.839,521.106,393.864,500.557z"
			/>
		<path fill="#CCCCCC" d="M735.434,203.832c-10.093-0.774-20.212-1.104-30.319-1.639c-0.685-0.037-1.46,0.047-2.033-0.281
			c-4.191-2.402-8.513-0.836-13.247-1.315c-0.543,6.976-1.027,13.328-1.534,19.677c-0.503,6.301-1.027,12.6-1.547,18.981
			c14.411,1.32,28.009,2.566,42.497,3.894c-0.699,6.58-1.309,12.384-1.933,18.186c-0.617,5.735,1.357,11.834-1.642,17.891
			c-4.127-0.627-7.891-1.475-11.684-1.724c-10.333-0.679-20.677-1.104-31.017-1.634c-0.69-0.036-1.385-0.063-2.067-0.172
			c-3.771-0.607-7.54-1.238-11.716-1.93c-0.907,6.974-1.687,12.963-2.515,19.337c-2.777,0-5.5,0-8.241,0
			c-2.505,7.235-2.491,14.288-1.896,22.336c6.704,0.413,13.061,0.813,19.418,1.187c1.158,0.069,2.497-0.39,3.452,0.115
			c4.425,2.339,9.086,1.072,13.632,1.482c4.542,0.411,9.062,1.207,13.606,1.5c10.101,0.65,20.213,1.091,30.321,1.617
			c0.463,0.024,0.972-0.097,1.385,0.076c7.183,3.014,14.518,0.883,22.021,1.41c0.613-9.485,1.217-18.44,1.756-27.4
			c0.125-2.081-0.224-4.227,0.084-6.26c1.803-11.954,2.189-24.031,2.738-36.102c0.375-8.241,0.907-16.474,1.398-24.708
			c0.045-0.751,0.281-1.494,0.474-2.225c1.682-6.335,0.906-12.662,0.473-19.171C756.353,205.869,745.906,204.636,735.434,203.832z"
			/>
		<path fill="#CCCCCC" d="M1416.828,355.041c0,8.601,0,16.886,0,25.504c-13.474,0-26.567,0-40.289,0c0-8.28,0-16.244,0-24.252
			c-11.615-1.692-22.386,0.775-33.371,1.716c0,10.949-0.14,21.391,0.065,31.824c0.085,4.247,0.919,8.475,1.447,13.009
			c2.96,0,5.253,0.008,7.546-0.001c16.378-0.07,32.735-0.136,49.113-1.355c13.402-0.998,26.908-0.209,40.369-0.212
			c2.266,0,4.531,0,7.343,0c0-2.691,0.076-4.718-0.014-6.736c-0.434-9.8-0.947-19.594-1.353-29.395
			c-0.146-3.539-0.063-7.089-0.087-10.884c-5.711,0-10.572-0.14-15.425,0.038C1427.183,354.479,1422.111,353.502,1416.828,355.041z"
			/>
		<path fill="#CCCCCC" d="M1322.855,355.411c13.828-0.882,27.251-1.739,41.263-2.633c-0.665-10.918,1.522-21.237-2.132-31.441
			c-2.041,0-3.88-0.079-5.711,0.013c-9.87,0.496-19.739,1.048-29.61,1.545c-1.775,0.089-3.56,0.012-5.905,0.012
			C1321.639,334.383,1319.073,345.277,1322.855,355.411z"/>
		<path fill="#CCCCCC" d="M1554.521,311.533c-2.958,0-5.611-0.561-7.991,0.11c-5.897,1.662-11.843,1.407-17.803,1.448
			c-1.782,0.012-3.566,0.001-5.451,0.001c0,39.545,0,78.307,0,117.314c10.521,0,20.666,0,31.245,0
			C1554.521,390.454,1554.521,351.169,1554.521,311.533z"/>
		<path fill="#CCCCCC" d="M1187.093,612.956c11.991,0.668,23.148,1.291,34.732,1.937c0.637-1.957,1.399-3.289,1.457-4.646
			c0.552-13.128,0.985-26.262,1.449-39.395c0.091-2.59-0.544-5.438,0.409-7.706c1.367-3.253,0.805-6.249,0.802-9.689
			c-11.97-0.946-23.708,0.902-36.053-1.733c0,6.772,0.893,12.764-0.242,18.395c-1.218,6.038-0.862,11.977-1.14,17.96
			c-0.07,1.516,0.347,3.168-0.159,4.529C1185.838,599.354,1187.698,606.123,1187.093,612.956z"/>
		<path fill="#CCCCCC" d="M1078.541,235.121c10.68,0.523,21.358,1.046,32.039,1.57c0.078-1.81-0.349-3.917,0.332-5.37
			c2.006-4.283,0.646-8.521,1.05-13.238c-8.247-0.618-15.954-1.196-23.662-1.771c-7.063-0.526-14.124-1.049-21.188-1.571
			c-0.461-0.034-0.966,0.075-1.38-0.098c-7.15-2.989-14.409-0.814-21.691-1.468c-0.714,8.157-1.351,15.444-2,22.886
			c6.854,0.784,12.888,1.475,18.987,2.173c0.557-1.659,1.017-3.033,1.57-4.689c4.681,0,9.283-0.065,13.882,0.071
			C1077.18,233.635,1077.855,234.595,1078.541,235.121z"/>
		<path fill="#CCCCCC" d="M1124.682,600.351c4.175,0,7.647,0.126,11.111-0.033c3.597-0.167,7.303,0.805,10.452-0.613
			c0.653-6.403,1.616-12.248,1.783-18.123c0.63-22.043,0.963-44.097,1.515-66.143c0.071-2.878,0.766-5.738,1.217-8.927
			c-10.799,0-20.938,0-32.298,0c-0.354,11.748-0.628,22.818-1.032,33.883c-0.402,10.976-0.937,21.947-1.408,32.875
			c3.318,0.394,5.757,0.684,8.268,0.98C1124.686,583.194,1124.062,591.716,1124.682,600.351z"/>
		<path fill="#CCCCCC" d="M1089.289,569.756c0,10.243,0,20.271,0,30.943c-6.261,0-11.927,0-17.582,0
			c-0.286,15.817-3.013,30.891-1.063,46.96c11.431-1.985,22.633,2.264,34.007,1.061c0.966-15.228-0.295-29.678,1.397-44.159
			c1.255-10.748,0.247-21.83,0.247-33.229C1100.527,569.56,1095.323,567.873,1089.289,569.756z"/>
		<path fill="#CCCCCC" d="M982.569,409.181c3.934,0,7.647-0.943,10.758,0.197c6.408,2.348,12.678,0.745,18.997,1.185
			c0.705-6.825,1.625-13.127,1.955-19.468c0.657-12.633,0.991-25.287,1.458-37.931c0.028-0.781-0.192-1.714,0.108-2.319
			c2.594-5.175,0.698-10.659,1.325-16.259c-10.061-4.206-20.146-1.459-30.492-2.353c-0.58,10.237-1.13,19.229-1.589,28.226
			c-0.514,10.036-0.938,20.077-1.423,30.115c-0.036,0.755-0.139,1.549-0.39,2.243C981.372,398.079,982.487,403.374,982.569,409.181z
			"/>
		<path fill="#CCCCCC" d="M1153.498,475.942c-0.233-6.601,3.359-13,0.77-19.886c-7.26-0.503-14.343-1.017-21.429-1.474
			c-2.534-0.164-5.31,0.518-7.566-0.424c-5.248-2.189-10.396-0.604-16.187-1.147c0,3.949,0.007,7.282-0.001,10.615
			c-0.009,3.654,0.788,7.63-0.227,10.893c-1.768,5.685-0.748,11.208-1.227,17.295c14.655,2.398,29.014,3.035,43.744,3.724
			C1155.189,488.93,1153.719,482.214,1153.498,475.942z"/>
		<path fill="#CCCCCC" d="M988.168,621.465c0,8.897,0,17.868,0,27.153c12.448,0,24.594,0,36.759,0
			c-0.404-9.73-0.794-19.135-1.22-29.349C1011.598,619.203,999.93,618.253,988.168,621.465z"/>
	</g>
</g>
</svg>
